M48
;FILE_FORMAT=4:2
METRIC,TZ
T1F00S00C0.5
T2F00S00C1.0
T3F00S00C1.3
T4F00S00C1.7
T5F00S00C2.5
T6F00S00C3.5
T7F00S00C3.5
T8F00S00C3.5
%
T01
X6.65Y23.83
X10.2Y23.83
X13.76Y23.83
X17.31Y23.83
X20.87Y23.83
X24.3Y23.83
X27.85Y23.83
X31.41Y23.83
X34.97Y23.83
X38.52Y23.83
X45.3Y23.83
X48.85Y25.48
X60.37Y15.96
X61.26Y17.1
X62.27Y18.12
X67.99Y20.91
X68.11Y17.86
X68.62Y19.51
X69.26Y16.09
X70.02Y22.31
X71.42Y16.34
X72.43Y28.02
X73.32Y8.97
X73.32Y5.42
X73.32Y4.4
X73.32Y3.39
X73.57Y23.83
X74.34Y22.18
X75.73Y19.13
X75.78Y20.57
X76.88Y14.56
X79.29Y18.5
X79.29Y16.59
X82.08Y25.36
X83.1Y19.77
X85.89Y18.92
X94.4Y11.13
X95.04Y21.04
X95.04Y10.63
X95.67Y11.13
X96.31Y27.01
X97.96Y12.78
X101.77Y12.78
X102.4Y21.04
X102.53Y13.42
X102.53Y12.15
X103.67Y27.01
X109.77Y21.04
X111.04Y27.01
X117.13Y21.04
X118.66Y27.01
X127.59Y8.93
T02
X12.66Y31.83
X15.2Y31.83
X17.74Y31.83
X20.28Y31.83
X22.82Y31.83
X25.36Y31.83
X27.9Y31.83
X30.44Y31.83
X32.98Y31.83
X35.52Y31.83
X38.06Y31.83
X40.6Y31.83
X43.14Y31.83
X57.45Y7.37
X59.22Y9.14
X59.22Y5.55
X61.04Y10.96
X61.04Y7.37
X62.82Y9.14
X85.47Y21.29
X90.38Y15.49
X109.77Y31.83
X112.31Y31.83
X114.85Y31.83
X117.39Y31.83
X119.93Y31.83
X124.58Y12.66
X125.98Y27.01
X127.38Y12.66
X128.39Y23.83
X130.17Y23.83
X130.17Y21.29
X130.17Y19.13
X130.17Y16.59
X130.17Y14.05
T03
X16.34Y6.31
X21.42Y6.31
X29.63Y9.52
X29.63Y5.04
X36.15Y9.52
X36.15Y5.04
X39.16Y9.52
X39.16Y5.04
X45.68Y9.52
X45.68Y5.04
X48.68Y9.52
X48.68Y5.04
X55.16Y9.52
X55.16Y5.04
T04
X51.77Y21.72
X56.85Y21.72
T05
X2.24Y12.87
X17.74Y12.87
T06
X5.21Y11.26
X7.87Y14.27
T07
X3.17Y31.88
X3.17Y3.13
X66.08Y31.88
X66.08Y3.13
X128.99Y31.88
X128.99Y3.13
T08
X11.18Y8.76
M30
