M48
;FILE_FORMAT=4:2
METRIC,TZ
T2F00S00C1.0
T3F00S00C3.2
T4F00S00C10.0
%
T02
X21.17Y43.56
X23.71Y43.56
X26.25Y43.56
X28.79Y43.56
X31.33Y43.56
X33.87Y43.56
X36.41Y43.56
X38.95Y43.56
X41.49Y43.56
X44.03Y43.56
X46.57Y43.56
X49.11Y43.56
X51.65Y43.56
X66.17Y41.32
X73.36Y29.71
X73.36Y15.68
X75.9Y29.71
X75.9Y15.68
X112.82Y43.56
X115.36Y43.56
X117.9Y43.56
X120.44Y43.56
X122.98Y43.56
T03
X3.13Y20.38
X3.34Y41.95
X3.34Y3.39
X4.23Y28.31
X6.43Y13.09
X9.48Y34.37
X13.12Y8.77
X17.14Y36.61
X21.12Y8.77
X24.81Y34.37
X27.85Y13.09
X30.06Y28.31
X31.2Y20.38
X39.07Y20.38
X40.22Y28.31
X42.42Y13.14
X45.47Y34.37
X49.15Y8.77
X53.17Y36.66
X57.15Y8.77
X60.83Y34.37
X63.88Y13.14
X66.04Y28.31
X67.18Y20.38
X74.59Y41.95
X74.59Y3.39
X82.08Y20.38
X83.23Y28.31
X85.38Y13.09
X88.48Y34.37
X92.12Y8.77
X96.14Y36.61
X100.12Y8.77
X103.8Y34.37
X106.85Y13.09
X109.01Y28.31
X110.15Y20.38
X118.07Y20.38
X119.17Y28.31
X121.37Y13.09
X124.42Y34.37
X128.1Y8.77
X132.08Y36.61
X136.1Y8.77
X139.78Y34.37
X142.83Y13.09
X144.99Y28.31
X145.88Y41.95
X145.88Y3.39
X146.13Y20.38
T04
X17.14Y22.67
X53.13Y22.67
X96.09Y22.67
X132.08Y22.67
M30
