M48
;FILE_FORMAT=4:2
METRIC,TZ
T1F00S00C0.6
T2F00S00C1.0
T3F00S00C1.5
T4F00S00C3.0
T5F00S00C3.5
%
T01
X2.33Y37.51
X7.92Y37.51
X13.46Y37.51
X19.01Y37.51
X24.6Y37.51
X30.14Y37.51
X30.44Y4.87
X35.69Y37.51
X39.33Y9.44
X39.33Y8.17
X39.33Y6.9
X41.27Y37.51
X46.82Y37.51
X52.37Y37.51
X57.91Y37.51
X58.63Y31.41
X63.46Y37.51
X65.36Y8.04
X65.36Y6.77
X72.35Y13.97
X74.59Y36.71
X74.59Y29.59
X79.29Y37.51
X83.86Y7.92
X83.86Y6.65
X89.96Y38.95
X94.78Y19.39
X94.78Y16.68
X96.56Y37.51
X97.32Y29.64
X98.21Y26.21
X98.85Y16.21
X99.86Y30.78
X99.86Y26.21
X99.99Y12.62
X101.51Y30.78
X101.81Y12.66
X102.4Y19.39
X103.16Y30.78
X103.5Y24.17
X103.59Y12.66
X104.82Y16.93
X105.2Y19.39
X107.1Y17.99
X107.23Y38.95
X107.61Y22.95
X108.24Y16.43
X109.77Y16.43
X109.98Y27.43
X110.02Y22.61
X112.35Y14.52
X113.2Y25.87
X113.2Y23.41
X113.83Y37.51
X113.92Y19.43
X116.25Y16.43
X118.23Y23.24
X124.5Y38.95
X125.6Y23.24
X125.6Y19.81
X131.1Y37.51
X141.31Y13.17
X141.77Y38.95
X143.72Y10.75
T02
X18.88Y19.6
X21.17Y43.48
X23.71Y43.48
X23.96Y19.6
X26.25Y43.48
X28.79Y43.48
X31.33Y43.48
X33.87Y43.48
X36.41Y43.48
X38.95Y43.48
X41.49Y43.48
X44.03Y43.48
X46.57Y43.48
X49.11Y43.48
X51.65Y43.48
X55.71Y6.77
X60.79Y6.77
X69.43Y39.67
X69.43Y33.95
X92.58Y8.26
X92.58Y3.77
X99.1Y8.26
X99.1Y3.77
X107.61Y8.26
X107.61Y3.77
X112.82Y43.48
X114.09Y8.26
X114.09Y3.77
X115.36Y43.48
X117.9Y43.48
X118.28Y14.52
X118.28Y11.98
X120.44Y43.48
X120.82Y14.52
X120.82Y11.98
X122.6Y8.26
X122.6Y3.77
X122.98Y43.48
X123.36Y14.52
X123.36Y11.98
X128.9Y17.74
X129.07Y8.26
X129.07Y3.77
X135.38Y13.97
T03
X135.17Y26.33
X140.25Y26.33
T04
X8.55Y9.74
X11.05Y15.71
X11.68Y18.76
X11.68Y3.22
X14.05Y13.0
T05
X3.34Y41.87
X3.34Y3.34
X74.59Y41.87
X74.59Y3.34
X145.88Y41.87
X145.88Y3.34
M30
