M48
; #@! TF.FileFunction,Plated,1,2,PTH
METRIC,TZ
T1C0.500
T2C1.000
T3C1.300
T4C1.700
%
G90
G05
T1
X80.193Y52.520
X85.228Y52.053
X9.612Y49.867
X19.254Y49.474
X9.615Y48.959
X80.328Y48.955
X85.336Y48.502
X19.255Y48.453
X9.619Y48.085
X71.612Y47.194
X19.253Y46.669
X40.354Y46.553
X71.608Y45.928
X35.789Y45.831
X19.249Y45.669
X40.382Y45.708
X81.744Y45.392
X27.000Y42.491
X81.743Y41.832
X86.525Y41.379
X26.997Y39.682
X55.605Y39.170
X81.750Y38.282
X38.948Y37.785
X21.770Y37.392
X56.365Y36.877
X49.116Y36.501
X26.744Y34.985
X28.392Y34.967
X81.740Y34.720
X14.537Y33.701
X34.766Y33.040
X18.986Y32.303
X23.239Y32.256
X56.364Y32.318
X30.839Y31.413
X34.701Y31.473
X73.152Y31.153
X74.030Y31.155
X78.872Y31.156
X79.748Y31.153
X81.748Y31.138
X23.361Y30.659
X7.667Y28.622
X28.749Y27.669
X81.740Y27.583
X27.139Y27.527
X86.519Y27.134
X21.864Y26.187
X35.259Y25.747
X41.617Y25.731
X51.172Y25.568
X43.771Y25.050
X33.878Y24.213
X39.963Y24.196
X24.707Y24.031
X81.740Y24.011
X28.427Y23.820
X29.812Y23.828
X71.736Y23.658
X19.622Y23.277
X50.418Y23.045
X43.390Y23.018
X57.396Y22.910
X21.023Y22.527
X39.194Y20.774
X48.993Y20.761
X56.504Y20.775
X66.802Y20.768
X6.777Y20.751
X81.749Y20.470
X86.520Y20.010
X27.623Y19.236
X47.453Y19.239
X65.511Y19.247
X29.765Y18.228
X55.241Y18.229
X53.949Y1.898
X26.872Y1.891
X75.819Y1.896
T2
X68.662Y40.698
X70.003Y40.699
X72.711Y40.700
X74.054Y40.690
X42.147Y38.571
X43.450Y38.579
X48.458Y38.588
X49.815Y38.572
X10.089Y33.700
X12.626Y33.706
X44.694Y31.205
X47.241Y31.199
X10.074Y31.156
X12.634Y31.160
X10.088Y28.614
X12.633Y28.621
X44.686Y5.520
X47.215Y5.503
T3
X1.712Y48.400
X6.240Y48.401
X1.730Y41.885
X6.240Y41.883
X1.720Y39.360
X6.234Y39.364
X1.714Y32.848
X6.236Y32.846
X1.718Y30.312
X6.239Y30.316
X1.723Y23.801
X6.244Y23.799
T4
X58.075Y38.572
X63.084Y38.574
X7.737Y15.206
X29.749Y15.206
X56.779Y15.208
X78.799Y15.208
X13.224Y15.159
X35.241Y15.153
X62.264Y15.155
X84.290Y15.159
X5.528Y13.482
X15.399Y13.396
X27.537Y13.479
X37.430Y13.392
X54.566Y13.479
X76.611Y13.480
X64.460Y13.389
X86.473Y13.393
X4.309Y10.963
X26.316Y10.961
X53.352Y10.962
X75.366Y10.957
X16.579Y10.861
X38.616Y10.870
X65.638Y10.869
X87.680Y10.858
X54.518Y5.619
X5.465Y5.616
X15.308Y5.519
X27.490Y5.622
X37.346Y5.515
X64.363Y5.518
X76.540Y5.616
X86.397Y5.514
X7.635Y3.842
X29.651Y3.837
X56.676Y3.841
X78.719Y3.842
X13.096Y3.786
X35.138Y3.789
X62.158Y3.787
X84.185Y3.789
X10.382Y3.202
X32.396Y3.200
X59.430Y3.207
X81.446Y3.207
T0
M30
