M48
;FILE_FORMAT=4:2
METRIC,TZ
T2F00S00C0.5
T3F00S00C1.0
T4F00S00C2.0
T5F00S00C3.5
%
T02
X35.35Y4.15
X36.87Y27.01
X38.01Y3.77
X58.46Y12.28
X72.26Y5.42
X74.8Y29.04
X77.72Y29.04
X77.98Y5.04
X91.18Y8.47
X91.18Y5.29
X103.8Y24.21
X105.32Y22.82
X106.17Y3.39
X110.02Y4.66
X122.51Y28.66
X123.06Y8.59
X123.06Y5.93
T03
X12.66Y31.83
X15.2Y31.83
X17.74Y31.83
X20.28Y31.83
X22.82Y31.83
X25.36Y31.83
X27.9Y31.83
X30.44Y31.83
X32.98Y31.83
X35.52Y31.83
X38.06Y31.83
X40.6Y31.83
X43.14Y31.83
X64.81Y22.6
X64.81Y12.4
X67.35Y22.6
X67.35Y12.4
X109.77Y31.83
X112.31Y31.83
X114.85Y31.83
X117.39Y31.83
X119.93Y31.83
T04
X7.49Y19.39
X7.49Y15.66
X9.1Y22.69
X9.1Y12.32
X12.02Y25.02
X15.62Y25.86
X15.62Y9.14
X19.26Y25.02
X19.26Y9.99
X22.14Y22.69
X22.14Y12.28
X23.75Y19.35
X23.75Y15.62
X39.45Y19.39
X39.45Y15.66
X41.06Y12.32
X41.1Y22.73
X43.98Y25.02
X47.58Y9.14
X47.62Y25.86
X51.22Y25.02
X51.22Y9.99
X54.1Y22.69
X54.1Y12.28
X55.75Y19.35
X55.75Y15.62
X76.45Y19.39
X76.45Y15.66
X78.06Y12.32
X78.1Y22.69
X80.98Y25.02
X84.58Y9.14
X84.62Y25.86
X88.22Y25.02
X88.22Y9.99
X91.1Y12.28
X91.14Y22.69
X92.75Y19.35
X92.75Y15.62
X108.46Y19.39
X108.46Y15.66
X110.02Y12.32
X110.06Y22.69
X112.94Y25.02
X116.58Y25.86
X116.58Y9.14
X120.18Y25.02
X120.18Y9.99
X123.1Y22.69
X123.1Y12.28
X124.71Y19.35
X124.71Y15.62
T05
X3.17Y31.83
X3.17Y3.09
X66.08Y31.83
X66.08Y3.09
X128.99Y31.83
X128.99Y3.09
M30
