M48
;FILE_FORMAT=4:2
METRIC,TZ
T1F00S00C0.5
T2F00S00C1.0
T3F00S00C2.9
T4F00S00C3.4
T5F00S00C10.0
%
T01
X2.29Y37.39
X7.88Y37.39
X13.48Y37.39
X18.99Y37.39
X21.19Y98.13
X21.19Y43.4
X23.73Y98.13
X23.73Y43.4
X24.58Y37.39
X26.28Y98.13
X26.28Y43.4
X28.82Y98.13
X28.82Y43.4
X30.09Y37.39
X30.43Y4.82
X31.36Y98.13
X31.36Y43.4
X33.9Y98.13
X33.9Y43.4
X35.68Y37.39
X36.45Y98.13
X36.45Y43.4
X38.99Y98.13
X38.99Y43.4
X39.33Y9.39
X39.33Y8.12
X39.33Y6.85
X41.53Y98.13
X41.53Y43.4
X41.28Y37.39
X44.08Y98.13
X44.08Y43.4
X46.62Y98.13
X46.62Y43.4
X46.79Y37.39
X49.16Y98.13
X49.16Y43.4
X51.7Y98.13
X51.7Y43.4
X52.38Y37.39
X55.69Y6.77
X57.89Y37.39
X58.66Y31.3
X60.77Y6.77
X63.49Y37.39
X65.35Y7.95
X65.35Y6.68
X69.42Y39.59
X69.42Y33.92
X72.39Y13.96
X73.4Y84.26
X73.4Y70.3
X74.59Y36.63
X74.59Y29.52
X75.95Y84.26
X75.95Y70.3
X79.34Y37.39
X83.91Y7.87
X83.91Y6.6
X90.02Y38.91
X94.76Y19.29
X94.76Y16.58
X96.63Y37.39
X97.31Y29.52
X98.24Y26.14
X98.92Y16.16
X99.93Y30.71
X99.93Y26.14
X100.02Y12.52
X101.54Y30.71
X101.88Y12.61
X102.39Y19.29
X103.15Y30.71
X103.49Y24.11
X103.58Y12.61
X104.85Y16.83
X105.19Y19.29
X107.14Y17.93
X107.31Y38.91
X107.65Y22.84
X108.24Y16.33
X109.77Y16.33
X110.02Y27.41
X110.02Y22.59
X112.39Y14.47
X112.9Y98.13
X112.9Y43.4
X113.24Y25.8
X113.24Y23.35
X113.92Y37.39
X114.0Y19.37
X115.45Y98.13
X115.45Y43.4
X116.29Y16.33
X117.99Y98.13
X117.99Y43.4
X118.33Y14.47
X118.33Y11.93
X118.24Y23.18
X120.53Y98.13
X120.53Y43.4
X120.87Y14.47
X120.87Y11.93
X123.07Y98.13
X123.07Y43.4
X123.41Y14.47
X123.41Y11.93
X124.6Y38.91
X125.62Y23.18
X125.62Y19.8
X129.01Y17.68
X131.21Y37.39
X135.45Y13.96
X141.38Y13.11
X141.81Y38.91
X143.84Y10.74
T02
X18.9Y19.54
X23.99Y19.54
X66.2Y95.85
X92.64Y8.21
X92.64Y3.72
X99.17Y8.21
X99.17Y3.72
X107.65Y8.21
X107.65Y3.72
X114.17Y8.21
X114.17Y3.72
X122.65Y8.21
X122.65Y3.72
X129.18Y8.21
X129.18Y3.72
X135.28Y26.31
X140.37Y26.31
T03
X3.14Y74.95
X4.24Y82.91
X6.44Y67.68
X9.49Y88.91
X8.56Y9.73
X11.02Y15.65
X11.7Y18.7
X11.7Y3.21
X13.14Y63.36
X14.07Y12.94
X17.12Y91.2
X21.11Y63.36
X24.84Y88.91
X27.89Y67.68
X30.09Y82.91
X31.19Y74.95
X39.08Y74.95
X40.26Y82.91
X42.47Y67.76
X45.52Y88.91
X49.16Y63.36
X53.23Y91.2
X57.13Y63.36
X60.86Y88.91
X63.91Y67.76
X66.03Y82.91
X67.22Y74.95
X82.13Y74.95
X83.24Y82.91
X85.44Y67.68
X88.49Y88.91
X92.14Y63.36
X96.2Y91.2
X100.19Y63.36
X103.83Y88.91
X106.88Y67.68
X109.09Y82.91
X110.19Y74.95
X118.16Y74.95
X119.26Y82.91
X121.46Y67.68
X124.51Y88.91
X128.16Y63.36
X132.14Y91.2
X136.21Y63.36
X139.86Y88.91
X142.91Y67.68
X145.11Y82.91
X146.21Y74.95
T04
X3.31Y96.53
X3.31Y58.03
X3.31Y41.79
X3.31Y3.3
X74.59Y96.53
X74.59Y58.03
X74.59Y41.79
X74.59Y3.3
X145.96Y96.53
X145.96Y58.03
X145.96Y41.79
X145.96Y3.3
T05
X17.12Y77.24
X53.15Y77.24
X96.2Y77.24
X132.14Y77.24
M30
