G04 #@! TF.GenerationSoftware,jpg2gerber*
%FSLAX46Y46*%
%MOMM*%
G04 #@! TF.FileFunction,Soldermask,Top*
G04 #@! TF.FilePolarity,Negative*
%ADD10C,0.100000*%
G01*
%LPD*%
%LPD*%
G36*
X8713591Y50001946D02*
X8773273Y49942264D01*
X9340253Y49942264D01*
X9608823Y50180993D01*
X9698346Y50180993D01*
X9758028Y50151151D01*
X9787869Y50091469D01*
X9937074Y50061628D01*
X10086280Y49942264D01*
X10653260Y49942264D01*
X10712942Y50001946D01*
X10712942Y51165748D01*
X10832306Y51314953D01*
X10832306Y51762569D01*
X10712942Y51911774D01*
X10712942Y53433669D01*
X10802465Y53523192D01*
X10891988Y53523192D01*
X10951670Y53582874D01*
X10951670Y54030490D01*
X11041194Y54120013D01*
X11250081Y54120013D01*
X11339604Y54030490D01*
X11339604Y53582874D01*
X11399286Y53523192D01*
X11727538Y53523192D01*
X11876743Y53403827D01*
X12443724Y53403827D01*
X12592929Y53523192D01*
X13279273Y53523192D01*
X13338956Y53582874D01*
X13338956Y54030490D01*
X13428479Y54120013D01*
X13518002Y54120013D01*
X13607525Y54030490D01*
X13607525Y53582874D01*
X13667207Y53523192D01*
X15547194Y53523192D01*
X15606876Y53582874D01*
X15606876Y54030490D01*
X15696400Y54120013D01*
X15905287Y54120013D01*
X15994810Y54030490D01*
X15994810Y53702238D01*
X16024651Y53642556D01*
X16173857Y53523192D01*
X18411936Y53523192D01*
X18471619Y53582874D01*
X18471619Y55582225D01*
X18411936Y55641907D01*
X16054492Y55641907D01*
X15994810Y55582225D01*
X15994810Y55134609D01*
X15905287Y55045086D01*
X15815764Y55045086D01*
X15756082Y55074927D01*
X15606876Y55253973D01*
X15606876Y55582225D01*
X15547194Y55641907D01*
X13667207Y55641907D01*
X13607525Y55582225D01*
X13607525Y55134609D01*
X13518002Y55045086D01*
X13428479Y55045086D01*
X13338956Y55134609D01*
X13338956Y55582225D01*
X13279273Y55641907D01*
X11399286Y55641907D01*
X11339604Y55582225D01*
X11339604Y55134609D01*
X11250081Y55045086D01*
X11160558Y55045086D01*
X11100876Y55074927D01*
X10951670Y55253973D01*
X10951670Y55582225D01*
X10891988Y55641907D01*
X8534544Y55641907D01*
X8474862Y55582225D01*
X8474862Y53582874D01*
X8534544Y53523192D01*
X8624067Y53523192D01*
X8713591Y53433669D01*
X8713591Y50001946D01*
G37*
%LPD*%
G36*
X79108660Y1032760D02*
X79078819Y1092442D01*
X78929614Y1211807D01*
X76333441Y1211807D01*
X76184236Y1331171D01*
X75617256Y1331171D01*
X75468051Y1211807D01*
X61651638Y1211807D01*
X61591956Y1181966D01*
X61472592Y1032760D01*
X61472592Y465780D01*
X61532274Y406098D01*
X79048978Y406098D01*
X79108660Y465780D01*
X79108660Y1032760D01*
G37*
%LPD*%
G36*
X46253649Y47763866D02*
X46193967Y47704184D01*
X46193967Y45406422D01*
X46164126Y45376581D01*
X45776192Y45376581D01*
X45626987Y45257217D01*
X45298735Y45257217D01*
X45149530Y45137853D01*
X45119689Y45078171D01*
X45119689Y42959455D01*
X45179371Y42899773D01*
X46581901Y42899773D01*
X46641583Y42959455D01*
X46641583Y44958806D01*
X46492378Y45137853D01*
X46343172Y45257217D01*
X46253649Y45257217D01*
X46164126Y45376581D01*
X46193967Y45406422D01*
X46581901Y45406422D01*
X46731106Y45525787D01*
X47178722Y45525787D01*
X47268245Y45436263D01*
X47268245Y45346740D01*
X47327927Y45287058D01*
X47417451Y45287058D01*
X47506974Y45197535D01*
X47506974Y45108012D01*
X47417451Y45018488D01*
X47327927Y45018488D01*
X47268245Y44958806D01*
X47268245Y42959455D01*
X47327927Y42899773D01*
X48730457Y42899773D01*
X48790139Y42959455D01*
X48790139Y45078171D01*
X48700616Y45167694D01*
X48700616Y45257217D01*
X48790139Y45346740D01*
X48790139Y47704184D01*
X48730457Y47763866D01*
X46253649Y47763866D01*
G37*
%LPD*%
G36*
X30049951Y1032760D02*
X30020110Y1092442D01*
X29870905Y1211807D01*
X27394097Y1211807D01*
X27244891Y1331171D01*
X26677911Y1331171D01*
X26528706Y1211807D01*
X15815764Y1211807D01*
X15756082Y1152125D01*
X15756082Y585144D01*
X15785923Y525462D01*
X15935128Y406098D01*
X29990269Y406098D01*
X30049951Y465780D01*
X30049951Y1032760D01*
G37*
%LPD*%
G36*
X8773273Y47286409D02*
X8713591Y47226727D01*
X8713591Y43795005D01*
X8773273Y43735323D01*
X8982160Y43735323D01*
X9161207Y43586117D01*
X9191048Y43526435D01*
X9191048Y42840091D01*
X9250730Y42780409D01*
X9817710Y42780409D01*
X9966915Y42899773D01*
X10295167Y42899773D01*
X10444372Y42780409D01*
X11130717Y42780409D01*
X11190399Y42840091D01*
X11190399Y43645800D01*
X11279922Y43735323D01*
X11369445Y43735323D01*
X11429127Y43795005D01*
X11429127Y46391177D01*
X11369445Y46450860D01*
X10802465Y46450860D01*
X10712942Y46540383D01*
X10712942Y47226727D01*
X10653260Y47286409D01*
X8773273Y47286409D01*
G37*
%LPD*%
G36*
X60457995Y47763866D02*
X60398313Y47704184D01*
X60398313Y45585469D01*
X60457995Y45525787D01*
X61383068Y45525787D01*
X61442751Y45495946D01*
X61591956Y45316899D01*
X61741161Y45287058D01*
X61800843Y45227376D01*
X61800843Y45167694D01*
X61621797Y45018488D01*
X61472592Y44839442D01*
X61472592Y42959455D01*
X61532274Y42899773D01*
X62934804Y42899773D01*
X62994486Y42959455D01*
X62994486Y47704184D01*
X62934804Y47763866D01*
X60457995Y47763866D01*
G37*
%LPD*%
G36*
X67082712Y47704184D02*
X67082712Y45585469D01*
X67142394Y45525787D01*
X71170937Y45525787D01*
X71230620Y45585469D01*
X71230620Y45794356D01*
X71260461Y45854038D01*
X71320143Y45883879D01*
X71349984Y46033085D01*
X71469348Y46182290D01*
X71469348Y46749270D01*
X71439507Y46808952D01*
X71379825Y46838793D01*
X71349984Y46987999D01*
X71260461Y47077522D01*
X71260461Y47167045D01*
X71349984Y47256568D01*
X71349984Y47704184D01*
X71290302Y47763866D01*
X67142394Y47763866D01*
X67082712Y47704184D01*
G37*
%LPD*%
G36*
X64516380Y47763866D02*
X64456698Y47734025D01*
X64337334Y47584820D01*
X64337334Y45585469D01*
X64456698Y45436263D01*
X64456698Y42959455D01*
X64516380Y42899773D01*
X65918910Y42899773D01*
X65978592Y42959455D01*
X65978592Y44839442D01*
X65948751Y44899124D01*
X65769705Y45048330D01*
X65739864Y45197535D01*
X65829387Y45287058D01*
X65918910Y45287058D01*
X65978592Y45346740D01*
X65978592Y45436263D01*
X66068115Y45525787D01*
X66754460Y45525787D01*
X66814142Y45585469D01*
X66814142Y47704184D01*
X66754460Y47763866D01*
X64516380Y47763866D01*
G37*
%LPD*%
G36*
X57354525Y47763866D02*
X57294843Y47704184D01*
X57294843Y45346740D01*
X57384366Y45257217D01*
X57384366Y45167694D01*
X57294843Y45078171D01*
X57294843Y42959455D01*
X57354525Y42899773D01*
X58757055Y42899773D01*
X58816737Y42959455D01*
X58816737Y44958806D01*
X58757055Y45018488D01*
X58667532Y45018488D01*
X58578008Y45108012D01*
X58578008Y45197535D01*
X58667532Y45287058D01*
X58757055Y45287058D01*
X58816737Y45346740D01*
X58816737Y45436263D01*
X58906260Y45525787D01*
X59711969Y45525787D01*
X59771651Y45585469D01*
X59771651Y47584820D01*
X59741810Y47644502D01*
X59592605Y47763866D01*
X57354525Y47763866D01*
G37*
%LPD*%
G36*
X53415504Y47763866D02*
X53355822Y47704184D01*
X53355822Y45585469D01*
X53415504Y45525787D01*
X54340577Y45525787D01*
X54430101Y45436263D01*
X54430101Y45346740D01*
X54489783Y45287058D01*
X54579306Y45287058D01*
X54668829Y45197535D01*
X54668829Y45108012D01*
X54579306Y45018488D01*
X54489783Y45018488D01*
X54430101Y44958806D01*
X54430101Y42959455D01*
X54489783Y42899773D01*
X55772948Y42899773D01*
X55832631Y42959455D01*
X55832631Y45436263D01*
X55951995Y45585469D01*
X55951995Y47704184D01*
X55892313Y47763866D01*
X53415504Y47763866D01*
G37*
%LPD*%
G36*
X50192669Y47763866D02*
X50132987Y47704184D01*
X50132987Y45585469D01*
X50252352Y45436263D01*
X50252352Y42959455D01*
X50312034Y42899773D01*
X51595199Y42899773D01*
X51654882Y42929614D01*
X51774246Y43078819D01*
X51774246Y43287707D01*
X51654882Y43436912D01*
X51654882Y43526435D01*
X51774246Y43675641D01*
X51774246Y44720078D01*
X51744405Y44779760D01*
X51684723Y44809601D01*
X51654882Y44958806D01*
X51595199Y45018488D01*
X51505676Y45018488D01*
X51416153Y45108012D01*
X51416153Y45197535D01*
X51505676Y45287058D01*
X51595199Y45287058D01*
X51654882Y45346740D01*
X51654882Y45436263D01*
X51744405Y45525787D01*
X52550114Y45525787D01*
X52609796Y45585469D01*
X52609796Y47704184D01*
X52550114Y47763866D01*
X50192669Y47763866D01*
G37*
%LPD*%
G36*
X24768083Y43347389D02*
X24708401Y43287707D01*
X24708401Y41407720D01*
X24768083Y41348038D01*
X26051249Y41348038D01*
X26200454Y41467402D01*
X26230295Y41616607D01*
X26319818Y41706130D01*
X26409342Y41706130D01*
X26498865Y41616607D01*
X26498865Y40333441D01*
X26409342Y40243918D01*
X26319818Y40243918D01*
X26230295Y40333441D01*
X26230295Y40900422D01*
X26170613Y40960104D01*
X24768083Y40960104D01*
X24708401Y40900422D01*
X24708401Y39020435D01*
X24768083Y38960753D01*
X26289977Y38960753D01*
X26349659Y39020435D01*
X26349659Y39826143D01*
X26439183Y39915667D01*
X26886799Y39915667D01*
X27036004Y40035031D01*
X27125527Y40035031D01*
X27274732Y39915667D01*
X27602984Y39915667D01*
X27662666Y39975349D01*
X27662666Y42094064D01*
X27602984Y42153746D01*
X27274732Y42153746D01*
X27125527Y42034382D01*
X26916640Y42034382D01*
X26767434Y42153746D01*
X26439183Y42153746D01*
X26349659Y42243270D01*
X26349659Y42929614D01*
X26230295Y43078819D01*
X26230295Y43287707D01*
X26170613Y43347389D01*
X24768083Y43347389D01*
G37*
%LPD*%
G36*
X10862147Y21682777D02*
X10862147Y19802789D01*
X10921829Y19743107D01*
X11130717Y19743107D01*
X11220240Y19653584D01*
X11220240Y19564061D01*
X11100876Y19414856D01*
X11100876Y18012326D01*
X11160558Y17952644D01*
X11727538Y17952644D01*
X11876743Y18072008D01*
X12204995Y18072008D01*
X12264677Y18131690D01*
X12264677Y19414856D01*
X12234836Y19474538D01*
X12175154Y19504379D01*
X12145313Y19653584D01*
X12234836Y19743107D01*
X12324359Y19743107D01*
X12384042Y19802789D01*
X12384042Y20250405D01*
X12473565Y20339929D01*
X13398638Y20339929D01*
X13488161Y20250405D01*
X13488161Y20041518D01*
X13547843Y19981836D01*
X15427830Y19981836D01*
X15487512Y20041518D01*
X15487512Y21444048D01*
X15427830Y21503730D01*
X13667207Y21503730D01*
X13518002Y21384366D01*
X13488161Y21235161D01*
X13398638Y21145637D01*
X12473565Y21145637D01*
X12384042Y21235161D01*
X12384042Y21563412D01*
X12354200Y21623094D01*
X12204995Y21742459D01*
X10921829Y21742459D01*
X10862147Y21682777D01*
G37*
%LPD*%
G36*
X38614337Y17922802D02*
X38554655Y17863120D01*
X38554655Y16818683D01*
X38614337Y16759001D01*
X40016867Y16759001D01*
X40166072Y16878365D01*
X40613688Y16878365D01*
X40703211Y16788842D01*
X40703211Y16460590D01*
X40464483Y16192021D01*
X40464483Y14431398D01*
X40524165Y14371716D01*
X41926695Y14371716D01*
X41986377Y14431398D01*
X41986377Y16192021D01*
X41867013Y16341226D01*
X41717807Y16371067D01*
X41628284Y16460590D01*
X41628284Y16788842D01*
X41777489Y16967888D01*
X41837172Y16997729D01*
X42165423Y16997729D01*
X42225105Y17027571D01*
X42344470Y17176776D01*
X42344470Y18459942D01*
X42284788Y18519624D01*
X40404801Y18519624D01*
X40345118Y18459942D01*
X40345118Y17892961D01*
X40255595Y17803438D01*
X40106390Y17833279D01*
X40076549Y17892961D01*
X39897502Y18042167D01*
X39688615Y18042167D01*
X39539410Y17922802D01*
X38614337Y17922802D01*
G37*
%LPD*%
G36*
X34496270Y1032760D02*
X34496270Y465780D01*
X34555952Y406098D01*
X45268894Y406098D01*
X45328576Y465780D01*
X45328576Y913396D01*
X45298735Y973078D01*
X45239053Y1002919D01*
X45209212Y1152125D01*
X45149530Y1211807D01*
X34675316Y1211807D01*
X34615634Y1181966D01*
X34496270Y1032760D01*
G37*
%LPD*%
G36*
X57145637Y1032760D02*
X57115796Y1092442D01*
X56966591Y1211807D01*
X54489783Y1211807D01*
X54340577Y1331171D01*
X53773597Y1331171D01*
X53624392Y1211807D01*
X46850470Y1211807D01*
X46790788Y1181966D01*
X46671424Y1032760D01*
X46671424Y465780D01*
X46731106Y406098D01*
X57085955Y406098D01*
X57145637Y465780D01*
X57145637Y1032760D01*
G37*
%LPD*%
G36*
X35272138Y45495946D02*
X35212455Y45436263D01*
X35212455Y44869283D01*
X35122932Y44779760D01*
X35033409Y44779760D01*
X34973727Y44720078D01*
X34973727Y43078819D01*
X35003568Y43019137D01*
X35182614Y42869932D01*
X35212455Y42810250D01*
X35212455Y42601362D01*
X35451184Y42332793D01*
X35451184Y42243270D01*
X35331820Y42094064D01*
X35331820Y41765813D01*
X35212455Y41616607D01*
X35212455Y41168991D01*
X35331820Y41019786D01*
X35331820Y40094713D01*
X35391502Y40035031D01*
X36794032Y40035031D01*
X36853714Y40094713D01*
X36853714Y41974700D01*
X36794032Y42034382D01*
X36585144Y42034382D01*
X36495621Y42123905D01*
X36495621Y42810250D01*
X36585144Y42899773D01*
X36674668Y42899773D01*
X36734350Y42959455D01*
X36734350Y44720078D01*
X36674668Y44779760D01*
X36585144Y44779760D01*
X36495621Y44869283D01*
X36495621Y45436263D01*
X36435939Y45495946D01*
X36107687Y45495946D01*
X35958482Y45376581D01*
X35749595Y45376581D01*
X35600389Y45495946D01*
X35272138Y45495946D01*
G37*
%LPD*%
G36*
X9071683Y38393772D02*
X9071683Y36275057D01*
X9131366Y36215375D01*
X11250081Y36215375D01*
X11309763Y36275057D01*
X11309763Y36364580D01*
X11399286Y36454103D01*
X11727538Y36454103D01*
X11817061Y36364580D01*
X11817061Y36036328D01*
X11876743Y35976646D01*
X12025949Y35946805D01*
X12115472Y35857282D01*
X13398638Y35857282D01*
X13458320Y35916964D01*
X13458320Y36603308D01*
X13338956Y36752514D01*
X13130068Y36931560D01*
X13100227Y37080765D01*
X13040545Y37140448D01*
X12951022Y37140448D01*
X12861499Y37229971D01*
X12831657Y37379176D01*
X12563088Y37617905D01*
X11996108Y37617905D01*
X11906584Y37528381D01*
X11846902Y37528381D01*
X11787220Y37588064D01*
X11787220Y38035680D01*
X11727538Y38095362D01*
X11399286Y38095362D01*
X11309763Y38184885D01*
X11309763Y38393772D01*
X11250081Y38453454D01*
X9131366Y38453454D01*
X9071683Y38393772D01*
G37*
%LPD*%
G36*
X21903341Y43466753D02*
X21843659Y43436912D01*
X21724295Y43287707D01*
X21724295Y41527084D01*
X21783977Y41467402D01*
X21992864Y41467402D01*
X22082387Y41377879D01*
X22082387Y41049627D01*
X21992864Y40960104D01*
X21783977Y40960104D01*
X21724295Y40900422D01*
X21724295Y40452806D01*
X21604930Y40303600D01*
X21604930Y39617256D01*
X21724295Y39468051D01*
X21724295Y39139799D01*
X21754136Y39080117D01*
X21903341Y38960753D01*
X23186507Y38960753D01*
X23246189Y39020435D01*
X23246189Y39587415D01*
X23365553Y39736620D01*
X23365553Y40303600D01*
X23246189Y40452806D01*
X23246189Y40900422D01*
X23186507Y40960104D01*
X23037301Y40989945D01*
X23007460Y41049627D01*
X22917937Y41109309D01*
X22888096Y41258514D01*
X23037301Y41437561D01*
X23186507Y41467402D01*
X23246189Y41527084D01*
X23246189Y43287707D01*
X23216348Y43347389D01*
X23067142Y43466753D01*
X22500162Y43466753D01*
X22410639Y43377230D01*
X22321116Y43377230D01*
X22231593Y43466753D01*
X21903341Y43466753D01*
G37*
%LPD*%
G36*
X81913720Y16967888D02*
X81227376Y16967888D01*
X81167694Y16908206D01*
X81167694Y16341226D01*
X81287058Y16192021D01*
X81287058Y14431398D01*
X81167694Y14282193D01*
X81167694Y13834577D01*
X81078171Y13745054D01*
X80630555Y13745054D01*
X80570873Y13715212D01*
X80451508Y13566007D01*
X80451508Y13118391D01*
X80361985Y13028868D01*
X80153098Y13028868D01*
X80093416Y12969186D01*
X80093416Y11089199D01*
X80153098Y11029517D01*
X81555628Y11029517D01*
X81615310Y11089199D01*
X81615310Y12969186D01*
X81555628Y13028868D01*
X81346740Y13028868D01*
X81287058Y13088550D01*
X81287058Y13148232D01*
X81376581Y13237755D01*
X81376581Y13685371D01*
X81466104Y13774895D01*
X81913720Y13774895D01*
X81973403Y13804736D01*
X82092767Y13953941D01*
X82092767Y16788842D01*
X82062926Y16848524D01*
X81913720Y16967888D01*
G37*
%LPD*%
G36*
X33093740Y16609796D02*
X32407395Y16609796D01*
X32347713Y16579955D01*
X32228349Y16430749D01*
X32228349Y14431398D01*
X32108985Y14282193D01*
X32108985Y13834577D01*
X32019462Y13745054D01*
X31571846Y13745054D01*
X31512163Y13715212D01*
X31392799Y13566007D01*
X31392799Y13118391D01*
X31303276Y13028868D01*
X31154071Y12999027D01*
X31034706Y12849822D01*
X31034706Y11089199D01*
X31094389Y11029517D01*
X32496919Y11029517D01*
X32556601Y11089199D01*
X32556601Y12969186D01*
X32496919Y13028868D01*
X32407395Y13028868D01*
X32317872Y13118391D01*
X32317872Y13566007D01*
X32407395Y13655530D01*
X32855011Y13655530D01*
X32914693Y13685371D01*
X33034058Y13834577D01*
X33034058Y14282193D01*
X33153422Y14431398D01*
X33153422Y14998378D01*
X33034058Y15147584D01*
X33034058Y15833928D01*
X33153422Y15983133D01*
X33153422Y16550114D01*
X33093740Y16609796D01*
G37*
%LPD*%
G36*
X13846254Y42123905D02*
X13607525Y41855336D01*
X13607525Y39736620D01*
X13637366Y39676938D01*
X13697048Y39647097D01*
X13726889Y39497892D01*
X13786572Y39438210D01*
X14711645Y39438210D01*
X14860850Y39318845D01*
X15069737Y39318845D01*
X15218943Y39438210D01*
X15666559Y39438210D01*
X15815764Y39557574D01*
X16024651Y39557574D01*
X16084333Y39617256D01*
X16084333Y40303600D01*
X15845605Y40572170D01*
X15845605Y41855336D01*
X15815764Y41915018D01*
X15756082Y41944859D01*
X15726241Y42094064D01*
X15666559Y42153746D01*
X13905936Y42153746D01*
X13846254Y42123905D01*
G37*
%LPD*%
G36*
X56817386Y52240026D02*
X56817386Y52031139D01*
X56936750Y51881933D01*
X56936750Y50121310D01*
X56996432Y50061628D01*
X59353876Y50061628D01*
X59503081Y50180993D01*
X59532922Y50240675D01*
X59532922Y52240026D01*
X59503081Y52299708D01*
X59443399Y52329549D01*
X59413558Y52478754D01*
X59353876Y52538437D01*
X58070710Y52538437D01*
X58011028Y52508596D01*
X57981187Y52448913D01*
X57831982Y52419072D01*
X57682777Y52299708D01*
X56877068Y52299708D01*
X56817386Y52240026D01*
G37*
%LPD*%
G36*
X49774895Y52240026D02*
X49774895Y50121310D01*
X49834577Y50061628D01*
X52192021Y50061628D01*
X52341226Y50180993D01*
X52371067Y50240675D01*
X52371067Y52478754D01*
X52311385Y52538437D01*
X50908855Y52538437D01*
X50640285Y52299708D01*
X49834577Y52299708D01*
X49774895Y52240026D01*
G37*
%LPD*%
G36*
X14502757Y52419072D02*
X14443075Y52359390D01*
X14443075Y50479403D01*
X14353552Y50389880D01*
X14025300Y50389880D01*
X13965618Y50330198D01*
X13965618Y48569575D01*
X13995459Y48509893D01*
X14144664Y48390529D01*
X15427830Y48390529D01*
X15487512Y48420370D01*
X15636717Y48599416D01*
X15696400Y48629257D01*
X15905287Y48629257D01*
X15964969Y48688939D01*
X15964969Y50091469D01*
X15905287Y50151151D01*
X15756082Y50180993D01*
X15606876Y50360039D01*
X15606876Y51046383D01*
X15726241Y51195589D01*
X15726241Y51523840D01*
X15696400Y51583523D01*
X15636717Y51613364D01*
X15606876Y51762569D01*
X15487512Y51911774D01*
X15487512Y52001297D01*
X15427830Y52060980D01*
X15338307Y52060980D01*
X15248784Y52150503D01*
X15248784Y52240026D01*
X15129419Y52389231D01*
X15069737Y52419072D01*
X14502757Y52419072D01*
G37*
%LPD*%
G36*
X45507622Y18280895D02*
X43985728Y18280895D01*
X43926046Y18221213D01*
X43926046Y16938047D01*
X43985728Y16878365D01*
X44194616Y16878365D01*
X44284139Y16788842D01*
X44284139Y16341226D01*
X44194616Y16251703D01*
X43388907Y16251703D01*
X43329225Y16192021D01*
X43329225Y14431398D01*
X43448589Y14282193D01*
X43508271Y14252352D01*
X44672073Y14252352D01*
X44821278Y14371716D01*
X44851119Y14431398D01*
X44851119Y15356471D01*
X44940642Y15445994D01*
X45030165Y15445994D01*
X45089848Y15505676D01*
X45089848Y16311385D01*
X45000324Y16400908D01*
X45000324Y16460590D01*
X45060006Y16520272D01*
X45149530Y16520272D01*
X45209212Y16579955D01*
X45209212Y16788842D01*
X45298735Y16878365D01*
X45507622Y16878365D01*
X45567305Y16938047D01*
X45567305Y18221213D01*
X45507622Y18280895D01*
G37*
%LPD*%
G36*
X46581901Y52419072D02*
X46552060Y52359390D01*
X46552060Y50240675D01*
X46671424Y50091469D01*
X46731106Y50061628D01*
X48969186Y50061628D01*
X49028868Y50121310D01*
X49028868Y52359390D01*
X48969186Y52419072D01*
X48760298Y52419072D01*
X48611093Y52299708D01*
X48282841Y52299708D01*
X48014272Y52538437D01*
X46731106Y52538437D01*
X46581901Y52419072D01*
G37*
%LPD*%
G36*
X17277976Y18459942D02*
X17248135Y18519624D01*
X17098930Y18638988D01*
X15935128Y18638988D01*
X15875446Y18609147D01*
X15756082Y18459942D01*
X15756082Y18251054D01*
X15666559Y18161531D01*
X15577035Y18161531D01*
X15487512Y18251054D01*
X15487512Y18459942D01*
X15427830Y18519624D01*
X13547843Y18519624D01*
X13488161Y18459942D01*
X13488161Y17057412D01*
X13547843Y16997729D01*
X15427830Y16997729D01*
X15487512Y17057412D01*
X15517353Y17206617D01*
X15636717Y17325981D01*
X15696400Y17325981D01*
X15756082Y17266299D01*
X15756082Y16938047D01*
X15815764Y16878365D01*
X17218294Y16878365D01*
X17277976Y16938047D01*
X17277976Y18459942D01*
G37*
%LPD*%
G36*
X53743756Y52419072D02*
X53713915Y52359390D01*
X53713915Y50121310D01*
X53773597Y50061628D01*
X56131041Y50061628D01*
X56190723Y50121310D01*
X56190723Y52240026D01*
X56131041Y52299708D01*
X55444697Y52299708D01*
X55176127Y52538437D01*
X53892961Y52538437D01*
X53743756Y52419072D01*
G37*
%LPD*%
G36*
X60935452Y52538437D02*
X60875770Y52478754D01*
X60875770Y52031139D01*
X60756406Y51881933D01*
X60756406Y51673046D01*
X60845929Y51583523D01*
X60845929Y51493999D01*
X60756406Y51404476D01*
X60756406Y50956860D01*
X60875770Y50807655D01*
X60875770Y50121310D01*
X60935452Y50061628D01*
X63173532Y50061628D01*
X63233214Y50121310D01*
X63263055Y50270516D01*
X63322738Y50300357D01*
X63352579Y50360039D01*
X63352579Y51404476D01*
X63233214Y51553681D01*
X63233214Y52240026D01*
X63173532Y52299708D01*
X62487188Y52299708D01*
X62397665Y52389231D01*
X62397665Y52478754D01*
X62337982Y52538437D01*
X60935452Y52538437D01*
G37*
%LPD*%
G36*
X60517678Y24666883D02*
X60517678Y23264353D01*
X60547519Y23204671D01*
X60607201Y23174830D01*
X60637042Y23025624D01*
X60696724Y22965942D01*
X61024976Y22965942D01*
X61114499Y23055465D01*
X61204022Y23055465D01*
X61293545Y22965942D01*
X61621797Y22965942D01*
X61771002Y23085307D01*
X61979890Y23085307D01*
X62039572Y23144989D01*
X62039572Y23353876D01*
X62129095Y23443399D01*
X62337982Y23443399D01*
X62427506Y23353876D01*
X62427506Y23144989D01*
X62487188Y23085307D01*
X63531625Y23085307D01*
X63680830Y22965942D01*
X64247811Y22965942D01*
X64307493Y22995783D01*
X64426857Y23144989D01*
X64426857Y24428154D01*
X64367175Y24487837D01*
X62487188Y24487837D01*
X62337982Y24368472D01*
X62129095Y24368472D01*
X62039572Y24457995D01*
X62039572Y24666883D01*
X61979890Y24726565D01*
X60577360Y24726565D01*
X60517678Y24666883D01*
G37*
%LPD*%
G36*
X56220564Y26696075D02*
X56220564Y24816088D01*
X56280247Y24756406D01*
X57682777Y24756406D01*
X57742459Y24816088D01*
X57742459Y25144340D01*
X57831982Y25233863D01*
X57921505Y25233863D01*
X57981187Y25204022D01*
X58249757Y24905611D01*
X58249757Y24338631D01*
X58309439Y24278949D01*
X59711969Y24278949D01*
X59771651Y24338631D01*
X59771651Y25383068D01*
X59652287Y25532274D01*
X59592605Y25562115D01*
X59144989Y25562115D01*
X59085307Y25591956D01*
X59055465Y25651638D01*
X58518326Y26158936D01*
X57831982Y26158936D01*
X57742459Y26248459D01*
X57742459Y26576711D01*
X57712618Y26636393D01*
X57563412Y26755757D01*
X56280247Y26755757D01*
X56220564Y26696075D01*
G37*
%LPD*%
G36*
X43150178Y52299708D02*
X43090496Y52240026D01*
X43090496Y51792410D01*
X43000973Y51702887D01*
X42672721Y51702887D01*
X42613039Y51643205D01*
X42613039Y51434317D01*
X42702562Y51344794D01*
X42702562Y51255271D01*
X42613039Y51165748D01*
X42613039Y50956860D01*
X42732404Y50807655D01*
X42941291Y50747973D01*
X42971132Y50688291D01*
X43060655Y50628608D01*
X43090496Y50568926D01*
X43090496Y50121310D01*
X43150178Y50061628D01*
X45149530Y50061628D01*
X45209212Y50121310D01*
X45239053Y50270516D01*
X45298735Y50300357D01*
X45328576Y50360039D01*
X45328576Y52359390D01*
X45298735Y52419072D01*
X45149530Y52538437D01*
X43747000Y52538437D01*
X43478430Y52299708D01*
X43150178Y52299708D01*
G37*
%LPD*%
G36*
X63979241Y52240026D02*
X63979241Y50240675D01*
X64098605Y50091469D01*
X64158287Y50061628D01*
X66515731Y50061628D01*
X66575414Y50121310D01*
X66575414Y52240026D01*
X66515731Y52299708D01*
X64038923Y52299708D01*
X63979241Y52240026D01*
G37*
%LPD*%
G36*
X13846254Y38781706D02*
X13726889Y38632501D01*
X13726889Y38423613D01*
X13607525Y38274408D01*
X13607525Y36275057D01*
X13667207Y36215375D01*
X15785923Y36215375D01*
X15845605Y36275057D01*
X15845605Y38393772D01*
X15726241Y38542978D01*
X15726241Y38751865D01*
X15666559Y38811547D01*
X13905936Y38811547D01*
X13846254Y38781706D01*
G37*
%LPD*%
G36*
X9250730Y42273111D02*
X9191048Y42213428D01*
X9191048Y42004541D01*
X9071683Y41855336D01*
X9071683Y39736620D01*
X9131366Y39676938D01*
X11250081Y39676938D01*
X11309763Y39736620D01*
X11309763Y41855336D01*
X11190399Y42004541D01*
X11190399Y42213428D01*
X11130717Y42273111D01*
X10444372Y42273111D01*
X10295167Y42153746D01*
X10086280Y42153746D01*
X9937074Y42273111D01*
X9250730Y42273111D01*
G37*
%LPD*%
G36*
X43090496Y47704184D02*
X43090496Y45585469D01*
X43150178Y45525787D01*
X45030165Y45525787D01*
X45179371Y45406422D01*
X45507622Y45406422D01*
X45567305Y45466104D01*
X45567305Y47704184D01*
X45507622Y47763866D01*
X43150178Y47763866D01*
X43090496Y47704184D01*
G37*
%LPD*%
G36*
X44821278Y22816737D02*
X44761596Y22757055D01*
X44761596Y21354525D01*
X44821278Y21294843D01*
X45268894Y21294843D01*
X45358417Y21205319D01*
X45358417Y21115796D01*
X45239053Y20966591D01*
X45239053Y20638339D01*
X45119689Y20489134D01*
X45119689Y19325332D01*
X45149530Y19265650D01*
X45298735Y19146286D01*
X46343172Y19146286D01*
X46402854Y19205968D01*
X46402854Y20489134D01*
X46283490Y20638339D01*
X46283490Y21205319D01*
X46373013Y21294843D01*
X46701265Y21294843D01*
X46760947Y21354525D01*
X46760947Y22757055D01*
X46701265Y22816737D01*
X44821278Y22816737D01*
G37*
%LPD*%
G36*
X43866364Y11238404D02*
X43806682Y11178722D01*
X43806682Y9298735D01*
X43866364Y9239053D01*
X44194616Y9239053D01*
X44284139Y9149530D01*
X44284139Y8224457D01*
X44343821Y8164775D01*
X44433344Y8164775D01*
X44493026Y8105092D01*
X44493026Y8045410D01*
X44313980Y7896205D01*
X44284139Y7836523D01*
X44284139Y6433993D01*
X44343821Y6374311D01*
X44552708Y6374311D01*
X44701914Y6493675D01*
X45149530Y6493675D01*
X45209212Y6553357D01*
X45209212Y8075251D01*
X45149530Y8134934D01*
X44940642Y8134934D01*
X44880960Y8224457D01*
X44940642Y8284139D01*
X45149530Y8284139D01*
X45209212Y8343821D01*
X45209212Y9149530D01*
X45328576Y9298735D01*
X45328576Y11178722D01*
X45268894Y11238404D01*
X43866364Y11238404D01*
G37*
%LPD*%
G36*
X52908206Y39885825D02*
X52341226Y39885825D01*
X52192021Y39766461D01*
X51863769Y39766461D01*
X51804087Y39706779D01*
X51804087Y38423613D01*
X51923451Y38274408D01*
X51923451Y37946156D01*
X51833928Y37856633D01*
X51266948Y37856633D01*
X51207266Y37796951D01*
X51207266Y35916964D01*
X51266948Y35857282D01*
X52669478Y35857282D01*
X52729160Y35916964D01*
X52729160Y36842037D01*
X52848524Y36991242D01*
X52848524Y38274408D01*
X52967888Y38423613D01*
X52967888Y39826143D01*
X52908206Y39885825D01*
G37*
%LPD*%
G36*
X81525787Y48062277D02*
X81525787Y46182290D01*
X81585469Y46122608D01*
X82987999Y46122608D01*
X83047681Y46182290D01*
X83047681Y46749270D01*
X83196886Y46928317D01*
X83286409Y46928317D01*
X83435615Y46749270D01*
X83495297Y46719429D01*
X84778463Y46719429D01*
X84838145Y46779111D01*
X84838145Y47942913D01*
X84778463Y48002595D01*
X83495297Y48002595D01*
X83435615Y47972754D01*
X83286409Y47793707D01*
X83196886Y47793707D01*
X83077522Y47913072D01*
X83047681Y48062277D01*
X82987999Y48121959D01*
X81585469Y48121959D01*
X81525787Y48062277D01*
G37*
%LPD*%
G36*
X81525787Y30277003D02*
X81525787Y28397016D01*
X81585469Y28337334D01*
X82987999Y28337334D01*
X83047681Y28397016D01*
X83047681Y28963996D01*
X83137204Y29053519D01*
X83346091Y29053519D01*
X83495297Y28934155D01*
X84778463Y28934155D01*
X84838145Y28993837D01*
X84838145Y30038274D01*
X84808304Y30097957D01*
X84659098Y30217321D01*
X83495297Y30217321D01*
X83435615Y30187480D01*
X83286409Y30008433D01*
X83137204Y29978592D01*
X83047681Y30068115D01*
X83047681Y30277003D01*
X82987999Y30336685D01*
X81585469Y30336685D01*
X81525787Y30277003D01*
G37*
%LPD*%
G36*
X81525787Y26696075D02*
X81525787Y24816088D01*
X81585469Y24756406D01*
X82749270Y24756406D01*
X82808952Y24786247D01*
X82838793Y24845929D01*
X82987999Y24875770D01*
X83047681Y24935452D01*
X83047681Y25383068D01*
X83137204Y25472592D01*
X83346091Y25472592D01*
X83495297Y25353227D01*
X84778463Y25353227D01*
X84838145Y25412910D01*
X84838145Y26576711D01*
X84778463Y26636393D01*
X83495297Y26636393D01*
X83435615Y26606552D01*
X83286409Y26427506D01*
X83196886Y26427506D01*
X83077522Y26546870D01*
X83047681Y26696075D01*
X82987999Y26755757D01*
X81585469Y26755757D01*
X81525787Y26696075D01*
G37*
%LPD*%
G36*
X50073305Y22697373D02*
X50013623Y22637691D01*
X50013623Y17534869D01*
X50073305Y17475187D01*
X51117742Y17475187D01*
X51177425Y17534869D01*
X51177425Y18818034D01*
X51117742Y18877717D01*
X51028219Y18877717D01*
X50938696Y18967240D01*
X50938696Y22279598D01*
X51058060Y22428803D01*
X51058060Y22637691D01*
X50998378Y22697373D01*
X50670127Y22697373D01*
X50610444Y22667532D01*
X50580603Y22607849D01*
X50431398Y22578008D01*
X50282193Y22697373D01*
X50073305Y22697373D01*
G37*
%LPD*%
G36*
X72483944Y21742459D02*
X71200778Y21742459D01*
X71141096Y21682777D01*
X71141096Y21473889D01*
X71021732Y21324684D01*
X71021732Y21115796D01*
X71141096Y20966591D01*
X71141096Y19802789D01*
X71200778Y19743107D01*
X71290302Y19743107D01*
X71379825Y19653584D01*
X71379825Y19564061D01*
X71290302Y19474538D01*
X71081414Y19474538D01*
X71021732Y19414856D01*
X71021732Y19205968D01*
X70902368Y19056763D01*
X70902368Y18847875D01*
X71021732Y18698670D01*
X71021732Y18012326D01*
X71081414Y17952644D01*
X71290302Y17952644D01*
X71379825Y18042167D01*
X71469348Y18042167D01*
X71558871Y17952644D01*
X71767759Y17952644D01*
X71916964Y18072008D01*
X72125851Y18072008D01*
X72185534Y18131690D01*
X72185534Y18698670D01*
X72304898Y18847875D01*
X72304898Y19653584D01*
X72394421Y19743107D01*
X72483944Y19743107D01*
X72543626Y19802789D01*
X72543626Y20011677D01*
X72573467Y20071359D01*
X72633150Y20101200D01*
X72662991Y20250405D01*
X72782355Y20399611D01*
X72782355Y21085955D01*
X72722673Y21145637D01*
X72633150Y21145637D01*
X72543626Y21235161D01*
X72543626Y21682777D01*
X72483944Y21742459D01*
G37*
%LPD*%
G36*
X81525787Y44481349D02*
X81525787Y42720727D01*
X81555628Y42661044D01*
X81704833Y42541680D01*
X82391177Y42541680D01*
X82540383Y42661044D01*
X82987999Y42661044D01*
X83047681Y42720727D01*
X83047681Y43287707D01*
X83137204Y43377230D01*
X83286409Y43347389D01*
X83316250Y43287707D01*
X83495297Y43138501D01*
X84778463Y43138501D01*
X84838145Y43198184D01*
X84838145Y44361985D01*
X84778463Y44421667D01*
X83495297Y44421667D01*
X83346091Y44302303D01*
X83137204Y44302303D01*
X83047681Y44391826D01*
X83047681Y44481349D01*
X82987999Y44541031D01*
X81585469Y44541031D01*
X81525787Y44481349D01*
G37*
%LPD*%
G36*
X18024003Y17027571D02*
X18024003Y16818683D01*
X18143367Y16669478D01*
X18143367Y16221862D01*
X18203049Y16162180D01*
X19486215Y16162180D01*
X19635420Y16281544D01*
X19963672Y16281544D01*
X20142718Y16132339D01*
X20172559Y15983133D01*
X20232241Y15923451D01*
X21992864Y15923451D01*
X22052546Y15983133D01*
X22052546Y17385663D01*
X21992864Y17445345D01*
X20112877Y17445345D01*
X20053195Y17385663D01*
X20053195Y17176776D01*
X19963672Y17087253D01*
X19754784Y17087253D01*
X19486215Y17325981D01*
X18203049Y17325981D01*
X18143367Y17266299D01*
X18113526Y17117094D01*
X18053844Y17087253D01*
X18024003Y17027571D01*
G37*
%LPD*%
G36*
X80093416Y51643205D02*
X80093416Y49763218D01*
X80153098Y49703536D01*
X81555628Y49703536D01*
X81615310Y49763218D01*
X81615310Y50330198D01*
X81704833Y50419721D01*
X81913720Y50419721D01*
X82062926Y50300357D01*
X83346091Y50300357D01*
X83405774Y50360039D01*
X83405774Y51404476D01*
X83346091Y51464158D01*
X82779111Y51464158D01*
X82629906Y51583523D01*
X82301654Y51583523D01*
X82152449Y51464158D01*
X81943561Y51464158D01*
X81883879Y51434317D01*
X81854038Y51374635D01*
X81704833Y51344794D01*
X81615310Y51434317D01*
X81615310Y51643205D01*
X81555628Y51702887D01*
X80153098Y51702887D01*
X80093416Y51643205D01*
G37*
%LPD*%
G36*
X81525787Y37438858D02*
X81525787Y35558871D01*
X81585469Y35499189D01*
X82987999Y35499189D01*
X83047681Y35558871D01*
X83047681Y36125851D01*
X83137204Y36215375D01*
X83226727Y36215375D01*
X83375933Y36096010D01*
X84778463Y36096010D01*
X84838145Y36155693D01*
X84838145Y37200130D01*
X84778463Y37259812D01*
X83375933Y37259812D01*
X83316250Y37229971D01*
X83286409Y37170289D01*
X83137204Y37140448D01*
X83047681Y37229971D01*
X83017840Y37379176D01*
X82868634Y37498540D01*
X81585469Y37498540D01*
X81525787Y37438858D01*
G37*
%LPD*%
G36*
X81525787Y33857931D02*
X81525787Y31977944D01*
X81585469Y31918261D01*
X82987999Y31918261D01*
X83047681Y31977944D01*
X83047681Y32544924D01*
X83137204Y32634447D01*
X83346091Y32634447D01*
X83495297Y32515083D01*
X84778463Y32515083D01*
X84838145Y32574765D01*
X84838145Y33619202D01*
X84778463Y33678884D01*
X83375933Y33678884D01*
X83316250Y33649043D01*
X83286409Y33589361D01*
X83137204Y33559520D01*
X83047681Y33649043D01*
X83047681Y33857931D01*
X82987999Y33917613D01*
X81585469Y33917613D01*
X81525787Y33857931D01*
G37*
%LPD*%
G36*
X79974051Y55104768D02*
X79974051Y53224781D01*
X80033733Y53165099D01*
X81436263Y53165099D01*
X81495946Y53224781D01*
X81495946Y53911126D01*
X81585469Y54000649D01*
X81794356Y54000649D01*
X81943561Y53881284D01*
X83226727Y53881284D01*
X83286409Y53940967D01*
X83286409Y54985404D01*
X83226727Y55045086D01*
X81824197Y55045086D01*
X81764515Y55015245D01*
X81734674Y54955563D01*
X81585469Y54925722D01*
X81316899Y55164450D01*
X80033733Y55164450D01*
X79974051Y55104768D01*
G37*
%LPD*%
G36*
X51625041Y20787545D02*
X51565358Y20727862D01*
X51565358Y19564061D01*
X51595199Y19504379D01*
X51654882Y19474538D01*
X51684723Y19325332D01*
X51744405Y19265650D01*
X52072657Y19265650D01*
X52162180Y19176127D01*
X52162180Y18967240D01*
X52042815Y18818034D01*
X52042815Y17534869D01*
X52102498Y17475187D01*
X53146935Y17475187D01*
X53206617Y17534869D01*
X53206617Y18818034D01*
X53087253Y18967240D01*
X53087253Y19176127D01*
X53176776Y19265650D01*
X53505028Y19265650D01*
X53564710Y19325332D01*
X53564710Y20727862D01*
X53505028Y20787545D01*
X51625041Y20787545D01*
G37*
%LPD*%
G36*
X81525787Y23115148D02*
X81525787Y21354525D01*
X81585469Y21294843D01*
X82987999Y21294843D01*
X83047681Y21354525D01*
X83047681Y21921505D01*
X83137204Y22011028D01*
X83226727Y22011028D01*
X83375933Y21891664D01*
X83525138Y21861823D01*
X83554979Y21802141D01*
X83614661Y21772300D01*
X84181641Y21772300D01*
X84330847Y21891664D01*
X84420370Y21891664D01*
X84569575Y21772300D01*
X84778463Y21772300D01*
X84838145Y21831982D01*
X84838145Y22995783D01*
X84778463Y23055465D01*
X83495297Y23055465D01*
X83346091Y22936101D01*
X83137204Y22936101D01*
X83047681Y23025624D01*
X83047681Y23115148D01*
X82987999Y23174830D01*
X81585469Y23174830D01*
X81525787Y23115148D01*
G37*
%LPD*%
G36*
X81525787Y40900422D02*
X81525787Y39139799D01*
X81585469Y39080117D01*
X82987999Y39080117D01*
X83047681Y39139799D01*
X83047681Y39706779D01*
X83137204Y39796302D01*
X83226727Y39796302D01*
X83375933Y39676938D01*
X84778463Y39676938D01*
X84838145Y39736620D01*
X84838145Y40781057D01*
X84778463Y40840740D01*
X83495297Y40840740D01*
X83346091Y40721375D01*
X83137204Y40721375D01*
X83047681Y40810898D01*
X83047681Y40900422D01*
X82987999Y40960104D01*
X82182290Y40960104D01*
X82033085Y41079468D01*
X81704833Y41079468D01*
X81645151Y41049627D01*
X81525787Y40900422D01*
G37*
%LPD*%
G36*
X39688615Y45376581D02*
X39628933Y45316899D01*
X39628933Y42959455D01*
X39688615Y42899773D01*
X41329873Y42899773D01*
X41479079Y43019137D01*
X41687966Y43019137D01*
X41747648Y43078819D01*
X41747648Y44600714D01*
X41687966Y44660396D01*
X41538761Y44690237D01*
X41508920Y44749919D01*
X41449238Y44779760D01*
X41359715Y44779760D01*
X41270191Y44869283D01*
X41270191Y45316899D01*
X41210509Y45376581D01*
X40643529Y45376581D01*
X40494324Y45257217D01*
X40285436Y45257217D01*
X40136231Y45376581D01*
X39688615Y45376581D01*
G37*
%LPD*%
G36*
X49446643Y20310088D02*
X48760298Y20310088D01*
X48700616Y20250405D01*
X48700616Y19683425D01*
X48581252Y19534220D01*
X48581252Y19325332D01*
X48670775Y19235809D01*
X48670775Y19146286D01*
X48581252Y19056763D01*
X48581252Y18847875D01*
X48700616Y18698670D01*
X48700616Y14670127D01*
X48760298Y14610444D01*
X48969186Y14610444D01*
X49118391Y14729809D01*
X49446643Y14729809D01*
X49506325Y14789491D01*
X49506325Y20250405D01*
X49446643Y20310088D01*
G37*
%LPD*%
G36*
X20829063Y22100551D02*
X20769380Y22070710D01*
X20650016Y21921505D01*
X20650016Y20757704D01*
X20739539Y20668180D01*
X20739539Y20578657D01*
X20560493Y20429452D01*
X20232241Y20429452D01*
X20172559Y20369770D01*
X20172559Y18967240D01*
X20232241Y18907558D01*
X22112228Y18907558D01*
X22171910Y18967240D01*
X22171910Y20131041D01*
X22142069Y20190723D01*
X22082387Y20220564D01*
X22052546Y20369770D01*
X21992864Y20429452D01*
X21664612Y20429452D01*
X21485566Y20578657D01*
X21485566Y20668180D01*
X21575089Y20757704D01*
X21575089Y22040869D01*
X21515407Y22100551D01*
X20829063Y22100551D01*
G37*
%LPD*%
G36*
X38375608Y31530328D02*
X37390853Y30575414D01*
X37361012Y30515731D01*
X37361012Y29948751D01*
X37420694Y29889069D01*
X37510217Y29889069D01*
X37599741Y29799546D01*
X37599741Y29710023D01*
X37659423Y29650341D01*
X37748946Y29650341D01*
X37838469Y29560817D01*
X37838469Y29471294D01*
X37898151Y29411612D01*
X38047356Y29381771D01*
X38077198Y29322089D01*
X38166721Y29262407D01*
X38196562Y29113201D01*
X38256244Y29053519D01*
X38345767Y29053519D01*
X38494972Y28934155D01*
X38942588Y28934155D01*
X39927343Y29889069D01*
X39957185Y29948751D01*
X39957185Y30396367D01*
X39718456Y30664937D01*
X39569251Y30694778D01*
X39479728Y30784301D01*
X39449886Y30933506D01*
X39420045Y30933506D01*
X38882906Y31500487D01*
X38823224Y31530328D01*
X38375608Y31530328D01*
G37*
%LPD*%
G36*
X36227052Y29381771D02*
X36167369Y29351930D01*
X35898800Y29053519D01*
X35689912Y28993837D01*
X35570548Y28844632D01*
X35570548Y28635744D01*
X35481025Y28546221D01*
X35391502Y28546221D01*
X35331820Y28486539D01*
X35331820Y28397016D01*
X35212455Y28247811D01*
X35212455Y27800195D01*
X35272138Y27740512D01*
X35421343Y27710671D01*
X35451184Y27650989D01*
X35540707Y27591307D01*
X35570548Y27442102D01*
X35630230Y27382420D01*
X35779436Y27352579D01*
X35809277Y27292897D01*
X36018164Y27113850D01*
X36048005Y26964645D01*
X36107687Y26904963D01*
X36197211Y26904963D01*
X36346416Y26785598D01*
X36794032Y26785598D01*
X37778787Y27740512D01*
X37808628Y27800195D01*
X37808628Y28247811D01*
X36734350Y29351930D01*
X36674668Y29381771D01*
X36227052Y29381771D01*
G37*
%LPD*%
G36*
X16352903Y50091469D02*
X16352903Y48688939D01*
X16412585Y48629257D01*
X16740837Y48629257D01*
X17009406Y48390529D01*
X18531301Y48390529D01*
X18590983Y48450211D01*
X18590983Y50330198D01*
X18531301Y50389880D01*
X17009406Y50389880D01*
X16740837Y50151151D01*
X16412585Y50151151D01*
X16352903Y50091469D01*
G37*
%LPD*%
G36*
X61293545Y14222511D02*
X61233863Y14162828D01*
X61233863Y13118391D01*
X61144340Y13028868D01*
X61054817Y13028868D01*
X60995135Y12969186D01*
X60995135Y11089199D01*
X61054817Y11029517D01*
X62457347Y11029517D01*
X62517029Y11089199D01*
X62517029Y12849822D01*
X62278300Y13118391D01*
X62278300Y13924100D01*
X62218618Y13983782D01*
X62069413Y14013623D01*
X62039572Y14073305D01*
X61830684Y14132987D01*
X61800843Y14192669D01*
X61741161Y14222511D01*
X61293545Y14222511D01*
G37*
%LPD*%
G36*
X43866364Y55522543D02*
X43806682Y55462861D01*
X43806682Y55253973D01*
X43896205Y55164450D01*
X43896205Y55104768D01*
X43836523Y55045086D01*
X43747000Y55045086D01*
X43687318Y54985404D01*
X43687318Y54537788D01*
X43567953Y54388583D01*
X43567953Y53582874D01*
X43687318Y53433669D01*
X43687318Y52986053D01*
X43747000Y52926370D01*
X43836523Y52926370D01*
X43926046Y52836847D01*
X43926046Y52747324D01*
X43985728Y52687642D01*
X45149530Y52687642D01*
X45209212Y52747324D01*
X45209212Y54985404D01*
X45149530Y55045086D01*
X45060006Y55045086D01*
X44970483Y55134609D01*
X44940642Y55283814D01*
X44672073Y55522543D01*
X43866364Y55522543D01*
G37*
%LPD*%
G36*
X61532274Y42153746D02*
X61472592Y42123905D01*
X61353227Y41974700D01*
X61353227Y40214077D01*
X61472592Y40064872D01*
X61472592Y39378527D01*
X61502433Y39318845D01*
X61651638Y39199481D01*
X62218618Y39199481D01*
X62278300Y39229322D01*
X62308141Y39289004D01*
X62517029Y39348686D01*
X62755757Y39617256D01*
X62755757Y40064872D01*
X62875122Y40214077D01*
X62875122Y42094064D01*
X62815440Y42153746D01*
X61532274Y42153746D01*
G37*
%LPD*%
G36*
X6027895Y38334090D02*
X5968213Y38274408D01*
X5968213Y37229971D01*
X5848849Y37080765D01*
X5848849Y33768407D01*
X5908531Y33708725D01*
X6117418Y33708725D01*
X6177100Y33738566D01*
X6206941Y33798248D01*
X6356147Y33828090D01*
X6505352Y33708725D01*
X6714239Y33708725D01*
X6773922Y33768407D01*
X6773922Y38274408D01*
X6714239Y38334090D01*
X6027895Y38334090D01*
G37*
%LPD*%
G36*
X58548167Y42153746D02*
X58488485Y42094064D01*
X58488485Y41168991D01*
X58369121Y41019786D01*
X58369121Y40810898D01*
X58458644Y40721375D01*
X58458644Y40631852D01*
X58369121Y40542329D01*
X58369121Y40333441D01*
X58398962Y40273759D01*
X58458644Y40243918D01*
X58488485Y40094713D01*
X58607849Y39945508D01*
X58607849Y39617256D01*
X58637691Y39557574D01*
X59144989Y39080117D01*
X59711969Y39080117D01*
X59771651Y39139799D01*
X59771651Y40064872D01*
X59891015Y40214077D01*
X59891015Y42094064D01*
X59831333Y42153746D01*
X58548167Y42153746D01*
G37*
%LPD*%
G36*
X12354200Y14103146D02*
X12294518Y14043464D01*
X12294518Y13118391D01*
X12204995Y13028868D01*
X11996108Y13028868D01*
X11936426Y12969186D01*
X11936426Y11089199D01*
X11996108Y11029517D01*
X13398638Y11029517D01*
X13458320Y11089199D01*
X13458320Y12969186D01*
X13398638Y13028868D01*
X13309114Y13028868D01*
X13219591Y13118391D01*
X13219591Y13924100D01*
X13159909Y13983782D01*
X13010704Y14013623D01*
X12980863Y14073305D01*
X12921181Y14103146D01*
X12354200Y14103146D01*
G37*
%LPD*%
G36*
X83375933Y14103146D02*
X83316250Y14043464D01*
X83316250Y13118391D01*
X83226727Y13028868D01*
X83077522Y12999027D01*
X82958158Y12849822D01*
X82958158Y11089199D01*
X83017840Y11029517D01*
X84420370Y11029517D01*
X84480052Y11089199D01*
X84480052Y12969186D01*
X84420370Y13028868D01*
X84330847Y13028868D01*
X84241323Y13118391D01*
X84241323Y13924100D01*
X84181641Y13983782D01*
X84032436Y14013623D01*
X84002595Y14073305D01*
X83942913Y14103146D01*
X83375933Y14103146D01*
G37*
%LPD*%
G36*
X43030814Y22578008D02*
X42971132Y22518326D01*
X42971132Y19922154D01*
X43090496Y19772948D01*
X43090496Y19325332D01*
X43120337Y19265650D01*
X43269543Y19146286D01*
X44313980Y19146286D01*
X44373662Y19205968D01*
X44373662Y20489134D01*
X44254298Y20638339D01*
X44194616Y20668180D01*
X43985728Y20668180D01*
X43896205Y20757704D01*
X43896205Y20966591D01*
X44015569Y21115796D01*
X44015569Y21324684D01*
X43896205Y21473889D01*
X43896205Y22040869D01*
X44015569Y22190075D01*
X44015569Y22637691D01*
X43955887Y22697373D01*
X43627635Y22697373D01*
X43478430Y22578008D01*
X43030814Y22578008D01*
G37*
%LPD*%
G36*
X74363931Y31470645D02*
X74363931Y31261758D01*
X74483295Y31112553D01*
X74483295Y31023030D01*
X74363931Y30873824D01*
X74363931Y30664937D01*
X74423613Y30605255D01*
X78571521Y30605255D01*
X78631203Y30664937D01*
X78631203Y30873824D01*
X78511839Y31023030D01*
X78511839Y31112553D01*
X78631203Y31261758D01*
X78631203Y31470645D01*
X78571521Y31530328D01*
X74423613Y31530328D01*
X74363931Y31470645D01*
G37*
%LPD*%
G36*
X34317223Y14222511D02*
X34257541Y14162828D01*
X34257541Y13118391D01*
X34168018Y13028868D01*
X34078495Y13028868D01*
X34018813Y12969186D01*
X34018813Y11089199D01*
X34078495Y11029517D01*
X35361661Y11029517D01*
X35421343Y11089199D01*
X35421343Y12969186D01*
X35361661Y13028868D01*
X35272138Y13028868D01*
X35182614Y13118391D01*
X35182614Y13924100D01*
X35152773Y13983782D01*
X35003568Y14103146D01*
X34794681Y14103146D01*
X34645475Y14222511D01*
X34317223Y14222511D01*
G37*
%LPD*%
G36*
X64337334Y2107039D02*
X64337334Y1540058D01*
X64397016Y1480376D01*
X69022381Y1480376D01*
X69082063Y1540058D01*
X69082063Y2107039D01*
X69052222Y2166721D01*
X68903017Y2286085D01*
X64516380Y2286085D01*
X64456698Y2256244D01*
X64337334Y2107039D01*
G37*
%LPD*%
G36*
X6027895Y47286409D02*
X5968213Y47226727D01*
X5968213Y47017840D01*
X5848849Y46868634D01*
X5848849Y46659747D01*
X5938372Y46570224D01*
X5938372Y46480701D01*
X5848849Y46391177D01*
X5848849Y46182290D01*
X5968213Y46033085D01*
X5968213Y43675641D01*
X5848849Y43526435D01*
X5848849Y43078819D01*
X5878690Y43019137D01*
X5938372Y42989296D01*
X5968213Y42840091D01*
X6027895Y42780409D01*
X6714239Y42780409D01*
X6773922Y42840091D01*
X6773922Y47226727D01*
X6714239Y47286409D01*
X6027895Y47286409D01*
G37*
%LPD*%
G36*
X9608823Y13745054D02*
X9549140Y13715212D01*
X9429776Y13566007D01*
X9429776Y13118391D01*
X9340253Y13028868D01*
X9131366Y13028868D01*
X9071683Y12969186D01*
X9071683Y11089199D01*
X9131366Y11029517D01*
X10533896Y11029517D01*
X10593578Y11089199D01*
X10593578Y12969186D01*
X10533896Y13028868D01*
X10325008Y13028868D01*
X10265326Y13088550D01*
X10265326Y13148232D01*
X10354849Y13237755D01*
X10354849Y13685371D01*
X10295167Y13745054D01*
X9608823Y13745054D01*
G37*
%LPD*%
G36*
X58786896Y13864418D02*
X58727214Y13834577D01*
X58697373Y13774895D01*
X58548167Y13745054D01*
X58488485Y13685371D01*
X58488485Y13595848D01*
X58369121Y13446643D01*
X58369121Y13118391D01*
X58279598Y13028868D01*
X58190075Y13028868D01*
X58130392Y12969186D01*
X58130392Y11089199D01*
X58190075Y11029517D01*
X59473240Y11029517D01*
X59532922Y11089199D01*
X59532922Y12969186D01*
X59473240Y13028868D01*
X59383717Y13028868D01*
X59324035Y13088550D01*
X59324035Y13148232D01*
X59413558Y13237755D01*
X59413558Y13804736D01*
X59353876Y13864418D01*
X58786896Y13864418D01*
G37*
%LPD*%
G36*
X75736620Y21981187D02*
X75676938Y21921505D01*
X75676938Y21115796D01*
X76035031Y20727862D01*
X76035031Y19802789D01*
X76094713Y19743107D01*
X77497243Y19743107D01*
X77556925Y19802789D01*
X77556925Y21563412D01*
X77527084Y21623094D01*
X77377879Y21742459D01*
X76691534Y21742459D01*
X76602011Y21831982D01*
X76602011Y21921505D01*
X76542329Y21981187D01*
X75736620Y21981187D01*
G37*
%LPD*%
G36*
X50908855Y55045086D02*
X50849173Y54985404D01*
X50849173Y52986053D01*
X50879014Y52926370D01*
X51147584Y52687642D01*
X52311385Y52687642D01*
X52371067Y52747324D01*
X52371067Y54866040D01*
X52341226Y54925722D01*
X52192021Y55045086D01*
X50908855Y55045086D01*
G37*
%LPD*%
G36*
X60935452Y55045086D02*
X60875770Y54985404D01*
X60875770Y52747324D01*
X60935452Y52687642D01*
X62099254Y52687642D01*
X62158936Y52747324D01*
X62188777Y52896529D01*
X62248459Y52926370D01*
X62397665Y53105417D01*
X62397665Y54985404D01*
X62337982Y55045086D01*
X60935452Y55045086D01*
G37*
%LPD*%
G36*
X15636717Y2226403D02*
X15636717Y1659423D01*
X15666559Y1599741D01*
X15815764Y1480376D01*
X19963672Y1480376D01*
X20023354Y1540058D01*
X20023354Y2107039D01*
X19993513Y2166721D01*
X19844307Y2286085D01*
X15696400Y2286085D01*
X15636717Y2226403D01*
G37*
%LPD*%
G36*
X58070710Y55045086D02*
X58011028Y54985404D01*
X57981187Y54836199D01*
X57921505Y54806357D01*
X57891664Y54746675D01*
X57891664Y53224781D01*
X57921505Y53165099D01*
X57981187Y53135258D01*
X58011028Y52986053D01*
X58130392Y52836847D01*
X58130392Y52747324D01*
X58190075Y52687642D01*
X59353876Y52687642D01*
X59413558Y52747324D01*
X59413558Y54985404D01*
X59353876Y55045086D01*
X58070710Y55045086D01*
G37*
%LPD*%
G36*
X46731106Y55045086D02*
X46671424Y54985404D01*
X46641583Y54836199D01*
X46581901Y54806357D01*
X46552060Y54746675D01*
X46552060Y53224781D01*
X46671424Y53075576D01*
X46671424Y52747324D01*
X46731106Y52687642D01*
X47894908Y52687642D01*
X47954590Y52747324D01*
X47984431Y52896529D01*
X48044113Y52926370D01*
X48073954Y52986053D01*
X48073954Y54985404D01*
X48014272Y55045086D01*
X46731106Y55045086D01*
G37*
%LPD*%
G36*
X50789491Y16609796D02*
X50729809Y16550114D01*
X50729809Y15266948D01*
X50849173Y15117742D01*
X50998378Y15087901D01*
X51087901Y14998378D01*
X51087901Y14789491D01*
X51207266Y14640285D01*
X51207266Y14312034D01*
X51266948Y14252352D01*
X51953292Y14252352D01*
X52012974Y14282193D01*
X52132339Y14431398D01*
X52132339Y14998378D01*
X52221862Y15087901D01*
X52371067Y15117742D01*
X52490431Y15266948D01*
X52490431Y16550114D01*
X52430749Y16609796D01*
X50789491Y16609796D01*
G37*
%LPD*%
G36*
X62069413Y21324684D02*
X62069413Y20399611D01*
X62129095Y20339929D01*
X62337982Y20339929D01*
X62427506Y20250405D01*
X62427506Y20160882D01*
X62487188Y20101200D01*
X64367175Y20101200D01*
X64426857Y20160882D01*
X64426857Y21563412D01*
X64367175Y21623094D01*
X62487188Y21623094D01*
X62427506Y21563412D01*
X62427506Y21473889D01*
X62337982Y21384366D01*
X62129095Y21384366D01*
X62069413Y21324684D01*
G37*
%LPD*%
G36*
X42195264Y44779760D02*
X42135582Y44720078D01*
X42105741Y44570873D01*
X42046059Y44541031D01*
X42016218Y44481349D01*
X42016218Y43078819D01*
X42046059Y43019137D01*
X42195264Y42899773D01*
X43717159Y42899773D01*
X43776841Y42959455D01*
X43776841Y44720078D01*
X43747000Y44779760D01*
X43597794Y44899124D01*
X43388907Y44899124D01*
X43239702Y44779760D01*
X42792086Y44779760D01*
X42642880Y44899124D01*
X42433993Y44899124D01*
X42374311Y44869283D01*
X42344470Y44809601D01*
X42195264Y44779760D01*
G37*
%LPD*%
G36*
X51684723Y23711969D02*
X51684723Y22190075D01*
X51744405Y22130392D01*
X53505028Y22130392D01*
X53654233Y22249757D01*
X53684074Y22309439D01*
X53684074Y23592605D01*
X53564710Y23741810D01*
X53505028Y23771651D01*
X53296140Y23771651D01*
X53206617Y23682128D01*
X53117094Y23682128D01*
X52967888Y23861174D01*
X52908206Y23891015D01*
X52460590Y23891015D01*
X52400908Y23861174D01*
X52371067Y23801492D01*
X52221862Y23771651D01*
X52132339Y23682128D01*
X52042815Y23682128D01*
X51953292Y23771651D01*
X51744405Y23771651D01*
X51684723Y23711969D01*
G37*
%LPD*%
G36*
X53892961Y55045086D02*
X53833279Y54985404D01*
X53833279Y52747324D01*
X53892961Y52687642D01*
X55056763Y52687642D01*
X55116445Y52747324D01*
X55146286Y52896529D01*
X55205968Y52926370D01*
X55235809Y52986053D01*
X55235809Y54985404D01*
X55176127Y55045086D01*
X53892961Y55045086D01*
G37*
%LPD*%
G36*
X71439507Y27113850D02*
X71379825Y27054168D01*
X71349984Y26904963D01*
X71290302Y26875122D01*
X71260461Y26815440D01*
X71260461Y25174181D01*
X71320143Y25114499D01*
X72722673Y25114499D01*
X72782355Y25144340D01*
X72901719Y25293545D01*
X72901719Y25502433D01*
X72812196Y25591956D01*
X72812196Y25681479D01*
X72991242Y25830684D01*
X73021083Y25890367D01*
X73021083Y26337982D01*
X72901719Y26487188D01*
X72901719Y26696075D01*
X72782355Y26845281D01*
X72782355Y27054168D01*
X72722673Y27113850D01*
X71439507Y27113850D01*
G37*
%LPD*%
G36*
X73229971Y21742459D02*
X73170289Y21682777D01*
X73170289Y21235161D01*
X73080765Y21145637D01*
X72991242Y21145637D01*
X72931560Y21085955D01*
X72931560Y20399611D01*
X73021083Y20310088D01*
X73050924Y20160882D01*
X73170289Y20011677D01*
X73170289Y19802789D01*
X73229971Y19743107D01*
X74632501Y19743107D01*
X74692183Y19802789D01*
X74692183Y21085955D01*
X74602660Y21175478D01*
X74602660Y21265002D01*
X74692183Y21354525D01*
X74692183Y21563412D01*
X74662342Y21623094D01*
X74513137Y21742459D01*
X73229971Y21742459D01*
G37*
%LPD*%
G36*
X16770678Y40960104D02*
X16710996Y40900422D01*
X16710996Y40452806D01*
X16621473Y40363283D01*
X16531949Y40363283D01*
X16472267Y40303600D01*
X16472267Y39617256D01*
X16531949Y39557574D01*
X16621473Y39557574D01*
X16710996Y39468051D01*
X16710996Y39020435D01*
X16770678Y38960753D01*
X18053844Y38960753D01*
X18113526Y38990594D01*
X18232890Y39139799D01*
X18232890Y40900422D01*
X18173208Y40960104D01*
X16770678Y40960104D01*
G37*
%LPD*%
G36*
X19635420Y40960104D02*
X19575738Y40900422D01*
X19575738Y39020435D01*
X19635420Y38960753D01*
X21037950Y38960753D01*
X21097632Y39020435D01*
X21097632Y39468051D01*
X21336361Y39736620D01*
X21336361Y40303600D01*
X21276679Y40363283D01*
X21187155Y40363283D01*
X21097632Y40452806D01*
X21097632Y40900422D01*
X21037950Y40960104D01*
X19635420Y40960104D01*
G37*
%LPD*%
G36*
X38375608Y42034382D02*
X38315926Y41974700D01*
X38315926Y40094713D01*
X38375608Y40035031D01*
X38584496Y40035031D01*
X38674019Y39945508D01*
X38674019Y39855984D01*
X38733701Y39796302D01*
X39300681Y39796302D01*
X39360363Y39826143D01*
X39509569Y40005190D01*
X39569251Y40035031D01*
X39778138Y40035031D01*
X39837820Y40094713D01*
X39837820Y41974700D01*
X39778138Y42034382D01*
X38375608Y42034382D01*
G37*
%LPD*%
G36*
X48372365Y11357768D02*
X48044113Y11357768D01*
X47894908Y11238404D01*
X46850470Y11238404D01*
X46790788Y11178722D01*
X46790788Y9298735D01*
X46850470Y9239053D01*
X48253000Y9239053D01*
X48312682Y9298735D01*
X48312682Y10343172D01*
X48432047Y10492378D01*
X48432047Y11298086D01*
X48372365Y11357768D01*
G37*
%LPD*%
G36*
X53296140Y26755757D02*
X53236458Y26696075D01*
X53236458Y26129095D01*
X53117094Y25979890D01*
X53117094Y25532274D01*
X53236458Y25383068D01*
X53236458Y24816088D01*
X53296140Y24756406D01*
X54698670Y24756406D01*
X54758352Y24816088D01*
X54758352Y26696075D01*
X54698670Y26755757D01*
X53296140Y26755757D01*
G37*
%LPD*%
G36*
X68455401Y27113850D02*
X68395718Y27054168D01*
X68395718Y26487188D01*
X68276354Y26337982D01*
X68276354Y25890367D01*
X68395718Y25741161D01*
X68395718Y25174181D01*
X68455401Y25114499D01*
X69857931Y25114499D01*
X69917613Y25174181D01*
X69917613Y27054168D01*
X69857931Y27113850D01*
X68455401Y27113850D01*
G37*
%LPD*%
G36*
X78601362Y30336685D02*
X78541680Y30277003D01*
X78541680Y29710023D01*
X78422316Y29560817D01*
X78422316Y29113201D01*
X78541680Y28963996D01*
X78541680Y28397016D01*
X78601362Y28337334D01*
X80003892Y28337334D01*
X80063574Y28397016D01*
X80063574Y30277003D01*
X80003892Y30336685D01*
X78601362Y30336685D01*
G37*
%LPD*%
G36*
X78601362Y33917613D02*
X78541680Y33857931D01*
X78541680Y33290950D01*
X78422316Y33141745D01*
X78422316Y32694129D01*
X78541680Y32544924D01*
X78541680Y31977944D01*
X78601362Y31918261D01*
X80003892Y31918261D01*
X80063574Y31977944D01*
X80063574Y33857931D01*
X80003892Y33917613D01*
X78601362Y33917613D01*
G37*
%LPD*%
G36*
X78661044Y37468699D02*
X78541680Y37319494D01*
X78541680Y36871878D01*
X78422316Y36722673D01*
X78422316Y36275057D01*
X78541680Y36125851D01*
X78541680Y35558871D01*
X78601362Y35499189D01*
X80003892Y35499189D01*
X80063574Y35558871D01*
X80063574Y37438858D01*
X80003892Y37498540D01*
X78720727Y37498540D01*
X78661044Y37468699D01*
G37*
%LPD*%
G36*
X78601362Y48121959D02*
X78541680Y48062277D01*
X78541680Y47495297D01*
X78422316Y47346091D01*
X78422316Y47017840D01*
X78541680Y46868634D01*
X78541680Y46301654D01*
X78571521Y46241972D01*
X78720727Y46122608D01*
X80003892Y46122608D01*
X80063574Y46182290D01*
X80063574Y48062277D01*
X80003892Y48121959D01*
X78601362Y48121959D01*
G37*
%LPD*%
G36*
X77109309Y55134609D02*
X76989945Y54985404D01*
X76989945Y54418424D01*
X76870581Y54269218D01*
X76870581Y53940967D01*
X76989945Y53791761D01*
X76989945Y53224781D01*
X77049627Y53165099D01*
X78452157Y53165099D01*
X78511839Y53224781D01*
X78511839Y55104768D01*
X78452157Y55164450D01*
X77168991Y55164450D01*
X77109309Y55134609D01*
G37*
%LPD*%
G36*
X78601362Y26755757D02*
X78541680Y26696075D01*
X78541680Y26129095D01*
X78422316Y25979890D01*
X78422316Y25651638D01*
X78541680Y25502433D01*
X78541680Y24935452D01*
X78571521Y24875770D01*
X78720727Y24756406D01*
X79884528Y24756406D01*
X79944210Y24786247D01*
X80063574Y24935452D01*
X80063574Y26696075D01*
X80003892Y26755757D01*
X78601362Y26755757D01*
G37*
%LPD*%
G36*
X78601362Y40960104D02*
X78541680Y40900422D01*
X78541680Y40333441D01*
X78422316Y40184236D01*
X78422316Y39855984D01*
X78541680Y39706779D01*
X78541680Y39139799D01*
X78601362Y39080117D01*
X80003892Y39080117D01*
X80063574Y39139799D01*
X80063574Y40900422D01*
X80033733Y40960104D01*
X79884528Y41079468D01*
X78840091Y41079468D01*
X78780409Y41049627D01*
X78750568Y40989945D01*
X78601362Y40960104D01*
G37*
%LPD*%
G36*
X44761596Y25621797D02*
X44761596Y25293545D01*
X44642232Y25144340D01*
X44642232Y24696724D01*
X44761596Y24547519D01*
X44761596Y24338631D01*
X44880960Y24189426D01*
X44940642Y24159585D01*
X45507622Y24159585D01*
X45656828Y24278949D01*
X46223808Y24278949D01*
X46373013Y24159585D01*
X46581901Y24159585D01*
X46731106Y24278949D01*
X46760947Y24338631D01*
X46760947Y25621797D01*
X46701265Y25681479D01*
X45418099Y25681479D01*
X45268894Y25800843D01*
X45060006Y25800843D01*
X45000324Y25771002D01*
X44970483Y25711320D01*
X44821278Y25681479D01*
X44761596Y25621797D01*
G37*
%LPD*%
G36*
X54251054Y37737269D02*
X54191372Y37677587D01*
X54191372Y35797600D01*
X54251054Y35737918D01*
X55534220Y35737918D01*
X55593902Y35797600D01*
X55593902Y36125851D01*
X55623743Y36185534D01*
X55683425Y36215375D01*
X55713266Y36364580D01*
X55832631Y36513785D01*
X55832631Y37080765D01*
X55802789Y37140448D01*
X55743107Y37170289D01*
X55713266Y37319494D01*
X55593902Y37468699D01*
X55593902Y37677587D01*
X55534220Y37737269D01*
X54251054Y37737269D01*
G37*
%LPD*%
G36*
X74841388Y17863120D02*
X74841388Y17176776D01*
X74901070Y17117094D01*
X75468051Y17117094D01*
X75617256Y17236458D01*
X77616607Y17236458D01*
X77765813Y17117094D01*
X77974700Y17117094D01*
X78034382Y17146935D01*
X78064223Y17206617D01*
X78273111Y17266299D01*
X78392475Y17415504D01*
X78392475Y17982485D01*
X78332793Y18042167D01*
X75020435Y18042167D01*
X74960753Y18012326D01*
X74841388Y17863120D01*
G37*
%LPD*%
G36*
X78601362Y23174830D02*
X78541680Y23115148D01*
X78541680Y22548167D01*
X78422316Y22398962D01*
X78422316Y22070710D01*
X78541680Y21921505D01*
X78541680Y21354525D01*
X78601362Y21294843D01*
X80003892Y21294843D01*
X80063574Y21354525D01*
X80063574Y23115148D01*
X80003892Y23174830D01*
X78601362Y23174830D01*
G37*
%LPD*%
G36*
X78601362Y44541031D02*
X78541680Y44481349D01*
X78541680Y43914369D01*
X78422316Y43765164D01*
X78422316Y43436912D01*
X78541680Y43287707D01*
X78541680Y42720727D01*
X78601362Y42661044D01*
X80003892Y42661044D01*
X80063574Y42720727D01*
X80063574Y44481349D01*
X80003892Y44541031D01*
X78601362Y44541031D01*
G37*
%LPD*%
G36*
X77288355Y51702887D02*
X77228673Y51643205D01*
X77228673Y51195589D01*
X77109309Y51046383D01*
X77109309Y50240675D01*
X77228673Y50091469D01*
X77228673Y49763218D01*
X77288355Y49703536D01*
X78571521Y49703536D01*
X78631203Y49763218D01*
X78631203Y51643205D01*
X78571521Y51702887D01*
X77288355Y51702887D01*
G37*
%LPD*%
G36*
X84330847Y50747973D02*
X84271164Y50688291D01*
X84271164Y49047032D01*
X84330847Y48987350D01*
X84659098Y48987350D01*
X84748621Y49076873D01*
X84838145Y49076873D01*
X84957509Y48957509D01*
X84987350Y48808304D01*
X85047032Y48748621D01*
X85255920Y48748621D01*
X85345443Y48838145D01*
X85434966Y48838145D01*
X85524489Y48748621D01*
X85852741Y48748621D01*
X85912423Y48808304D01*
X85912423Y49733377D01*
X85673694Y50001946D01*
X85673694Y50210834D01*
X85793059Y50360039D01*
X85793059Y50568926D01*
X85763218Y50628608D01*
X85614012Y50747973D01*
X84330847Y50747973D01*
G37*
%LPD*%
G36*
X84211482Y54328900D02*
X84151800Y54269218D01*
X84151800Y52627960D01*
X84211482Y52568278D01*
X84778463Y52568278D01*
X84867986Y52478754D01*
X84867986Y52389231D01*
X84927668Y52329549D01*
X85733377Y52329549D01*
X85793059Y52389231D01*
X85793059Y53314304D01*
X85733377Y53373986D01*
X85643853Y53373986D01*
X85554330Y53463510D01*
X85554330Y54269218D01*
X85494648Y54328900D01*
X84211482Y54328900D01*
G37*
%LPD*%
G36*
X52281544Y41855336D02*
X52281544Y41288355D01*
X52311385Y41228673D01*
X52371067Y41198832D01*
X52400908Y41049627D01*
X52520272Y40900422D01*
X52520272Y40691534D01*
X52579955Y40631852D01*
X54101849Y40631852D01*
X54251054Y40751216D01*
X54280895Y40810898D01*
X54280895Y41974700D01*
X54161531Y42123905D01*
X54101849Y42153746D01*
X52699319Y42153746D01*
X52639637Y42123905D01*
X52490431Y41944859D01*
X52341226Y41915018D01*
X52281544Y41855336D01*
G37*
%LPD*%
G36*
X75497892Y24487837D02*
X75438210Y24428154D01*
X75438210Y22786896D01*
X75497892Y22727214D01*
X75587415Y22727214D01*
X75676938Y22637691D01*
X75676938Y22548167D01*
X75736620Y22488485D01*
X76542329Y22488485D01*
X76602011Y22548167D01*
X76602011Y22637691D01*
X76691534Y22727214D01*
X76781057Y22727214D01*
X76840740Y22786896D01*
X76840740Y22876419D01*
X76960104Y23025624D01*
X76960104Y23711969D01*
X76840740Y23861174D01*
X76840740Y24428154D01*
X76781057Y24487837D01*
X75497892Y24487837D01*
G37*
%LPD*%
G36*
X36346416Y19235809D02*
X36286734Y19176127D01*
X36286734Y18847875D01*
X36197211Y18758352D01*
X36048005Y18728511D01*
X35928641Y18579306D01*
X35928641Y18012326D01*
X35988323Y17952644D01*
X36197211Y17952644D01*
X36286734Y17863120D01*
X36286734Y17534869D01*
X36346416Y17475187D01*
X37629582Y17475187D01*
X37689264Y17534869D01*
X37689264Y18698670D01*
X37808628Y18847875D01*
X37808628Y19056763D01*
X37778787Y19116445D01*
X37629582Y19235809D01*
X36346416Y19235809D01*
G37*
%LPD*%
G36*
X69708725Y17146935D02*
X69708725Y15744405D01*
X69768407Y15684723D01*
X71290302Y15684723D01*
X71349984Y15744405D01*
X71349984Y15953292D01*
X71439507Y16042815D01*
X71648394Y16042815D01*
X71708077Y16102498D01*
X71708077Y16550114D01*
X71678235Y16609796D01*
X71618553Y16639637D01*
X71558871Y16848524D01*
X71379825Y16997729D01*
X71349984Y17146935D01*
X71290302Y17206617D01*
X69768407Y17206617D01*
X69708725Y17146935D01*
G37*
%LPD*%
G36*
X85763218Y40124554D02*
X85703536Y40064872D01*
X85703536Y38423613D01*
X85763218Y38363931D01*
X85852741Y38363931D01*
X85942264Y38274408D01*
X85942264Y38184885D01*
X86001946Y38125203D01*
X86927019Y38125203D01*
X86986701Y38184885D01*
X87016542Y38334090D01*
X87076224Y38363931D01*
X87106066Y38423613D01*
X87106066Y39945508D01*
X87076224Y40005190D01*
X86927019Y40124554D01*
X85763218Y40124554D01*
G37*
%LPD*%
G36*
X85763218Y32962699D02*
X85703536Y32903017D01*
X85703536Y31261758D01*
X85763218Y31202076D01*
X85852741Y31202076D01*
X85942264Y31112553D01*
X85942264Y31023030D01*
X86001946Y30963347D01*
X86210834Y30963347D01*
X86300357Y31052871D01*
X86389880Y31052871D01*
X86479403Y30963347D01*
X86927019Y30963347D01*
X86986701Y31023030D01*
X87016542Y31172235D01*
X87076224Y31202076D01*
X87106066Y31261758D01*
X87106066Y32903017D01*
X87046383Y32962699D01*
X85763218Y32962699D01*
G37*
%LPD*%
G36*
X85763218Y36543626D02*
X85703536Y36483944D01*
X85703536Y34842686D01*
X85763218Y34783004D01*
X85852741Y34783004D01*
X85942264Y34693480D01*
X85942264Y34603957D01*
X86001946Y34544275D01*
X86210834Y34544275D01*
X86300357Y34633798D01*
X86389880Y34633798D01*
X86479403Y34544275D01*
X86927019Y34544275D01*
X86986701Y34603957D01*
X87016542Y34753163D01*
X87076224Y34783004D01*
X87106066Y34842686D01*
X87106066Y36483944D01*
X87046383Y36543626D01*
X85763218Y36543626D01*
G37*
%LPD*%
G36*
X85822900Y22309439D02*
X85703536Y22160234D01*
X85703536Y20638339D01*
X85763218Y20578657D01*
X85852741Y20578657D01*
X85942264Y20489134D01*
X85942264Y20399611D01*
X86001946Y20339929D01*
X86927019Y20339929D01*
X86986701Y20399611D01*
X87016542Y20548816D01*
X87076224Y20578657D01*
X87106066Y20638339D01*
X87106066Y21563412D01*
X87225430Y21712618D01*
X87225430Y21921505D01*
X87195589Y21981187D01*
X87135907Y22011028D01*
X87106066Y22160234D01*
X87046383Y22219916D01*
X86837496Y22219916D01*
X86688291Y22339280D01*
X86479403Y22339280D01*
X86389880Y22249757D01*
X86300357Y22249757D01*
X86210834Y22339280D01*
X85882582Y22339280D01*
X85822900Y22309439D01*
G37*
%LPD*%
G36*
X85763218Y29381771D02*
X85703536Y29322089D01*
X85703536Y27680830D01*
X85763218Y27621148D01*
X85852741Y27621148D01*
X85942264Y27531625D01*
X85942264Y27442102D01*
X86001946Y27382420D01*
X86210834Y27382420D01*
X86360039Y27501784D01*
X86449562Y27501784D01*
X86598767Y27382420D01*
X86927019Y27382420D01*
X86986701Y27442102D01*
X87016542Y27591307D01*
X87076224Y27621148D01*
X87106066Y27680830D01*
X87106066Y29322089D01*
X87046383Y29381771D01*
X85763218Y29381771D01*
G37*
%LPD*%
G36*
X85763218Y25800843D02*
X85703536Y25741161D01*
X85703536Y24099903D01*
X85763218Y24040221D01*
X85912423Y24010380D01*
X85942264Y23950697D01*
X86001946Y23920856D01*
X86449562Y23920856D01*
X86598767Y23801492D01*
X86927019Y23801492D01*
X86986701Y23861174D01*
X86986701Y24070062D01*
X87106066Y24219267D01*
X87106066Y25741161D01*
X87046383Y25800843D01*
X85763218Y25800843D01*
G37*
%LPD*%
G36*
X85763218Y47167045D02*
X85703536Y47107363D01*
X85703536Y45585469D01*
X85763218Y45525787D01*
X85852741Y45525787D01*
X85942264Y45436263D01*
X85942264Y45346740D01*
X86001946Y45287058D01*
X86449562Y45287058D01*
X86598767Y45167694D01*
X86927019Y45167694D01*
X86986701Y45227376D01*
X86986701Y45436263D01*
X87106066Y45585469D01*
X87106066Y47107363D01*
X87046383Y47167045D01*
X85763218Y47167045D01*
G37*
%LPD*%
G36*
X87046383Y43705482D02*
X86837496Y43705482D01*
X86688291Y43586117D01*
X85763218Y43586117D01*
X85703536Y43526435D01*
X85703536Y42004541D01*
X85763218Y41944859D01*
X85852741Y41944859D01*
X85942264Y41855336D01*
X85942264Y41765813D01*
X86001946Y41706130D01*
X86807655Y41706130D01*
X87076224Y41944859D01*
X87106066Y42004541D01*
X87106066Y43645800D01*
X87046383Y43705482D01*
G37*
%LPD*%
G36*
X57772300Y23234512D02*
X57772300Y23025624D01*
X57861823Y22936101D01*
X57861823Y22846578D01*
X57772300Y22757055D01*
X57772300Y22428803D01*
X57831982Y22369121D01*
X58160234Y22369121D01*
X58309439Y22249757D01*
X59711969Y22249757D01*
X59771651Y22309439D01*
X59771651Y23353876D01*
X59711969Y23413558D01*
X59503081Y23413558D01*
X59353876Y23532922D01*
X58428803Y23532922D01*
X58160234Y23294194D01*
X57831982Y23294194D01*
X57772300Y23234512D01*
G37*
%LPD*%
G36*
X53833279Y39826143D02*
X53833279Y38423613D01*
X53892961Y38363931D01*
X54937399Y38363931D01*
X54997081Y38423613D01*
X54997081Y38513137D01*
X55086604Y38602660D01*
X55295491Y38602660D01*
X55355174Y38662342D01*
X55355174Y38990594D01*
X55265650Y39080117D01*
X55265650Y39169640D01*
X55355174Y39259163D01*
X55355174Y39468051D01*
X55295491Y39527733D01*
X55146286Y39557574D01*
X54877717Y39855984D01*
X54818034Y39885825D01*
X53892961Y39885825D01*
X53833279Y39826143D01*
G37*
%LPD*%
G36*
X48760298Y13745054D02*
X48700616Y13685371D01*
X48700616Y12163477D01*
X48581252Y12014272D01*
X48581252Y11447292D01*
X48640934Y11387609D01*
X49327279Y11387609D01*
X49386961Y11417451D01*
X49506325Y11566656D01*
X49506325Y13685371D01*
X49446643Y13745054D01*
X48760298Y13745054D01*
G37*
%LPD*%
G36*
X81794356Y49196237D02*
X81764515Y49136555D01*
X81764515Y48688939D01*
X81794356Y48629257D01*
X81973403Y48480052D01*
X82003244Y48330847D01*
X82062926Y48271164D01*
X83346091Y48271164D01*
X83405774Y48330847D01*
X83405774Y49494648D01*
X83346091Y49554330D01*
X82898476Y49554330D01*
X82808952Y49464807D01*
X82719429Y49464807D01*
X82629906Y49554330D01*
X82062926Y49554330D01*
X82003244Y49494648D01*
X81973403Y49345443D01*
X81794356Y49196237D01*
G37*
%LPD*%
G36*
X74453454Y16908206D02*
X74393772Y16967888D01*
X73946156Y16967888D01*
X73796951Y16848524D01*
X72275057Y16848524D01*
X72215375Y16788842D01*
X72185534Y16639637D01*
X72125851Y16609796D01*
X72096010Y16550114D01*
X72096010Y16102498D01*
X72155693Y16042815D01*
X74274408Y16042815D01*
X74334090Y16072657D01*
X74453454Y16221862D01*
X74453454Y16908206D01*
G37*
%LPD*%
G36*
X83435615Y42332793D02*
X83435615Y42243270D01*
X83316250Y42094064D01*
X83316250Y41527084D01*
X83435615Y41377879D01*
X83435615Y41168991D01*
X83495297Y41109309D01*
X84778463Y41109309D01*
X84838145Y41168991D01*
X84838145Y42332793D01*
X84778463Y42392475D01*
X83495297Y42392475D01*
X83435615Y42332793D01*
G37*
%LPD*%
G36*
X83435615Y24547519D02*
X83435615Y24338631D01*
X83316250Y24189426D01*
X83316250Y23741810D01*
X83435615Y23592605D01*
X83435615Y23383717D01*
X83495297Y23324035D01*
X84778463Y23324035D01*
X84838145Y23383717D01*
X84838145Y24547519D01*
X84778463Y24607201D01*
X83495297Y24607201D01*
X83435615Y24547519D01*
G37*
%LPD*%
G36*
X83435615Y45913720D02*
X83435615Y45704833D01*
X83316250Y45555628D01*
X83316250Y45108012D01*
X83435615Y44958806D01*
X83435615Y44749919D01*
X83495297Y44690237D01*
X84778463Y44690237D01*
X84838145Y44749919D01*
X84838145Y45913720D01*
X84778463Y45973403D01*
X83495297Y45973403D01*
X83435615Y45913720D01*
G37*
%LPD*%
G36*
X25275381Y2345767D02*
X25215699Y2405449D01*
X24887447Y2405449D01*
X24738242Y2286085D01*
X23216348Y2286085D01*
X23156666Y2256244D01*
X23037301Y2107039D01*
X23037301Y1540058D01*
X23096983Y1480376D01*
X25096335Y1480376D01*
X25156017Y1510217D01*
X25275381Y1659423D01*
X25275381Y2345767D01*
G37*
%LPD*%
G36*
X73170289Y25144340D02*
X73170289Y24099903D01*
X73229971Y24040221D01*
X74513137Y24040221D01*
X74572819Y24099903D01*
X74572819Y25144340D01*
X74513137Y25204022D01*
X74363931Y25233863D01*
X74334090Y25293545D01*
X74155044Y25442751D01*
X73588064Y25442751D01*
X73528381Y25412910D01*
X73379176Y25233863D01*
X73229971Y25204022D01*
X73170289Y25144340D01*
G37*
%LPD*%
G36*
X74334090Y2345767D02*
X74274408Y2405449D01*
X74065521Y2405449D01*
X73916315Y2286085D01*
X72275057Y2286085D01*
X72215375Y2256244D01*
X72096010Y2107039D01*
X72096010Y1540058D01*
X72155693Y1480376D01*
X74155044Y1480376D01*
X74214726Y1510217D01*
X74334090Y1659423D01*
X74334090Y2345767D01*
G37*
%LPD*%
G36*
X72961401Y22936101D02*
X72931560Y22876419D01*
X72931560Y22309439D01*
X72991242Y22249757D01*
X73080765Y22249757D01*
X73170289Y22160234D01*
X73170289Y22070710D01*
X73229971Y22011028D01*
X74513137Y22011028D01*
X74572819Y22070710D01*
X74572819Y23115148D01*
X74513137Y23174830D01*
X73229971Y23174830D01*
X72961401Y22936101D01*
G37*
%LPD*%
G36*
X83435615Y28128446D02*
X83435615Y27919559D01*
X83316250Y27770354D01*
X83316250Y27203373D01*
X83346091Y27143691D01*
X83405774Y27113850D01*
X83435615Y26964645D01*
X83495297Y26904963D01*
X84778463Y26904963D01*
X84838145Y26964645D01*
X84838145Y28009082D01*
X84778463Y28068764D01*
X84330847Y28068764D01*
X84181641Y28188128D01*
X83495297Y28188128D01*
X83435615Y28128446D01*
G37*
%LPD*%
G36*
X83435615Y38751865D02*
X83435615Y38662342D01*
X83316250Y38513137D01*
X83316250Y37946156D01*
X83346091Y37886474D01*
X83405774Y37856633D01*
X83435615Y37707428D01*
X83495297Y37647746D01*
X83584820Y37647746D01*
X83734025Y37528381D01*
X83942913Y37528381D01*
X84092118Y37647746D01*
X84778463Y37647746D01*
X84838145Y37707428D01*
X84838145Y38751865D01*
X84778463Y38811547D01*
X83495297Y38811547D01*
X83435615Y38751865D01*
G37*
%LPD*%
G36*
X18203049Y45734674D02*
X18143367Y45674992D01*
X18143367Y44153098D01*
X18203049Y44093416D01*
X18889393Y44093416D01*
X18949076Y44123257D01*
X19098281Y44302303D01*
X19247486Y44332144D01*
X19396692Y44451508D01*
X19426533Y44511190D01*
X19426533Y45078171D01*
X19307168Y45227376D01*
X19098281Y45287058D01*
X19068440Y45346740D01*
X18978917Y45406422D01*
X18949076Y45555628D01*
X18829711Y45704833D01*
X18770029Y45734674D01*
X18203049Y45734674D01*
G37*
%LPD*%
G36*
X83435615Y20966591D02*
X83435615Y20877068D01*
X83316250Y20727862D01*
X83316250Y20160882D01*
X83346091Y20101200D01*
X83405774Y20071359D01*
X83435615Y19922154D01*
X83495297Y19862472D01*
X84778463Y19862472D01*
X84838145Y19922154D01*
X84838145Y20966591D01*
X84778463Y21026273D01*
X83495297Y21026273D01*
X83435615Y20966591D01*
G37*
%LPD*%
G36*
X83435615Y31590010D02*
X83435615Y31500487D01*
X83316250Y31351281D01*
X83316250Y30784301D01*
X83346091Y30724619D01*
X83405774Y30694778D01*
X83435615Y30545572D01*
X83495297Y30485890D01*
X84778463Y30485890D01*
X84838145Y30545572D01*
X84838145Y31590010D01*
X84778463Y31649692D01*
X83495297Y31649692D01*
X83435615Y31590010D01*
G37*
%LPD*%
G36*
X83435615Y35170937D02*
X83435615Y35081414D01*
X83316250Y34932209D01*
X83316250Y34365229D01*
X83346091Y34305547D01*
X83405774Y34275705D01*
X83435615Y34126500D01*
X83495297Y34066818D01*
X84778463Y34066818D01*
X84838145Y34126500D01*
X84838145Y35170937D01*
X84778463Y35230620D01*
X83495297Y35230620D01*
X83435615Y35170937D01*
G37*
%LPD*%
G36*
X81883879Y52956211D02*
X81883879Y52866688D01*
X81764515Y52717483D01*
X81764515Y52150503D01*
X81794356Y52090821D01*
X81854038Y52060980D01*
X81883879Y51911774D01*
X81943561Y51852092D01*
X83226727Y51852092D01*
X83286409Y51911774D01*
X83286409Y52956211D01*
X83226727Y53015894D01*
X81943561Y53015894D01*
X81883879Y52956211D01*
G37*
%LPD*%
G36*
X23813169Y26755757D02*
X23753487Y26725916D01*
X23634123Y26576711D01*
X23634123Y24816088D01*
X23663964Y24756406D01*
X23813169Y24637042D01*
X24260785Y24637042D01*
X24320467Y24666883D01*
X24439831Y24816088D01*
X24439831Y26576711D01*
X24409990Y26636393D01*
X24260785Y26755757D01*
X23813169Y26755757D01*
G37*
%LPD*%
G36*
X23813169Y38214726D02*
X23753487Y38184885D01*
X23634123Y38035680D01*
X23634123Y36275057D01*
X23663964Y36215375D01*
X23813169Y36096010D01*
X24260785Y36096010D01*
X24320467Y36125851D01*
X24439831Y36275057D01*
X24439831Y38035680D01*
X24409990Y38095362D01*
X24260785Y38214726D01*
X23813169Y38214726D01*
G37*
%LPD*%
G36*
X49715212Y40840740D02*
X49655530Y40810898D01*
X49625689Y40751216D01*
X49476484Y40721375D01*
X49416802Y40661693D01*
X49386961Y40512488D01*
X49327279Y40482647D01*
X49297438Y40422965D01*
X49297438Y39378527D01*
X49357120Y39318845D01*
X49566007Y39318845D01*
X49715212Y39438210D01*
X49924100Y39438210D01*
X50073305Y39318845D01*
X50282193Y39318845D01*
X50341875Y39378527D01*
X50341875Y39945508D01*
X50371716Y40005190D01*
X50431398Y40035031D01*
X50461239Y40184236D01*
X50580603Y40333441D01*
X50580603Y40781057D01*
X50520921Y40840740D01*
X49715212Y40840740D01*
G37*
%LPD*%
G36*
X32347713Y34932209D02*
X32347713Y34365229D01*
X32377554Y34305547D01*
X32526760Y34186182D01*
X33809925Y34186182D01*
X33869608Y34216023D01*
X33988972Y34365229D01*
X33988972Y34812845D01*
X33959131Y34872527D01*
X33809925Y34991891D01*
X32407395Y34991891D01*
X32347713Y34932209D01*
G37*
%LPD*%
G36*
X56698021Y2226403D02*
X56698021Y1659423D01*
X56727862Y1599741D01*
X56877068Y1480376D01*
X58040869Y1480376D01*
X58100551Y1510217D01*
X58219916Y1659423D01*
X58219916Y2226403D01*
X58160234Y2286085D01*
X56757704Y2286085D01*
X56698021Y2226403D01*
G37*
%LPD*%
G36*
X78780409Y2226403D02*
X78780409Y1659423D01*
X78810250Y1599741D01*
X78959455Y1480376D01*
X80003892Y1480376D01*
X80063574Y1510217D01*
X80182939Y1659423D01*
X80182939Y2226403D01*
X80123257Y2286085D01*
X78840091Y2286085D01*
X78780409Y2226403D01*
G37*
%LPD*%
G36*
X61472592Y2226403D02*
X61472592Y1659423D01*
X61502433Y1599741D01*
X61651638Y1480376D01*
X62696075Y1480376D01*
X62755757Y1510217D01*
X62875122Y1659423D01*
X62875122Y2226403D01*
X62815440Y2286085D01*
X61532274Y2286085D01*
X61472592Y2226403D01*
G37*
%LPD*%
G36*
X82958158Y2226403D02*
X82958158Y1659423D01*
X82987999Y1599741D01*
X83137204Y1480376D01*
X84062277Y1480376D01*
X84121959Y1510217D01*
X84241323Y1659423D01*
X84241323Y2226403D01*
X84181641Y2286085D01*
X83017840Y2286085D01*
X82958158Y2226403D01*
G37*
%LPD*%
G36*
X12055790Y35648394D02*
X12055790Y34962050D01*
X12115472Y34902368D01*
X13040545Y34902368D01*
X13189750Y35021732D01*
X13219591Y35081414D01*
X13219591Y35648394D01*
X13159909Y35708077D01*
X12115472Y35708077D01*
X12055790Y35648394D01*
G37*
%LPD*%
%ADD20C,0.6200*%
D20*
X11387350Y52466818D03*
%ADD21C,0.5700*%
D21*
X15397989Y52478754D03*
%ADD22C,2.2300*%
D22*
X1786184Y48375430D03*
%ADD23C,2.2400*%
D23*
X6272521Y48399375D03*
D22*
X1785708Y41858427D03*
D23*
X6271577Y41855572D03*
%ADD24C,2.2600*%
D24*
X1771032Y39339433D03*
D23*
X6265916Y39355056D03*
%ADD25C,2.5300*%
D25*
X58120140Y38543161D03*
%ADD26C,2.5100*%
D26*
X63109481Y38540096D03*
%ADD27C,2.1400*%
D27*
X10148038Y33620240D03*
%ADD28C,1.9500*%
D28*
X12674198Y33668726D03*
D22*
X1772727Y32840938D03*
%ADD29C,2.2700*%
D29*
X6275610Y32814300D03*
%ADD30C,1.9800*%
D30*
X10152695Y31128774D03*
%ADD31C,2.0000*%
D31*
X12675290Y31117924D03*
%ADD32C,1.6400*%
D32*
X44718441Y31159380D03*
%ADD33C,1.5000*%
D33*
X47273771Y31168919D03*
D24*
X1773744Y30301851D03*
%ADD34C,2.2500*%
D34*
X6275283Y30290812D03*
D30*
X10141039Y28594213D03*
D31*
X12673005Y28595406D03*
D22*
X1783753Y23773089D03*
D34*
X6270602Y23773055D03*
%ADD35C,2.5000*%
D35*
X7792189Y15217715D03*
%ADD36C,2.4900*%
D36*
X13269137Y15151657D03*
D26*
X29804509Y15208012D03*
D36*
X35298579Y15153250D03*
%ADD37C,2.4800*%
D37*
X56852312Y15194696D03*
D35*
X62334041Y15148147D03*
D37*
X78838375Y15191153D03*
D35*
X84340231Y15152276D03*
D26*
X5572819Y13464175D03*
D37*
X27599075Y13462088D03*
D26*
X54607655Y13455222D03*
D26*
X76655426Y13460301D03*
D36*
X15448008Y13383550D03*
%ADD38C,2.4700*%
D38*
X37471878Y13378462D03*
D37*
X64495463Y13377749D03*
D36*
X86496510Y13381639D03*
D35*
X4338778Y10951630D03*
%ADD39C,2.5200*%
D39*
X16646495Y10843242D03*
D35*
X26347494Y10950725D03*
D38*
X38657847Y10861444D03*
D26*
X53386782Y10934398D03*
D36*
X65683687Y10855681D03*
D35*
X75376080Y10948089D03*
D36*
X87680978Y10839516D03*
D35*
X5528667Y5596754D03*
D37*
X15354896Y5519216D03*
D35*
X27526223Y5597505D03*
%ADD40C,2.4600*%
D40*
X54544039Y5594180D03*
D36*
X76568015Y5600709D03*
D37*
X37404766Y5506233D03*
D27*
X44717106Y5483419D03*
D27*
X47267145Y5493518D03*
D37*
X64400278Y5503163D03*
D37*
X86439679Y5513909D03*
D26*
X7705168Y3862142D03*
D35*
X29710403Y3847234D03*
D26*
X56731966Y3837447D03*
D39*
X78728672Y3834864D03*
D36*
X13162656Y3779086D03*
D26*
X35174781Y3789329D03*
D35*
X62187271Y3786234D03*
D36*
X84185146Y3781738D03*
D36*
X10398711Y3178475D03*
D37*
X32444049Y3184963D03*
D37*
X59446831Y3179601D03*
D36*
X81460231Y3182643D03*
M02*
