G04 #@! TF.GenerationSoftware,jpg2gerber*
%FSLAX46Y46*%
%MOMM*%
G04 #@! TF.FileFunction,Soldermask,Bot*
G04 #@! TF.FilePolarity,Negative*
%ADD10C,0.100000*%
G01*
%LPD*%
%LPD*%
%ADD20C,0.6200*%
D20*
X11387350Y52466818D03*
%ADD21C,0.5700*%
D21*
X15397989Y52478754D03*
%ADD22C,2.2300*%
D22*
X1786184Y48375430D03*
%ADD23C,2.2400*%
D23*
X6272521Y48399375D03*
D22*
X1785708Y41858427D03*
D23*
X6271577Y41855572D03*
%ADD24C,2.2600*%
D24*
X1771032Y39339433D03*
D23*
X6265916Y39355056D03*
%ADD25C,2.5300*%
D25*
X58120140Y38543161D03*
%ADD26C,2.5100*%
D26*
X63109481Y38540096D03*
%ADD27C,2.1400*%
D27*
X10148038Y33620240D03*
%ADD28C,1.9500*%
D28*
X12674198Y33668726D03*
D22*
X1772727Y32840938D03*
%ADD29C,2.2700*%
D29*
X6275610Y32814300D03*
%ADD30C,1.9800*%
D30*
X10152695Y31128774D03*
%ADD31C,2.0000*%
D31*
X12675290Y31117924D03*
%ADD32C,1.6400*%
D32*
X44718441Y31159380D03*
%ADD33C,1.5000*%
D33*
X47273771Y31168919D03*
D24*
X1773744Y30301851D03*
%ADD34C,2.2500*%
D34*
X6275283Y30290812D03*
D30*
X10141039Y28594213D03*
D31*
X12673005Y28595406D03*
D22*
X1783753Y23773089D03*
D34*
X6270602Y23773055D03*
%ADD35C,2.5000*%
D35*
X7792189Y15217715D03*
%ADD36C,2.4900*%
D36*
X13269137Y15151657D03*
D26*
X29804509Y15208012D03*
D36*
X35298579Y15153250D03*
%ADD37C,2.4800*%
D37*
X56852312Y15194696D03*
D35*
X62334041Y15148147D03*
D37*
X78838375Y15191153D03*
D35*
X84340231Y15152276D03*
D26*
X5572819Y13464175D03*
D37*
X27599075Y13462088D03*
D26*
X54607655Y13455222D03*
D26*
X76655426Y13460301D03*
D36*
X15448008Y13383550D03*
%ADD38C,2.4700*%
D38*
X37471878Y13378462D03*
D37*
X64495463Y13377749D03*
D36*
X86496510Y13381639D03*
D35*
X4338778Y10951630D03*
%ADD39C,2.5200*%
D39*
X16646495Y10843242D03*
D35*
X26347494Y10950725D03*
D38*
X38657847Y10861444D03*
D26*
X53386782Y10934398D03*
D36*
X65683687Y10855681D03*
D35*
X75376080Y10948089D03*
D36*
X87680978Y10839516D03*
D35*
X5528667Y5596754D03*
D37*
X15354896Y5519216D03*
D35*
X27526223Y5597505D03*
%ADD40C,2.4600*%
D40*
X54544039Y5594180D03*
D36*
X76568015Y5600709D03*
D37*
X37404766Y5506233D03*
D27*
X44717106Y5483419D03*
D27*
X47267145Y5493518D03*
D37*
X64400278Y5503163D03*
D37*
X86439679Y5513909D03*
D26*
X7705168Y3862142D03*
D35*
X29710403Y3847234D03*
D26*
X56731966Y3837447D03*
D39*
X78728672Y3834864D03*
D36*
X13162656Y3779086D03*
D26*
X35174781Y3789329D03*
D35*
X62187271Y3786234D03*
D36*
X84185146Y3781738D03*
D36*
X10398711Y3178475D03*
D37*
X32444049Y3184963D03*
D37*
X59446831Y3179601D03*
D36*
X81460231Y3182643D03*
M02*
