M48
; #@! TF.FileFunction,Plated,1,2,PTH
METRIC,TZ
T1C0.300
T2C0.700
T3C0.800
T4C0.900
T5C1.000
T6C1.100
T7C1.200
%
G90
G05
T1
X11.387Y52.467
X15.398Y52.479
T2
X47.274Y31.169
T3
X44.718Y31.159
T4
X12.674Y33.669
X10.153Y31.129
X10.141Y28.594
T5
X10.148Y33.620
X12.675Y31.118
X12.673Y28.595
X44.717Y5.483
X47.267Y5.494
T6
X1.786Y48.375
X6.273Y48.399
X1.786Y41.858
X6.272Y41.856
X1.771Y39.339
X6.266Y39.355
X1.773Y32.841
X6.276Y32.814
X1.774Y30.302
X6.275Y30.291
X1.784Y23.773
X6.271Y23.773
T7
X58.120Y38.543
X63.109Y38.540
X7.792Y15.218
X13.269Y15.152
X29.805Y15.208
X35.299Y15.153
X56.852Y15.195
X62.334Y15.148
X78.838Y15.191
X84.340Y15.152
X5.573Y13.464
X27.599Y13.462
X54.608Y13.455
X76.655Y13.460
X15.448Y13.384
X37.472Y13.378
X64.495Y13.378
X86.497Y13.382
X4.339Y10.952
X16.646Y10.843
X26.347Y10.951
X38.658Y10.861
X53.387Y10.934
X65.684Y10.856
X75.376Y10.948
X87.681Y10.840
X5.529Y5.597
X15.355Y5.519
X27.526Y5.598
X54.544Y5.594
X76.568Y5.601
X37.405Y5.506
X64.400Y5.503
X86.440Y5.514
X7.705Y3.862
X29.710Y3.847
X56.732Y3.837
X78.729Y3.835
X13.163Y3.779
X35.175Y3.789
X62.187Y3.786
X84.185Y3.782
X10.399Y3.178
X32.444Y3.185
X59.447Y3.180
X81.460Y3.183
T0
M30
