G04 #@! TF.GenerationSoftware,jpg2gerber*
G04 #@! TF.FileFunction,Soldermask,Bot*
G04 #@! TF.FilePolarity,Negative*
%FSLAX46Y46*%
%MOMM*%
%ADD10C,0.100000*%
G01*
%ADD11C,2.305*%
%ADD12C,2.285*%
%ADD13C,2.297*%
%ADD14C,2.130*%
%ADD15C,2.010*%
%ADD16C,2.301*%
%ADD17C,2.298*%
%ADD18C,2.562*%
%ADD19C,2.576*%
%ADD20C,2.190*%
%ADD21C,2.206*%
%ADD22C,1.998*%
%ADD23C,2.296*%
%ADD24C,2.292*%
%ADD25C,1.713*%
%ADD26C,1.602*%
%ADD27C,2.013*%
%ADD28C,2.024*%
%ADD29C,2.299*%
%ADD30C,2.288*%
%ADD31C,2.022*%
%ADD32C,2.304*%
%ADD33C,2.290*%
%ADD34C,2.536*%
%ADD35C,2.544*%
%ADD36C,2.547*%
%ADD37C,2.535*%
%ADD38C,2.527*%
%ADD39C,2.541*%
%ADD40C,2.543*%
%ADD41C,2.540*%
%ADD42C,2.548*%
%ADD43C,2.522*%
%ADD44C,2.534*%
%ADD45C,2.542*%
%ADD46C,2.528*%
%ADD47C,2.532*%
%ADD48C,2.533*%
%ADD49C,2.538*%
%ADD50C,2.526*%
%ADD51C,2.519*%
%ADD52C,1.772*%
%ADD53C,2.125*%
%ADD54C,2.545*%
%ADD55C,2.546*%
%ADD56C,2.537*%
%ADD57C,2.521*%
%ADD58C,2.524*%
%LPD*%
%LPD*%
D11*
X1761194Y48417910D03*
D12*
X6238806Y48388060D03*
D13*
X1740853Y41873992D03*
D12*
X6238806Y41910448D03*
D14*
X70059701Y40686567D02*
X68746269Y40686567D01*
D15*
X74179104Y40686567D02*
X72746269Y40686567D01*
D16*
X1740641Y39385859D03*
D17*
X6208955Y39343284D03*
D18*
X58107917Y38564869D03*
D19*
X63100156Y38543340D03*
D14*
X43552239Y38537313D02*
X42238806Y38537313D01*
D20*
X49671642Y38567164D02*
X48537313Y38567164D01*
D21*
X10149254Y33671642D03*
D22*
X12656716Y33671642D03*
D23*
X1731343Y32865672D03*
D24*
X6238806Y32835821D03*
D25*
X44746269Y31194030D03*
D26*
X47253731Y31194030D03*
D27*
X10089552Y31134328D03*
D28*
X12656716Y31134328D03*
D29*
X1791045Y30298507D03*
D30*
X6238805Y30298506D03*
D31*
X10089552Y28626866D03*
D28*
X12656716Y28597015D03*
D32*
X1738230Y23795640D03*
D33*
X6246011Y23787951D03*
D34*
X7791045Y15223881D03*
D35*
X29791048Y15223877D03*
D36*
X56825294Y15236168D03*
D37*
X78820903Y15208955D03*
D38*
X13283582Y15134328D03*
D39*
X35294208Y15182238D03*
D37*
X62304483Y15176116D03*
D37*
X84323767Y15187147D03*
D36*
X5582090Y13492537D03*
D40*
X15417912Y13388056D03*
D41*
X27582090Y13492537D03*
D37*
X37447765Y13388056D03*
D41*
X54626873Y13492534D03*
D42*
X76641798Y13477608D03*
D37*
X64447761Y13373134D03*
D43*
X86507470Y13402981D03*
D44*
X4298507Y10955224D03*
D45*
X26343524Y10967456D03*
D40*
X53343284Y10925373D03*
D39*
X75379329Y10961983D03*
D46*
X16597015Y10835821D03*
D47*
X38656720Y10865668D03*
D47*
X65671642Y10805970D03*
D48*
X87704575Y10872876D03*
D39*
X54567164Y5611940D03*
D35*
X5462687Y5611940D03*
D46*
X15343284Y5522388D03*
D44*
X27505674Y5614323D03*
D49*
X37373134Y5552239D03*
D48*
X64358209Y5552239D03*
D50*
X76567171Y5611933D03*
D51*
X86432843Y5537306D03*
D52*
X44686567Y5223881D02*
X44686567Y5820896D01*
D53*
X47313433Y5522388D03*
D45*
X7671642Y3820896D03*
D40*
X29695526Y3868649D03*
D54*
X56716422Y3850739D03*
D55*
X78716418Y3850746D03*
D56*
X13164177Y3791041D03*
D41*
X35170151Y3808944D03*
D45*
X62189635Y3803339D03*
D42*
X84208955Y3791045D03*
D50*
X10388060Y3134328D03*
D57*
X32388060Y3194030D03*
D51*
X59432836Y3194030D03*
D58*
X81432836Y3194030D03*
M02*
