G04 #@! TF.GenerationSoftware,jpg2gerber*
G04 #@! TF.FileFunction,Soldermask,Top*
G04 #@! TF.FilePolarity,Negative*
%FSLAX46Y46*%
%MOMM*%
%ADD10C,0.100000*%
G01*
%ADD11C,2.305*%
%ADD12C,2.285*%
%ADD13C,2.297*%
%ADD14C,2.130*%
%ADD15C,2.010*%
%ADD16C,2.301*%
%ADD17C,2.298*%
%ADD18C,2.562*%
%ADD19C,2.576*%
%ADD20C,2.190*%
%ADD21C,2.206*%
%ADD22C,1.998*%
%ADD23C,2.296*%
%ADD24C,2.292*%
%ADD25C,1.713*%
%ADD26C,1.602*%
%ADD27C,2.013*%
%ADD28C,2.024*%
%ADD29C,2.299*%
%ADD30C,2.288*%
%ADD31C,2.022*%
%ADD32C,2.304*%
%ADD33C,2.290*%
%ADD34C,2.536*%
%ADD35C,2.544*%
%ADD36C,2.547*%
%ADD37C,2.535*%
%ADD38C,2.527*%
%ADD39C,2.541*%
%ADD40C,2.543*%
%ADD41C,2.540*%
%ADD42C,2.548*%
%ADD43C,2.522*%
%ADD44C,2.534*%
%ADD45C,2.542*%
%ADD46C,2.528*%
%ADD47C,2.532*%
%ADD48C,2.533*%
%ADD49C,2.538*%
%ADD50C,2.526*%
%ADD51C,2.519*%
%ADD52C,1.772*%
%ADD53C,2.125*%
%ADD54C,2.545*%
%ADD55C,2.546*%
%ADD56C,2.537*%
%ADD57C,2.521*%
%ADD58C,2.524*%
%ADD59R,0.600X2.130*%
%ADD60R,2.130X0.600*%
%LPD*%
%LPD*%
G36*
X20208955Y52776119D02*
X20059701Y52626866D01*
X20059701Y50447761D01*
X20000000Y50388060D01*
X19731343Y50388060D01*
X19641791Y50298507D01*
X19641791Y49731343D01*
X19701493Y49641791D01*
X19701493Y49313433D01*
X19641791Y49223881D01*
X19641791Y48656716D01*
X19701493Y48567164D01*
X19701493Y48358209D01*
X19522388Y48029851D01*
X19522388Y47283582D01*
X19611940Y47194030D01*
X20179104Y47194030D01*
X20268657Y47253731D01*
X21432836Y47253731D01*
X21522388Y47313433D01*
X21641791Y47253731D01*
X22865672Y47253731D01*
X23014925Y47402985D01*
X23014925Y47850746D01*
X23074627Y47940299D01*
X23074627Y48388060D01*
X23014925Y48477612D01*
X23014925Y48716418D01*
X23044776Y48746269D01*
X23014925Y48805970D01*
X23014925Y52626866D01*
X22865672Y52776119D01*
X20208955Y52776119D01*
G37*
%LPD*%
G36*
X8865672Y47343284D02*
X8716418Y47194030D01*
X8716418Y44179104D01*
X8656716Y44089552D01*
X8656716Y44000000D01*
X8805970Y43791045D01*
X9044776Y43820896D01*
X9194030Y43671642D01*
X9194030Y43044776D01*
X9283582Y42955224D01*
X9791045Y42955224D01*
X9880597Y43014925D01*
X10268657Y43014925D01*
X10358209Y42955224D01*
X10985075Y42955224D01*
X11074627Y43044776D01*
X11074627Y43731343D01*
X11253731Y43850746D01*
X11313433Y43940299D01*
X11313433Y46358209D01*
X11223881Y46447761D01*
X10656716Y46447761D01*
X10597015Y46507463D01*
X10597015Y47194030D01*
X10447761Y47343284D01*
X8865672Y47343284D01*
G37*
%LPD*%
G36*
X8567164Y55641791D02*
X8417910Y55492537D01*
X8417910Y55402985D01*
X8477612Y55313433D01*
X8477612Y53791045D01*
X8537313Y53701493D01*
X8716418Y53582090D01*
X8716418Y53313433D01*
X8805970Y53223881D01*
X9313433Y53223881D01*
X9402985Y53283582D01*
X9492537Y53283582D01*
X9552239Y53223881D01*
X9552239Y52179104D01*
X9641791Y52089552D01*
X10507463Y52089552D01*
X10597015Y52179104D01*
X10597015Y53582090D01*
X10776119Y53701493D01*
X10835821Y53791045D01*
X10835821Y54119403D01*
X10955224Y54328358D01*
X10955224Y55014925D01*
X10835821Y55164179D01*
X10835821Y55552239D01*
X10746269Y55641791D01*
X8567164Y55641791D01*
G37*
%LPD*%
G36*
X68059701Y47671642D02*
X68059701Y45731343D01*
X68149254Y45641791D01*
X71104478Y45641791D01*
X71194030Y45731343D01*
X71194030Y46059701D01*
X71313433Y46268657D01*
X71313433Y46835821D01*
X71194030Y47044776D01*
X71194030Y47253731D01*
X71253731Y47343284D01*
X71253731Y47671642D01*
X71164179Y47761194D01*
X68149254Y47761194D01*
X68059701Y47671642D01*
G37*
%LPD*%
G36*
X56955224Y52298507D02*
X56895522Y52208955D01*
X56895522Y50328358D01*
X56985075Y50238806D01*
X57253731Y50238806D01*
X57343284Y50179104D01*
X57432836Y50179104D01*
X57522388Y50238806D01*
X57641791Y50179104D01*
X57791045Y50179104D01*
X57880597Y50238806D01*
X58000000Y50179104D01*
X58388060Y50179104D01*
X58477612Y50238806D01*
X58567164Y50238806D01*
X58656716Y50179104D01*
X59014925Y50179104D01*
X59044776Y50208955D01*
X59223881Y50179104D01*
X59313433Y50238806D01*
X59432836Y50447761D01*
X59432836Y51492537D01*
X59373134Y51582090D01*
X59373134Y51671642D01*
X59432836Y51761194D01*
X59432836Y51940299D01*
X59402985Y51970149D01*
X59432836Y52149254D01*
X59373134Y52238806D01*
X59313433Y52507463D01*
X59223881Y52597015D01*
X58119403Y52597015D01*
X57850746Y52358209D01*
X57044776Y52358209D01*
X56955224Y52298507D01*
G37*
%LPD*%
G36*
X60477612Y47701493D02*
X60417910Y47611940D01*
X60417910Y45791045D01*
X60477612Y45701493D01*
X60567164Y45641791D01*
X61492537Y45641791D01*
X61552239Y45582090D01*
X61552239Y45492537D01*
X61641791Y45402985D01*
X62805970Y45402985D01*
X62895522Y45492537D01*
X62895522Y45641791D01*
X62955224Y45731343D01*
X62955224Y47671642D01*
X62865672Y47761194D01*
X60567164Y47761194D01*
X60477612Y47701493D01*
G37*
%LPD*%
G36*
X49791045Y52268657D02*
X49791045Y50328358D01*
X49880597Y50238806D01*
X50000000Y50179104D01*
X50119403Y50238806D01*
X50238806Y50179104D01*
X50865672Y50179104D01*
X50955224Y50238806D01*
X51104478Y50238806D01*
X51194030Y50179104D01*
X51761194Y50179104D01*
X51850746Y50238806D01*
X52179104Y50238806D01*
X52268657Y50328358D01*
X52268657Y52388060D01*
X52119403Y52597015D01*
X50955224Y52597015D01*
X50865672Y52507463D01*
X50865672Y52417910D01*
X50805970Y52358209D01*
X49880597Y52358209D01*
X49791045Y52268657D01*
G37*
%LPD*%
G36*
X53373134Y47701493D02*
X53313433Y47611940D01*
X53313433Y46089552D01*
X53373134Y46000000D01*
X53373134Y45910448D01*
X53313433Y45791045D01*
X53373134Y45701493D01*
X53462687Y45641791D01*
X54388060Y45641791D01*
X54447761Y45582090D01*
X54447761Y45492537D01*
X54537313Y45402985D01*
X55701493Y45402985D01*
X55791045Y45492537D01*
X55791045Y45641791D01*
X55850746Y45731343D01*
X55850746Y47611940D01*
X55791045Y47701493D01*
X55701493Y47761194D01*
X53462687Y47761194D01*
X53373134Y47701493D01*
G37*
%LPD*%
G36*
X46208955Y47671642D02*
X46208955Y45671642D01*
X46298507Y45582090D01*
X46507463Y45582090D01*
X46597015Y45641791D01*
X47223881Y45641791D01*
X47283582Y45582090D01*
X47283582Y45492537D01*
X47373134Y45402985D01*
X48597015Y45402985D01*
X48686567Y45492537D01*
X48686567Y47582090D01*
X48716418Y47611940D01*
X48686567Y47701493D01*
X48597015Y47761194D01*
X46298507Y47761194D01*
X46208955Y47671642D01*
G37*
%LPD*%
G36*
X13940299Y42149254D02*
X13850746Y42089552D01*
X13731343Y41880597D01*
X13611940Y41761194D01*
X13611940Y39880597D01*
X13731343Y39731343D01*
X13731343Y39641791D01*
X13880597Y39492537D01*
X15522388Y39492537D01*
X15850746Y39761194D01*
X15850746Y40328358D01*
X15791045Y40417910D01*
X15791045Y40567164D01*
X15731343Y40656716D01*
X15731343Y41044776D01*
X15791045Y41134328D01*
X15791045Y41223881D01*
X15731343Y41313433D01*
X15731343Y41552239D01*
X15761194Y41582090D01*
X15731343Y41820896D01*
X15552239Y42089552D01*
X15462687Y42149254D01*
X13940299Y42149254D01*
G37*
%LPD*%
G36*
X46776119Y52597015D02*
X46567164Y52328358D01*
X46567164Y50388060D01*
X46626866Y50298507D01*
X46835821Y50179104D01*
X48238806Y50179104D01*
X48328358Y50238806D01*
X48447761Y50179104D01*
X48776119Y50179104D01*
X48865672Y50238806D01*
X48985075Y50388060D01*
X48985075Y52149254D01*
X48925373Y52268657D01*
X48835821Y52358209D01*
X48089552Y52358209D01*
X47880597Y52597015D01*
X46776119Y52597015D01*
G37*
%LPD*%
G36*
X53850746Y52537313D02*
X53731343Y52328358D01*
X53731343Y50328358D01*
X53791045Y50238806D01*
X53880597Y50179104D01*
X55940299Y50179104D01*
X56029851Y50238806D01*
X56089552Y50328358D01*
X56089552Y52268657D01*
X56000000Y52358209D01*
X55253731Y52358209D01*
X55044776Y52597015D01*
X53940299Y52597015D01*
X53850746Y52537313D01*
G37*
%LPD*%
G36*
X60985075Y52597015D02*
X60895522Y52507463D01*
X60895522Y52358209D01*
X60835821Y52268657D01*
X60835821Y50328358D01*
X61044776Y50179104D01*
X61134328Y50179104D01*
X61223881Y50238806D01*
X61343284Y50179104D01*
X61582090Y50179104D01*
X61611940Y50208955D01*
X61671642Y50179104D01*
X63044776Y50179104D01*
X63134328Y50238806D01*
X63194030Y50328358D01*
X63194030Y52268657D01*
X63104478Y52358209D01*
X62358209Y52358209D01*
X62238806Y52537313D01*
X62149254Y52597015D01*
X60985075Y52597015D01*
G37*
%LPD*%
G36*
X57313433Y47701493D02*
X57253731Y47611940D01*
X57253731Y45791045D01*
X57313433Y45701493D01*
X57313433Y45552239D01*
X57373134Y45462687D01*
X57462687Y45402985D01*
X58626866Y45402985D01*
X58716418Y45492537D01*
X58716418Y45582090D01*
X58776119Y45641791D01*
X59582090Y45641791D01*
X59671642Y45731343D01*
X59671642Y47611940D01*
X59611940Y47701493D01*
X59522388Y47761194D01*
X57402985Y47761194D01*
X57313433Y47701493D01*
G37*
%LPD*%
G36*
X64000000Y52268657D02*
X64000000Y50328358D01*
X64089552Y50238806D01*
X64179104Y50208955D01*
X64477612Y50238806D01*
X64567164Y50179104D01*
X66328358Y50179104D01*
X66417910Y50238806D01*
X66477612Y50328358D01*
X66477612Y50477612D01*
X66537313Y50567164D01*
X66537313Y51373134D01*
X66477612Y51462687D01*
X66477612Y51731343D01*
X66537313Y51820896D01*
X66537313Y51910448D01*
X66477612Y52000000D01*
X66507463Y52059701D01*
X66477612Y52268657D01*
X66388060Y52358209D01*
X64089552Y52358209D01*
X64000000Y52268657D01*
G37*
%LPD*%
G36*
X64417910Y47671642D02*
X64358209Y47552239D01*
X64358209Y45791045D01*
X64477612Y45641791D01*
X64477612Y45492537D01*
X64567164Y45402985D01*
X65731343Y45402985D01*
X65820896Y45492537D01*
X65820896Y45582090D01*
X65880597Y45641791D01*
X66626866Y45641791D01*
X66716418Y45701493D01*
X66776119Y45791045D01*
X66776119Y47611940D01*
X66716418Y47701493D01*
X66626866Y47761194D01*
X64507463Y47761194D01*
X64417910Y47671642D01*
G37*
%LPD*%
G36*
X50149254Y47671642D02*
X50149254Y45731343D01*
X50238806Y45611940D01*
X50208955Y45492537D01*
X50298507Y45402985D01*
X51462687Y45402985D01*
X51552239Y45462687D01*
X51671642Y45641791D01*
X52417910Y45641791D01*
X52507463Y45731343D01*
X52507463Y47671642D01*
X52417910Y47761194D01*
X50238806Y47761194D01*
X50149254Y47671642D01*
G37*
%LPD*%
G36*
X13880597Y38805970D02*
X13791045Y38716418D01*
X13791045Y38626866D01*
X13611940Y38179104D01*
X13611940Y36955224D01*
X13671642Y36865672D01*
X13611940Y36746269D01*
X13611940Y36477612D01*
X13671642Y36388060D01*
X13850746Y36298507D01*
X13910448Y36328358D01*
X15552239Y36328358D01*
X15582090Y36298507D01*
X15701493Y36328358D01*
X15791045Y36417910D01*
X15791045Y36507463D01*
X15731343Y36597015D01*
X15731343Y36925373D01*
X15791045Y37014925D01*
X15731343Y37134328D01*
X15731343Y37223881D01*
X15791045Y37313433D01*
X15791045Y37402985D01*
X15731343Y37492537D01*
X15731343Y37582090D01*
X15791045Y37671642D01*
X15791045Y37761194D01*
X15731343Y37850746D01*
X15731343Y38000000D01*
X15791045Y38089552D01*
X15791045Y38179104D01*
X15731343Y38268657D01*
X15731343Y38358209D01*
X15611940Y38507463D01*
X15611940Y38716418D01*
X15522388Y38805970D01*
X13880597Y38805970D01*
G37*
%LPD*%
G36*
X9074627Y38358209D02*
X9074627Y36417910D01*
X9164179Y36328358D01*
X11104478Y36328358D01*
X11194030Y36417910D01*
X11194030Y36626866D01*
X11253731Y36686567D01*
X11343284Y36686567D01*
X11432836Y36626866D01*
X11582090Y36626866D01*
X11671642Y36716418D01*
X11671642Y38000000D01*
X11582090Y38089552D01*
X11313433Y38029851D01*
X11194030Y38149254D01*
X11194030Y38298507D01*
X11044776Y38447761D01*
X9164179Y38447761D01*
X9074627Y38358209D01*
G37*
%LPD*%
G36*
X9283582Y42208955D02*
X9194030Y42119403D01*
X9194030Y41970149D01*
X9074627Y41820896D01*
X9074627Y39820896D01*
X9164179Y39731343D01*
X11044776Y39731343D01*
X11134328Y39791045D01*
X11194030Y39880597D01*
X11194030Y41761194D01*
X11074627Y41910448D01*
X11074627Y42119403D01*
X10985075Y42208955D01*
X10358209Y42208955D01*
X10268657Y42149254D01*
X9940299Y42149254D01*
X9850746Y42208955D01*
X9283582Y42208955D01*
G37*
%LPD*%
G36*
X43104478Y47701493D02*
X43044776Y47611940D01*
X43044776Y45791045D01*
X43104478Y45701493D01*
X43194030Y45641791D01*
X45134328Y45641791D01*
X45223881Y45582090D01*
X45373134Y45582090D01*
X45462687Y45671642D01*
X45462687Y47671642D01*
X45373134Y47761194D01*
X43194030Y47761194D01*
X43104478Y47701493D01*
G37*
%LPD*%
G36*
X14537313Y52000000D02*
X14447761Y51910448D01*
X14447761Y50447761D01*
X14388060Y50388060D01*
X14119403Y50388060D01*
X14029851Y50298507D01*
X14029851Y50208955D01*
X13970149Y50119403D01*
X13970149Y49880597D01*
X14000000Y49850746D01*
X13970149Y49791045D01*
X13970149Y49044776D01*
X14000000Y49014925D01*
X13970149Y48716418D01*
X14119403Y48507463D01*
X15283582Y48507463D01*
X15492537Y48686567D01*
X15701493Y48686567D01*
X15850746Y48835821D01*
X15850746Y50119403D01*
X15761194Y50208955D01*
X15611940Y50208955D01*
X15552239Y50268657D01*
X15552239Y51283582D01*
X15582090Y51313433D01*
X15552239Y51611940D01*
X15432836Y51880597D01*
X15283582Y52000000D01*
X14537313Y52000000D01*
G37*
%LPD*%
G36*
X43104478Y52298507D02*
X43044776Y52208955D01*
X43044776Y51761194D01*
X42985075Y51671642D01*
X42985075Y50925373D01*
X43044776Y50835821D01*
X43044776Y50388060D01*
X43104478Y50298507D01*
X43223881Y50208955D01*
X43283582Y50238806D01*
X43582090Y50238806D01*
X43671642Y50179104D01*
X44119403Y50179104D01*
X44208955Y50238806D01*
X44358209Y50238806D01*
X44447761Y50179104D01*
X45014925Y50179104D01*
X45104478Y50238806D01*
X45164179Y50328358D01*
X45164179Y52328358D01*
X45104478Y52417910D01*
X45104478Y52507463D01*
X45014925Y52597015D01*
X43791045Y52597015D01*
X43701493Y52507463D01*
X43701493Y52417910D01*
X43641791Y52358209D01*
X43194030Y52358209D01*
X43104478Y52298507D01*
G37*
%LPD*%
G36*
X18358209Y55582090D02*
X18208955Y55701493D01*
X18089552Y55641791D01*
X17940299Y55641791D01*
X17850746Y55701493D01*
X17701493Y55701493D01*
X17611940Y55641791D01*
X16179104Y55641791D01*
X16149254Y55671642D01*
X16059701Y55641791D01*
X16000000Y55552239D01*
X16000000Y55164179D01*
X15880597Y54895522D01*
X15880597Y54328358D01*
X16000000Y54179104D01*
X16000000Y53850746D01*
X16059701Y53761194D01*
X16208955Y53641791D01*
X17074627Y53641791D01*
X17164179Y53701493D01*
X17253731Y53701493D01*
X17343284Y53641791D01*
X17761194Y53641791D01*
X17791045Y53671642D01*
X17850746Y53641791D01*
X18208955Y53641791D01*
X18298507Y53701493D01*
X18388060Y53880597D01*
X18358209Y53940299D01*
X18358209Y54149254D01*
X18388060Y54179104D01*
X18358209Y54238806D01*
X18358209Y55313433D01*
X18417910Y55402985D01*
X18417910Y55492537D01*
X18358209Y55582090D01*
G37*
%LPD*%
G36*
X41820896Y55462687D02*
X41731343Y55373134D01*
X41731343Y54865672D01*
X41791045Y54776119D01*
X41791045Y52835821D01*
X41880597Y52746269D01*
X42597015Y52746269D01*
X42626866Y52776119D01*
X42746269Y52746269D01*
X42835821Y52805970D01*
X42955224Y52746269D01*
X43283582Y52746269D01*
X43432836Y52895522D01*
X43432836Y55194030D01*
X43492537Y55283582D01*
X43492537Y55373134D01*
X43402985Y55462687D01*
X41820896Y55462687D01*
G37*
%LPD*%
G36*
X39731343Y45313433D02*
X39582090Y45104478D01*
X39611940Y45044776D01*
X39582090Y44955224D01*
X39582090Y43820896D01*
X39641791Y43731343D01*
X39582090Y43462687D01*
X39641791Y43373134D01*
X39641791Y43044776D01*
X39731343Y42955224D01*
X41014925Y42955224D01*
X41402985Y43134328D01*
X41462687Y43104478D01*
X41582090Y43134328D01*
X41641791Y43223881D01*
X41641791Y44626866D01*
X41552239Y44716418D01*
X41343284Y44716418D01*
X41223881Y44835821D01*
X41223881Y45223881D01*
X41134328Y45313433D01*
X40686567Y45313433D01*
X40597015Y45253731D01*
X40208955Y45253731D01*
X40119403Y45313433D01*
X39731343Y45313433D01*
G37*
%LPD*%
G36*
X35313433Y45432836D02*
X35223881Y45343284D01*
X35283582Y45223881D01*
X35283582Y44955224D01*
X35044776Y44746269D01*
X35044776Y43104478D01*
X35104478Y43014925D01*
X35283582Y42895522D01*
X35253731Y42716418D01*
X35432836Y42537313D01*
X35582090Y42537313D01*
X35671642Y42597015D01*
X35791045Y42537313D01*
X36238806Y42537313D01*
X36388060Y42686567D01*
X36388060Y42895522D01*
X36567164Y43014925D01*
X36626866Y43104478D01*
X36626866Y44686567D01*
X36567164Y44776119D01*
X36388060Y44895522D01*
X36388060Y45343284D01*
X36298507Y45432836D01*
X36029851Y45432836D01*
X35940299Y45373134D01*
X35611940Y45373134D01*
X35522388Y45432836D01*
X35313433Y45432836D01*
G37*
%LPD*%
G36*
X13701493Y55641791D02*
X13611940Y55552239D01*
X13611940Y55104478D01*
X13552239Y55014925D01*
X13552239Y54328358D01*
X13611940Y54238806D01*
X13611940Y53791045D01*
X13671642Y53701493D01*
X13761194Y53641791D01*
X15402985Y53641791D01*
X15492537Y53731343D01*
X15492537Y54179104D01*
X15611940Y54328358D01*
X15611940Y55014925D01*
X15492537Y55164179D01*
X15492537Y55313433D01*
X15552239Y55402985D01*
X15492537Y55552239D01*
X15402985Y55641791D01*
X13701493Y55641791D01*
G37*
%LPD*%
G36*
X11402985Y55641791D02*
X11313433Y55462687D01*
X11343284Y55164179D01*
X11283582Y55074627D01*
X11283582Y54328358D01*
X11343284Y54238806D01*
X11343284Y53791045D01*
X11402985Y53701493D01*
X11492537Y53641791D01*
X11641791Y53641791D01*
X11731343Y53701493D01*
X11850746Y53641791D01*
X12388060Y53641791D01*
X12417910Y53671642D01*
X12477612Y53641791D01*
X12805970Y53641791D01*
X12835821Y53671642D01*
X13074627Y53641791D01*
X13164179Y53701493D01*
X13223881Y53791045D01*
X13223881Y54238806D01*
X13283582Y54328358D01*
X13283582Y55074627D01*
X13223881Y55164179D01*
X13223881Y55552239D01*
X13164179Y55641791D01*
X13104478Y55671642D01*
X13044776Y55641791D01*
X11731343Y55641791D01*
X11641791Y55701493D01*
X11492537Y55701493D01*
X11402985Y55641791D01*
G37*
%LPD*%
G36*
X16417910Y50149254D02*
X16358209Y50059701D01*
X16358209Y48835821D01*
X16417910Y48746269D01*
X16507463Y48686567D01*
X16835821Y48686567D01*
X17044776Y48507463D01*
X18358209Y48507463D01*
X18417910Y48477612D01*
X18477612Y48537313D01*
X18477612Y50298507D01*
X18388060Y50388060D01*
X17044776Y50388060D01*
X16835821Y50208955D01*
X16656716Y50238806D01*
X16507463Y50208955D01*
X16417910Y50149254D01*
G37*
%LPD*%
G36*
X61582090Y42149254D02*
X61373134Y41940299D01*
X61373134Y40417910D01*
X61492537Y40208955D01*
X61492537Y39582090D01*
X61582090Y39492537D01*
X62328358Y39492537D01*
X62537313Y39611940D01*
X62597015Y39701493D01*
X62597015Y39910448D01*
X62537313Y40000000D01*
X62537313Y40089552D01*
X62776119Y40358209D01*
X62776119Y42000000D01*
X62626866Y42149254D01*
X61582090Y42149254D01*
G37*
%LPD*%
G36*
X58597015Y42149254D02*
X58447761Y42000000D01*
X58447761Y41074627D01*
X58388060Y40985075D01*
X58447761Y40865672D01*
X58447761Y40567164D01*
X58417910Y40507463D01*
X58507463Y40298507D01*
X58626866Y40149254D01*
X58567164Y39761194D01*
X58686567Y39611940D01*
X58895522Y39492537D01*
X59641791Y39492537D01*
X59731343Y39582090D01*
X59731343Y39671642D01*
X59671642Y39761194D01*
X59671642Y40089552D01*
X59791045Y40298507D01*
X59791045Y40567164D01*
X59850746Y40656716D01*
X59850746Y41761194D01*
X59791045Y41850746D01*
X59791045Y42059701D01*
X59701493Y42149254D01*
X58597015Y42149254D01*
G37*
%LPD*%
G36*
X8716418Y51850746D02*
X8716418Y50328358D01*
X8805970Y50238806D01*
X9432836Y50238806D01*
X9522388Y50298507D01*
X9731343Y50298507D01*
X9820896Y50238806D01*
X10507463Y50238806D01*
X10597015Y50328358D01*
X10597015Y51253731D01*
X10656716Y51343284D01*
X10656716Y51791045D01*
X10567164Y51880597D01*
X10447761Y51940299D01*
X9492537Y51940299D01*
X9462687Y51910448D01*
X9402985Y51940299D01*
X8805970Y51940299D01*
X8716418Y51850746D01*
G37*
%LPD*%
G36*
X35791045Y29014925D02*
X35582090Y28805970D01*
X35582090Y28656716D01*
X35462687Y28447761D01*
X35462687Y27820896D01*
X35641791Y27552239D01*
X35761194Y27492537D01*
X35880597Y27313433D01*
X36149254Y27074627D01*
X36776119Y27074627D01*
X37044776Y27253731D01*
X37164179Y27462687D01*
X37402985Y27701493D01*
X37402985Y28447761D01*
X37343284Y28567164D01*
X36985075Y28955224D01*
X36776119Y29074627D01*
X36029851Y29074627D01*
X35940299Y29014925D01*
X35791045Y29014925D01*
G37*
%LPD*%
G36*
X45343284Y45253731D02*
X45194030Y45104478D01*
X45194030Y44835821D01*
X45134328Y44746269D01*
X45134328Y43552239D01*
X45164179Y43522388D01*
X45134328Y43462687D01*
X45134328Y43164179D01*
X45343284Y42955224D01*
X46388060Y42955224D01*
X46597015Y43164179D01*
X46597015Y44686567D01*
X46537313Y44776119D01*
X46537313Y44925373D01*
X46358209Y45134328D01*
X46149254Y45253731D01*
X45701493Y45253731D01*
X45611940Y45194030D01*
X45492537Y45253731D01*
X45343284Y45253731D01*
G37*
%LPD*%
G36*
X43850746Y55044776D02*
X43701493Y54895522D01*
X43701493Y54567164D01*
X43641791Y54477612D01*
X43641791Y53731343D01*
X43701493Y53641791D01*
X43701493Y53194030D01*
X43880597Y53014925D01*
X44000000Y52805970D01*
X44059701Y52776119D01*
X44179104Y52805970D01*
X44268657Y52746269D01*
X44358209Y52746269D01*
X44447761Y52805970D01*
X44835821Y52805970D01*
X44955224Y52746269D01*
X45104478Y52895522D01*
X45104478Y54895522D01*
X44955224Y55044776D01*
X44865672Y55044776D01*
X44776119Y55104478D01*
X44029851Y55104478D01*
X43940299Y55044776D01*
X43850746Y55044776D01*
G37*
%LPD*%
G36*
X57582090Y45253731D02*
X57373134Y45134328D01*
X57313433Y45044776D01*
X57313433Y43164179D01*
X57462687Y42955224D01*
X58626866Y42955224D01*
X58716418Y43044776D01*
X58716418Y44865672D01*
X58597015Y44985075D01*
X58477612Y45194030D01*
X58388060Y45253731D01*
X57940299Y45253731D01*
X57850746Y45194030D01*
X57731343Y45253731D01*
X57582090Y45253731D01*
G37*
%LPD*%
G36*
X50358209Y45253731D02*
X50208955Y45104478D01*
X50208955Y43432836D01*
X50238806Y43402985D01*
X50208955Y43104478D01*
X50358209Y42955224D01*
X51462687Y42955224D01*
X51611940Y43104478D01*
X51611940Y44805970D01*
X51552239Y44925373D01*
X51223881Y45253731D01*
X50358209Y45253731D01*
G37*
%LPD*%
G36*
X47731343Y45253731D02*
X47611940Y45194030D01*
X47283582Y44865672D01*
X47283582Y43104478D01*
X47432836Y42955224D01*
X48537313Y42955224D01*
X48686567Y43104478D01*
X48686567Y45044776D01*
X48477612Y45253731D01*
X47731343Y45253731D01*
G37*
%LPD*%
G36*
X54776119Y45253731D02*
X54447761Y44925373D01*
X54447761Y44835821D01*
X54388060Y44746269D01*
X54388060Y43164179D01*
X54537313Y42955224D01*
X55641791Y42955224D01*
X55791045Y43104478D01*
X55791045Y45104478D01*
X55582090Y45253731D01*
X55402985Y45253731D01*
X55373134Y45223881D01*
X55313433Y45253731D01*
X54776119Y45253731D01*
G37*
%LPD*%
G36*
X64626866Y45253731D02*
X64477612Y45104478D01*
X64477612Y43104478D01*
X64626866Y42955224D01*
X65731343Y42955224D01*
X65880597Y43164179D01*
X65880597Y44686567D01*
X65820896Y44776119D01*
X65820896Y44865672D01*
X65701493Y44985075D01*
X65582090Y45194030D01*
X65492537Y45253731D01*
X64626866Y45253731D01*
G37*
%LPD*%
G36*
X61044776Y55044776D02*
X60895522Y54895522D01*
X60895522Y52895522D01*
X61044776Y52746269D01*
X61492537Y52746269D01*
X61582090Y52805970D01*
X61701493Y52746269D01*
X61910448Y52746269D01*
X62000000Y52805970D01*
X62298507Y53253731D01*
X62298507Y54895522D01*
X62149254Y55044776D01*
X61044776Y55044776D01*
G37*
%LPD*%
G36*
X61940299Y45253731D02*
X61731343Y45104478D01*
X61492537Y44746269D01*
X61492537Y43164179D01*
X61701493Y42955224D01*
X62746269Y42955224D01*
X62895522Y43104478D01*
X62895522Y45104478D01*
X62746269Y45253731D01*
X62238806Y45253731D01*
X62149254Y45194030D01*
X62029851Y45253731D01*
X61940299Y45253731D01*
G37*
%LPD*%
G36*
X53940299Y55044776D02*
X53791045Y54895522D01*
X53791045Y52895522D01*
X53940299Y52746269D01*
X54029851Y52746269D01*
X54119403Y52805970D01*
X54328358Y52805970D01*
X54417910Y52746269D01*
X54686567Y52746269D01*
X54776119Y52805970D01*
X54925373Y52805970D01*
X55014925Y52895522D01*
X55014925Y52985075D01*
X55134328Y53134328D01*
X55134328Y53283582D01*
X55194030Y53373134D01*
X55194030Y54835821D01*
X54985075Y55044776D01*
X53940299Y55044776D01*
G37*
%LPD*%
G36*
X51014925Y55044776D02*
X50865672Y54895522D01*
X50865672Y53134328D01*
X51253731Y52746269D01*
X52000000Y52746269D01*
X52119403Y52805970D01*
X52268657Y53014925D01*
X52268657Y53164179D01*
X52208955Y53253731D01*
X52268657Y53373134D01*
X52268657Y54238806D01*
X52208955Y54328358D01*
X52208955Y54417910D01*
X52268657Y54507463D01*
X52268657Y54716418D01*
X52208955Y54805970D01*
X52208955Y54895522D01*
X52059701Y55044776D01*
X51014925Y55044776D01*
G37*
%LPD*%
G36*
X38179104Y31223881D02*
X37611940Y30656716D01*
X37611940Y29910448D01*
X38238806Y29283582D01*
X38985075Y29283582D01*
X39552239Y29850746D01*
X39552239Y30597015D01*
X38925373Y31223881D01*
X38179104Y31223881D01*
G37*
%LPD*%
G36*
X46776119Y55044776D02*
X46626866Y54895522D01*
X46626866Y52895522D01*
X46835821Y52746269D01*
X46955224Y52805970D01*
X47044776Y52805970D01*
X47134328Y52746269D01*
X47253731Y52805970D01*
X47373134Y52746269D01*
X47522388Y52746269D01*
X47611940Y52805970D01*
X47731343Y52776119D01*
X47791045Y52805970D01*
X47850746Y52895522D01*
X47850746Y52985075D01*
X48029851Y53194030D01*
X48029851Y54328358D01*
X48000000Y54358209D01*
X48029851Y54477612D01*
X47970149Y54567164D01*
X47970149Y54746269D01*
X48000000Y54776119D01*
X47970149Y54895522D01*
X47820896Y55044776D01*
X46776119Y55044776D01*
G37*
%LPD*%
G36*
X58119403Y55044776D02*
X57970149Y54895522D01*
X57970149Y53134328D01*
X58358209Y52746269D01*
X58805970Y52746269D01*
X58895522Y52805970D01*
X59044776Y52805970D01*
X59134328Y52746269D01*
X59223881Y52746269D01*
X59313433Y52835821D01*
X59313433Y53164179D01*
X59373134Y53253731D01*
X59313433Y53373134D01*
X59313433Y54895522D01*
X59164179Y55044776D01*
X58119403Y55044776D01*
G37*
%LPD*%
G36*
X42149254Y44716418D02*
X42089552Y44626866D01*
X42089552Y43462687D01*
X42029851Y43373134D01*
X42149254Y43134328D01*
X42417910Y42955224D01*
X43522388Y42955224D01*
X43611940Y43014925D01*
X43671642Y43104478D01*
X43671642Y44686567D01*
X43462687Y44835821D01*
X42358209Y44835821D01*
X42149254Y44716418D01*
G37*
%LPD*%
G36*
X24865672Y43402985D02*
X24656716Y43194030D01*
X24656716Y41671642D01*
X24716418Y41582090D01*
X24925373Y41462687D01*
X25910448Y41462687D01*
X26059701Y41582090D01*
X26089552Y41641791D01*
X26059701Y41761194D01*
X26238806Y41970149D01*
X26238806Y42895522D01*
X26119403Y43044776D01*
X26119403Y43194030D01*
X26059701Y43313433D01*
X25970149Y43402985D01*
X24865672Y43402985D01*
G37*
%LPD*%
G36*
X35373134Y42149254D02*
X35283582Y42059701D01*
X35283582Y41850746D01*
X35343284Y41761194D01*
X35283582Y41641791D01*
X35283582Y41194030D01*
X35343284Y41104478D01*
X35343284Y40298507D01*
X35402985Y40208955D01*
X35582090Y40119403D01*
X35641791Y40149254D01*
X36567164Y40149254D01*
X36597015Y40119403D01*
X36716418Y40149254D01*
X36805970Y40238806D01*
X36746269Y40358209D01*
X36746269Y40537313D01*
X36776119Y40567164D01*
X36746269Y40626866D01*
X36746269Y41850746D01*
X36776119Y41880597D01*
X36746269Y41970149D01*
X36656716Y42029851D01*
X36447761Y42029851D01*
X36298507Y42208955D01*
X35611940Y42208955D01*
X35522388Y42149254D01*
X35373134Y42149254D01*
G37*
%LPD*%
G36*
X69432836Y21731343D02*
X69343284Y21731343D01*
X69253731Y21671642D01*
X68328358Y21671642D01*
X68179104Y21522388D01*
X68179104Y21373134D01*
X68000000Y21164179D01*
X68000000Y20298507D01*
X68179104Y20149254D01*
X68179104Y19940299D01*
X68268657Y19850746D01*
X68358209Y19850746D01*
X68507463Y19731343D01*
X69253731Y19731343D01*
X69402985Y19850746D01*
X69492537Y19850746D01*
X69582090Y19940299D01*
X69582090Y21582090D01*
X69432836Y21731343D01*
G37*
%LPD*%
G36*
X24716418Y40895522D02*
X24656716Y40805970D01*
X24656716Y40447761D01*
X24686567Y40417910D01*
X24656716Y40358209D01*
X24656716Y39223881D01*
X24716418Y39134328D01*
X24805970Y39074627D01*
X26149254Y39074627D01*
X26238806Y39164179D01*
X26238806Y40089552D01*
X26119403Y40238806D01*
X26119403Y40328358D01*
X26059701Y40417910D01*
X26119403Y40537313D01*
X26119403Y40805970D01*
X26059701Y40895522D01*
X25970149Y40955224D01*
X24805970Y40955224D01*
X24716418Y40895522D01*
G37*
%LPD*%
G36*
X40358209Y18417910D02*
X40358209Y17850746D01*
X40298507Y17761194D01*
X40298507Y17074627D01*
X40388060Y16985075D01*
X41492537Y16985075D01*
X41641791Y17104478D01*
X42089552Y17104478D01*
X42179104Y17194030D01*
X42238806Y17313433D01*
X42238806Y17552239D01*
X42208955Y17582090D01*
X42238806Y17641791D01*
X42238806Y18417910D01*
X42149254Y18507463D01*
X40447761Y18507463D01*
X40358209Y18417910D01*
G37*
%LPD*%
G36*
X21820896Y40955224D02*
X21731343Y40865672D01*
X21731343Y40417910D01*
X21671642Y40328358D01*
X21671642Y39761194D01*
X21731343Y39671642D01*
X21731343Y39283582D01*
X21940299Y39074627D01*
X22686567Y39074627D01*
X22776119Y39134328D01*
X23044776Y39074627D01*
X23194030Y39283582D01*
X23134328Y39402985D01*
X23134328Y39731343D01*
X23194030Y39820896D01*
X23194030Y40328358D01*
X23134328Y40417910D01*
X23194030Y40537313D01*
X23194030Y40626866D01*
X23134328Y40716418D01*
X23134328Y40865672D01*
X22985075Y41014925D01*
X22835821Y41014925D01*
X22746269Y41074627D01*
X22179104Y41074627D01*
X22089552Y41014925D01*
X21940299Y41014925D01*
X21820896Y40955224D01*
G37*
%LPD*%
G36*
X20179104Y20358209D02*
X20119403Y20268657D01*
X20149254Y20208955D01*
X20119403Y20119403D01*
X20119403Y19104478D01*
X20179104Y19014925D01*
X20268657Y18955224D01*
X21492537Y18955224D01*
X21582090Y19014925D01*
X21701493Y18955224D01*
X21850746Y18955224D01*
X22000000Y19074627D01*
X22059701Y19164179D01*
X22059701Y19552239D01*
X22000000Y19641791D01*
X22059701Y19761194D01*
X22059701Y19970149D01*
X22000000Y20059701D01*
X22000000Y20268657D01*
X21940299Y20358209D01*
X21850746Y20417910D01*
X21462687Y20417910D01*
X21373134Y20477612D01*
X20746269Y20477612D01*
X20656716Y20417910D01*
X20268657Y20417910D01*
X20179104Y20358209D01*
G37*
%LPD*%
G36*
X56388060Y26746269D02*
X56179104Y26537313D01*
X56179104Y25671642D01*
X56238806Y25582090D01*
X56179104Y25462687D01*
X56179104Y25014925D01*
X56388060Y24805970D01*
X56776119Y24805970D01*
X56865672Y24865672D01*
X56985075Y24805970D01*
X57134328Y24805970D01*
X57223881Y24865672D01*
X57313433Y24865672D01*
X57432836Y24805970D01*
X57641791Y25014925D01*
X57641791Y25343284D01*
X57701493Y25432836D01*
X57701493Y26119403D01*
X57641791Y26208955D01*
X57641791Y26537313D01*
X57432836Y26746269D01*
X56388060Y26746269D01*
G37*
%LPD*%
G36*
X38358209Y41970149D02*
X38268657Y41880597D01*
X38268657Y40238806D01*
X38417910Y40089552D01*
X38686567Y40089552D01*
X38776119Y40029851D01*
X39223881Y40029851D01*
X39313433Y40089552D01*
X39522388Y40089552D01*
X39731343Y40298507D01*
X39671642Y40417910D01*
X39671642Y40507463D01*
X39731343Y40597015D01*
X39671642Y40716418D01*
X39731343Y40835821D01*
X39731343Y40925373D01*
X39671642Y41014925D01*
X39671642Y41223881D01*
X39731343Y41313433D01*
X39731343Y41641791D01*
X39671642Y41731343D01*
X39701493Y41910448D01*
X39641791Y41970149D01*
X39492537Y41970149D01*
X39402985Y42029851D01*
X38537313Y42029851D01*
X38447761Y41970149D01*
X38358209Y41970149D01*
G37*
%LPD*%
G36*
X20119403Y17373134D02*
X20059701Y17164179D01*
X20059701Y16417910D01*
X20119403Y16328358D01*
X20119403Y16179104D01*
X20179104Y16089552D01*
X20268657Y16029851D01*
X21850746Y16029851D01*
X21940299Y16119403D01*
X21940299Y16268657D01*
X22000000Y16358209D01*
X22000000Y17343284D01*
X21940299Y17432836D01*
X21850746Y17492537D01*
X20268657Y17492537D01*
X20119403Y17373134D01*
G37*
%LPD*%
G36*
X44716418Y16358209D02*
X44328358Y16358209D01*
X44238806Y16298507D01*
X43492537Y16298507D01*
X43343284Y16149254D01*
X43343284Y14567164D01*
X43492537Y14417910D01*
X43611940Y14358209D01*
X44417910Y14358209D01*
X44507463Y14417910D01*
X44656716Y14417910D01*
X44746269Y14507463D01*
X44746269Y15432836D01*
X44805970Y15522388D01*
X44805970Y16268657D01*
X44716418Y16358209D01*
G37*
%LPD*%
G36*
X16865672Y41014925D02*
X16656716Y40805970D01*
X16656716Y40597015D01*
X16716418Y40477612D01*
X16597015Y40328358D01*
X16597015Y39761194D01*
X16656716Y39671642D01*
X16656716Y39283582D01*
X16716418Y39164179D01*
X16805970Y39074627D01*
X17910448Y39074627D01*
X18119403Y39283582D01*
X18059701Y39402985D01*
X18059701Y39552239D01*
X18119403Y39641791D01*
X18059701Y39761194D01*
X18059701Y40149254D01*
X18119403Y40238806D01*
X18119403Y40328358D01*
X18059701Y40417910D01*
X18119403Y40537313D01*
X18119403Y40626866D01*
X18059701Y40716418D01*
X18089552Y40776119D01*
X18059701Y40895522D01*
X17910448Y41014925D01*
X16865672Y41014925D01*
G37*
%LPD*%
G36*
X52597015Y37910448D02*
X51970149Y37910448D01*
X51880597Y37850746D01*
X51373134Y37850746D01*
X51223881Y37701493D01*
X51223881Y36567164D01*
X51194030Y36537313D01*
X51223881Y36477612D01*
X51223881Y36149254D01*
X51194030Y36089552D01*
X51223881Y36000000D01*
X51313433Y35910448D01*
X51432836Y35970149D01*
X51522388Y35970149D01*
X51611940Y35910448D01*
X51671642Y35940299D01*
X51761194Y35910448D01*
X52417910Y35910448D01*
X52567164Y36059701D01*
X52626866Y36179104D01*
X52626866Y36268657D01*
X52567164Y36358209D01*
X52567164Y36686567D01*
X52626866Y36776119D01*
X52626866Y37044776D01*
X52686567Y37134328D01*
X52686567Y37820896D01*
X52597015Y37910448D01*
G37*
%LPD*%
G36*
X13492537Y21283582D02*
X13522388Y21164179D01*
X13432836Y21044776D01*
X13432836Y20477612D01*
X13492537Y20388060D01*
X13492537Y20179104D01*
X13582090Y20089552D01*
X13701493Y20029851D01*
X15223881Y20029851D01*
X15373134Y20149254D01*
X15402985Y20208955D01*
X15373134Y20268657D01*
X15373134Y21194030D01*
X15402985Y21253731D01*
X15313433Y21432836D01*
X15223881Y21492537D01*
X13701493Y21492537D01*
X13492537Y21283582D01*
G37*
%LPD*%
G36*
X53402985Y26746269D02*
X53253731Y26597015D01*
X53253731Y26029851D01*
X53194030Y25940299D01*
X53194030Y25671642D01*
X53253731Y25582090D01*
X53253731Y25014925D01*
X53402985Y24865672D01*
X54567164Y24865672D01*
X54716418Y25014925D01*
X54716418Y25223881D01*
X54656716Y25313433D01*
X54716418Y25432836D01*
X54716418Y26597015D01*
X54567164Y26746269D01*
X53402985Y26746269D01*
G37*
%LPD*%
G36*
X12089552Y13014925D02*
X11940299Y12865672D01*
X11940299Y11223881D01*
X12149254Y11074627D01*
X13014925Y11074627D01*
X13104478Y11134328D01*
X13253731Y11134328D01*
X13343284Y11223881D01*
X13343284Y12865672D01*
X13194030Y13014925D01*
X13104478Y13014925D01*
X13014925Y13074627D01*
X12328358Y13074627D01*
X12238806Y13014925D01*
X12089552Y13014925D01*
G37*
%LPD*%
G36*
X34119403Y13014925D02*
X33970149Y12865672D01*
X33970149Y11223881D01*
X34179104Y11074627D01*
X35044776Y11074627D01*
X35134328Y11134328D01*
X35223881Y11134328D01*
X35373134Y11283582D01*
X35373134Y12865672D01*
X35223881Y13014925D01*
X35134328Y13014925D01*
X35044776Y13074627D01*
X34358209Y13074627D01*
X34268657Y13014925D01*
X34119403Y13014925D01*
G37*
%LPD*%
G36*
X40567164Y16298507D02*
X40477612Y16208955D01*
X40477612Y14567164D01*
X40626866Y14417910D01*
X41731343Y14417910D01*
X41880597Y14626866D01*
X41880597Y16149254D01*
X41761194Y16298507D01*
X41492537Y16417910D01*
X40805970Y16417910D01*
X40656716Y16298507D01*
X40567164Y16298507D01*
G37*
%LPD*%
G36*
X58776119Y21671642D02*
X58716418Y21701493D01*
X58656716Y21671642D01*
X57582090Y21671642D01*
X57492537Y21611940D01*
X57432836Y21522388D01*
X57432836Y21373134D01*
X57313433Y21223881D01*
X57313433Y20298507D01*
X57432836Y20149254D01*
X57432836Y20000000D01*
X57492537Y19910448D01*
X57761194Y19791045D01*
X58507463Y19791045D01*
X58597015Y19850746D01*
X58746269Y19850746D01*
X58835821Y19940299D01*
X58835821Y21582090D01*
X58776119Y21671642D01*
G37*
%LPD*%
G36*
X51701493Y23641791D02*
X51641791Y23552239D01*
X51641791Y22447761D01*
X51761194Y22298507D01*
X51850746Y22238806D01*
X51970149Y22298507D01*
X53283582Y22298507D01*
X53343284Y22268657D01*
X53432836Y22298507D01*
X53522388Y22388060D01*
X53582090Y22507463D01*
X53582090Y22597015D01*
X53522388Y22686567D01*
X53582090Y22805970D01*
X53582090Y23492537D01*
X53432836Y23701493D01*
X52865672Y23701493D01*
X52776119Y23761194D01*
X52388060Y23761194D01*
X52298507Y23701493D01*
X51791045Y23701493D01*
X51701493Y23641791D01*
G37*
%LPD*%
G36*
X61164179Y13014925D02*
X61014925Y12865672D01*
X61014925Y11223881D01*
X61164179Y11074627D01*
X62089552Y11074627D01*
X62179104Y11134328D01*
X62268657Y11134328D01*
X62417910Y11283582D01*
X62417910Y12805970D01*
X62298507Y12955224D01*
X62089552Y13074627D01*
X61343284Y13074627D01*
X61253731Y13014925D01*
X61164179Y13014925D01*
G37*
%LPD*%
G36*
X62328358Y24268657D02*
X62328358Y23582090D01*
X62447761Y23432836D01*
X62447761Y23223881D01*
X62537313Y23134328D01*
X64179104Y23134328D01*
X64328358Y23283582D01*
X64328358Y24388060D01*
X64179104Y24537313D01*
X62597015Y24537313D01*
X62328358Y24268657D01*
G37*
%LPD*%
G36*
X78716418Y48119403D02*
X78567164Y47970149D01*
X78567164Y47402985D01*
X78507463Y47313433D01*
X78507463Y47104478D01*
X78626866Y46895522D01*
X78567164Y46776119D01*
X78567164Y46686567D01*
X78626866Y46597015D01*
X78567164Y46447761D01*
X78776119Y46238806D01*
X79820896Y46238806D01*
X80029851Y46447761D01*
X80029851Y47970149D01*
X79880597Y48119403D01*
X78716418Y48119403D01*
G37*
%LPD*%
G36*
X79910448Y30328358D02*
X79850746Y30358209D01*
X79791045Y30328358D01*
X78716418Y30328358D01*
X78567164Y30179104D01*
X78567164Y29850746D01*
X78626866Y29761194D01*
X78626866Y29671642D01*
X78567164Y29582090D01*
X78567164Y29194030D01*
X78626866Y29104478D01*
X78567164Y28985075D01*
X78567164Y28716418D01*
X78626866Y28626866D01*
X78626866Y28537313D01*
X78716418Y28447761D01*
X79880597Y28447761D01*
X80029851Y28597015D01*
X80029851Y30119403D01*
X79910448Y30328358D01*
G37*
%LPD*%
G36*
X51641791Y20686567D02*
X51582090Y20567164D01*
X51641791Y20447761D01*
X51641791Y20358209D01*
X51582090Y20268657D01*
X51641791Y20149254D01*
X51641791Y19552239D01*
X51611940Y19492537D01*
X51731343Y19373134D01*
X52119403Y19373134D01*
X52208955Y19313433D01*
X52955224Y19313433D01*
X53044776Y19373134D01*
X53432836Y19373134D01*
X53522388Y19462687D01*
X53522388Y20626866D01*
X53373134Y20776119D01*
X51731343Y20776119D01*
X51641791Y20686567D01*
G37*
%LPD*%
G36*
X78716418Y33910448D02*
X78567164Y33761194D01*
X78567164Y33671642D01*
X78626866Y33582090D01*
X78567164Y33462687D01*
X78567164Y33283582D01*
X78597015Y33253731D01*
X78567164Y33194030D01*
X78567164Y32746269D01*
X78597015Y32716418D01*
X78567164Y32537313D01*
X78626866Y32447761D01*
X78597015Y32298507D01*
X78626866Y32119403D01*
X78716418Y32029851D01*
X79880597Y32029851D01*
X80029851Y32179104D01*
X80029851Y33761194D01*
X79880597Y33910448D01*
X78716418Y33910448D01*
G37*
%LPD*%
G36*
X21880597Y43402985D02*
X21731343Y43253731D01*
X21731343Y41671642D01*
X21880597Y41522388D01*
X22029851Y41522388D01*
X22119403Y41462687D01*
X22805970Y41462687D01*
X22895522Y41522388D01*
X23044776Y41522388D01*
X23164179Y41641791D01*
X23134328Y41820896D01*
X23194030Y41910448D01*
X23134328Y42029851D01*
X23134328Y42835821D01*
X23194030Y42925373D01*
X23194030Y43014925D01*
X23134328Y43104478D01*
X23164179Y43164179D01*
X23134328Y43313433D01*
X23044776Y43402985D01*
X21880597Y43402985D01*
G37*
%LPD*%
G36*
X62447761Y21462687D02*
X62447761Y21373134D01*
X62388060Y21283582D01*
X62388060Y20537313D01*
X62447761Y20447761D01*
X62447761Y20298507D01*
X62537313Y20208955D01*
X64238806Y20208955D01*
X64328358Y20298507D01*
X64328358Y21164179D01*
X64388060Y21283582D01*
X64328358Y21373134D01*
X64328358Y21522388D01*
X64238806Y21611940D01*
X62597015Y21611940D01*
X62447761Y21462687D01*
G37*
%LPD*%
G36*
X44776119Y22716418D02*
X44776119Y21492537D01*
X44865672Y21402985D01*
X45253731Y21402985D01*
X45343284Y21343284D01*
X46089552Y21343284D01*
X46179104Y21402985D01*
X46567164Y21402985D01*
X46656716Y21492537D01*
X46656716Y22716418D01*
X46567164Y22805970D01*
X44865672Y22805970D01*
X44776119Y22716418D01*
G37*
%LPD*%
G36*
X48179104Y11283582D02*
X48029851Y11283582D01*
X47940299Y11223881D01*
X46895522Y11223881D01*
X46805970Y11134328D01*
X46805970Y9432836D01*
X46895522Y9343284D01*
X48059701Y9343284D01*
X48208955Y9492537D01*
X48208955Y10537313D01*
X48268657Y10626866D01*
X48268657Y11194030D01*
X48179104Y11283582D01*
G37*
%LPD*%
G36*
X81641791Y33910448D02*
X81492537Y33701493D01*
X81552239Y33582090D01*
X81552239Y32358209D01*
X81492537Y32268657D01*
X81552239Y32119403D01*
X81641791Y32029851D01*
X82805970Y32029851D01*
X82955224Y32179104D01*
X82955224Y32746269D01*
X83014925Y32835821D01*
X83014925Y33522388D01*
X82955224Y33611940D01*
X82955224Y33761194D01*
X82805970Y33910448D01*
X81641791Y33910448D01*
G37*
%LPD*%
G36*
X19671642Y40955224D02*
X19582090Y40865672D01*
X19582090Y39164179D01*
X19671642Y39074627D01*
X20895522Y39074627D01*
X20985075Y39164179D01*
X20985075Y39611940D01*
X21044776Y39701493D01*
X21044776Y40328358D01*
X20985075Y40417910D01*
X20985075Y40865672D01*
X20895522Y40955224D01*
X19671642Y40955224D01*
G37*
%LPD*%
G36*
X81611940Y30328358D02*
X81492537Y30059701D01*
X81552239Y29940299D01*
X81552239Y28537313D01*
X81641791Y28447761D01*
X82805970Y28447761D01*
X82895522Y28507463D01*
X82955224Y28597015D01*
X82955224Y29164179D01*
X83014925Y29253731D01*
X83014925Y29940299D01*
X82955224Y30029851D01*
X82955224Y30179104D01*
X82895522Y30268657D01*
X82805970Y30328358D01*
X81731343Y30328358D01*
X81701493Y30358209D01*
X81611940Y30328358D01*
G37*
%LPD*%
G36*
X78776119Y23223881D02*
X78567164Y23014925D01*
X78567164Y22925373D01*
X78626866Y22835821D01*
X78567164Y22716418D01*
X78626866Y22597015D01*
X78567164Y22477612D01*
X78567164Y21850746D01*
X78626866Y21761194D01*
X78567164Y21641791D01*
X78567164Y21552239D01*
X78776119Y21343284D01*
X79880597Y21343284D01*
X80029851Y21552239D01*
X80029851Y23014925D01*
X79970149Y23134328D01*
X79880597Y23223881D01*
X78776119Y23223881D01*
G37*
%LPD*%
G36*
X78776119Y37492537D02*
X78567164Y37283582D01*
X78567164Y37074627D01*
X78626866Y36985075D01*
X78626866Y36835821D01*
X78567164Y36746269D01*
X78567164Y36298507D01*
X78626866Y36208955D01*
X78567164Y36059701D01*
X78626866Y35940299D01*
X78567164Y35850746D01*
X78567164Y35761194D01*
X78716418Y35611940D01*
X79880597Y35611940D01*
X80029851Y35761194D01*
X80029851Y37283582D01*
X79820896Y37492537D01*
X78776119Y37492537D01*
G37*
%LPD*%
G36*
X60567164Y21731343D02*
X60358209Y21582090D01*
X60358209Y21373134D01*
X60298507Y21283582D01*
X60358209Y21164179D01*
X60358209Y20268657D01*
X60328358Y20238806D01*
X60358209Y19940299D01*
X60447761Y19850746D01*
X60537313Y19850746D01*
X60686567Y19731343D01*
X61373134Y19731343D01*
X61522388Y19850746D01*
X61611940Y19850746D01*
X61701493Y19940299D01*
X61701493Y20179104D01*
X61731343Y20208955D01*
X61701493Y20388060D01*
X61820896Y20537313D01*
X61820896Y21283582D01*
X61701493Y21432836D01*
X61701493Y21582090D01*
X61611940Y21671642D01*
X60746269Y21671642D01*
X60656716Y21731343D01*
X60567164Y21731343D01*
G37*
%LPD*%
G36*
X78716418Y41014925D02*
X78567164Y40805970D01*
X78567164Y40537313D01*
X78626866Y40447761D01*
X78567164Y40328358D01*
X78567164Y39820896D01*
X78626866Y39731343D01*
X78567164Y39611940D01*
X78567164Y39343284D01*
X78776119Y39134328D01*
X79820896Y39134328D01*
X80029851Y39343284D01*
X80029851Y39641791D01*
X80000000Y39671642D01*
X80029851Y39731343D01*
X80029851Y40805970D01*
X79820896Y41014925D01*
X78716418Y41014925D01*
G37*
%LPD*%
G36*
X81701493Y37492537D02*
X81552239Y37343284D01*
X81552239Y36000000D01*
X81492537Y35910448D01*
X81492537Y35820896D01*
X81552239Y35701493D01*
X81641791Y35611940D01*
X82179104Y35611940D01*
X82208955Y35582090D01*
X82268657Y35611940D01*
X82865672Y35611940D01*
X82955224Y35701493D01*
X82955224Y36268657D01*
X83014925Y36358209D01*
X83014925Y37044776D01*
X82955224Y37134328D01*
X82955224Y37283582D01*
X82746269Y37492537D01*
X81701493Y37492537D01*
G37*
%LPD*%
G36*
X81641791Y23223881D02*
X81552239Y23134328D01*
X81522388Y22985075D01*
X81552239Y22925373D01*
X81552239Y21641791D01*
X81522388Y21611940D01*
X81552239Y21432836D01*
X81641791Y21343284D01*
X82805970Y21343284D01*
X82955224Y21492537D01*
X82955224Y22000000D01*
X83014925Y22089552D01*
X83014925Y22835821D01*
X82955224Y22925373D01*
X82955224Y23074627D01*
X82865672Y23164179D01*
X82776119Y23164179D01*
X82686567Y23223881D01*
X81641791Y23223881D01*
G37*
%LPD*%
G36*
X78776119Y44597015D02*
X78567164Y44388060D01*
X78567164Y44238806D01*
X78626866Y44149254D01*
X78626866Y44000000D01*
X78567164Y43910448D01*
X78567164Y43462687D01*
X78626866Y43373134D01*
X78567164Y43253731D01*
X78567164Y42865672D01*
X78716418Y42716418D01*
X79820896Y42716418D01*
X80029851Y42925373D01*
X80029851Y44388060D01*
X79820896Y44597015D01*
X78776119Y44597015D01*
G37*
%LPD*%
G36*
X80208955Y51701493D02*
X80119403Y51611940D01*
X80119403Y49910448D01*
X80208955Y49820896D01*
X81373134Y49820896D01*
X81522388Y49970149D01*
X81522388Y50537313D01*
X81582090Y50626866D01*
X81582090Y51313433D01*
X81522388Y51402985D01*
X81522388Y51552239D01*
X81373134Y51701493D01*
X80208955Y51701493D01*
G37*
%LPD*%
G36*
X43970149Y11223881D02*
X43820896Y11074627D01*
X43820896Y9492537D01*
X43970149Y9343284D01*
X44298507Y9343284D01*
X44388060Y9283582D01*
X45074627Y9283582D01*
X45223881Y9432836D01*
X45223881Y11134328D01*
X45134328Y11223881D01*
X43970149Y11223881D01*
G37*
%LPD*%
G36*
X77223881Y55164179D02*
X77134328Y55104478D01*
X77044776Y54925373D01*
X77074627Y54865672D01*
X77074627Y54507463D01*
X77014925Y54417910D01*
X77014925Y53970149D01*
X77074627Y53880597D01*
X77074627Y53731343D01*
X77014925Y53641791D01*
X77014925Y53552239D01*
X77074627Y53462687D01*
X77074627Y53373134D01*
X77164179Y53283582D01*
X78388060Y53283582D01*
X78477612Y53373134D01*
X78477612Y55014925D01*
X78328358Y55164179D01*
X77223881Y55164179D01*
G37*
%LPD*%
G36*
X80089552Y55164179D02*
X80000000Y55074627D01*
X80000000Y54059701D01*
X79970149Y54029851D01*
X80000000Y53970149D01*
X80000000Y53373134D01*
X80089552Y53283582D01*
X81313433Y53283582D01*
X81402985Y53373134D01*
X81402985Y54119403D01*
X81462687Y54208955D01*
X81462687Y54895522D01*
X81194030Y55164179D01*
X80089552Y55164179D01*
G37*
%LPD*%
G36*
X13492537Y18417910D02*
X13492537Y17313433D01*
X13641791Y17104478D01*
X15223881Y17104478D01*
X15373134Y17253731D01*
X15373134Y17343284D01*
X15432836Y17432836D01*
X15432836Y18119403D01*
X15373134Y18208955D01*
X15373134Y18417910D01*
X15283582Y18507463D01*
X13582090Y18507463D01*
X13492537Y18417910D01*
G37*
%LPD*%
G36*
X9164179Y13014925D02*
X9074627Y12925373D01*
X9074627Y11223881D01*
X9164179Y11134328D01*
X10328358Y11134328D01*
X10477612Y11283582D01*
X10477612Y12865672D01*
X10328358Y13014925D01*
X10119403Y13014925D01*
X10029851Y13074627D01*
X9462687Y13074627D01*
X9373134Y13014925D01*
X9164179Y13014925D01*
G37*
%LPD*%
G36*
X81701493Y44597015D02*
X81611940Y44537313D01*
X81492537Y44328358D01*
X81552239Y44208955D01*
X81552239Y42865672D01*
X81701493Y42716418D01*
X82179104Y42716418D01*
X82208955Y42686567D01*
X82268657Y42716418D01*
X82805970Y42716418D01*
X82955224Y42865672D01*
X82955224Y43373134D01*
X83014925Y43462687D01*
X83014925Y44208955D01*
X82955224Y44298507D01*
X82955224Y44447761D01*
X82865672Y44537313D01*
X82776119Y44537313D01*
X82686567Y44597015D01*
X81701493Y44597015D01*
G37*
%LPD*%
G36*
X80268657Y13014925D02*
X80119403Y12865672D01*
X80119403Y11283582D01*
X80268657Y11134328D01*
X81432836Y11134328D01*
X81522388Y11223881D01*
X81522388Y12865672D01*
X81373134Y13014925D01*
X81223881Y13014925D01*
X81134328Y13074627D01*
X80507463Y13074627D01*
X80417910Y13014925D01*
X80268657Y13014925D01*
G37*
%LPD*%
G36*
X71432836Y27104478D02*
X71343284Y27014925D01*
X71343284Y25313433D01*
X71432836Y25223881D01*
X72597015Y25223881D01*
X72746269Y25373134D01*
X72746269Y25820896D01*
X72805970Y25910448D01*
X72805970Y26417910D01*
X72746269Y26507463D01*
X72746269Y26955224D01*
X72597015Y27104478D01*
X71432836Y27104478D01*
G37*
%LPD*%
G36*
X68507463Y27104478D02*
X68417910Y27014925D01*
X68417910Y26447761D01*
X68358209Y26358209D01*
X68358209Y25970149D01*
X68417910Y25880597D01*
X68417910Y25313433D01*
X68507463Y25223881D01*
X69671642Y25223881D01*
X69820896Y25373134D01*
X69820896Y27014925D01*
X69731343Y27104478D01*
X68507463Y27104478D01*
G37*
%LPD*%
G36*
X73194030Y21611940D02*
X73134328Y21522388D01*
X73164179Y21462687D01*
X73134328Y21194030D01*
X73014925Y21044776D01*
X73014925Y20477612D01*
X73134328Y20208955D01*
X73134328Y20000000D01*
X73194030Y19910448D01*
X73283582Y19850746D01*
X74447761Y19850746D01*
X74537313Y19940299D01*
X74537313Y20149254D01*
X74597015Y20238806D01*
X74537313Y20358209D01*
X74537313Y21492537D01*
X74567164Y21522388D01*
X74537313Y21611940D01*
X74388060Y21731343D01*
X74298507Y21731343D01*
X74208955Y21671642D01*
X73820896Y21671642D01*
X73701493Y21731343D01*
X73611940Y21671642D01*
X73283582Y21671642D01*
X73194030Y21611940D01*
G37*
%LPD*%
G36*
X71313433Y21731343D02*
X71104478Y21522388D01*
X71104478Y21373134D01*
X71044776Y21283582D01*
X71104478Y21164179D01*
X71104478Y19940299D01*
X71194030Y19850746D01*
X71402985Y19850746D01*
X71492537Y19791045D01*
X72119403Y19791045D01*
X72208955Y19850746D01*
X72417910Y19850746D01*
X72507463Y19940299D01*
X72507463Y20179104D01*
X72537313Y20208955D01*
X72507463Y20328358D01*
X72567164Y20417910D01*
X72567164Y21044776D01*
X72507463Y21134328D01*
X72507463Y21522388D01*
X72298507Y21731343D01*
X72208955Y21731343D01*
X72119403Y21671642D01*
X71492537Y21671642D01*
X71402985Y21731343D01*
X71313433Y21731343D01*
G37*
%LPD*%
G36*
X44776119Y25582090D02*
X44776119Y25313433D01*
X44716418Y25223881D01*
X44716418Y24835821D01*
X44776119Y24746269D01*
X44776119Y24477612D01*
X44925373Y24328358D01*
X46567164Y24328358D01*
X46656716Y24417910D01*
X46656716Y25641791D01*
X46567164Y25731343D01*
X44925373Y25731343D01*
X44776119Y25582090D01*
G37*
%LPD*%
G36*
X81701493Y41014925D02*
X81552239Y40865672D01*
X81552239Y39522388D01*
X81492537Y39432836D01*
X81552239Y39283582D01*
X81701493Y39134328D01*
X82328358Y39134328D01*
X82537313Y39194030D01*
X82686567Y39194030D01*
X82805970Y39134328D01*
X82955224Y39343284D01*
X82955224Y39850746D01*
X83014925Y39940299D01*
X83014925Y40626866D01*
X82955224Y40716418D01*
X82955224Y40865672D01*
X82805970Y41014925D01*
X82268657Y41014925D01*
X82238806Y41044776D01*
X82179104Y41014925D01*
X81701493Y41014925D01*
G37*
%LPD*%
G36*
X77283582Y51701493D02*
X77194030Y51611940D01*
X77194030Y51044776D01*
X77134328Y50955224D01*
X77134328Y50626866D01*
X77194030Y50537313D01*
X77194030Y49970149D01*
X77343284Y49820896D01*
X78447761Y49820896D01*
X78597015Y49970149D01*
X78597015Y51552239D01*
X78447761Y51701493D01*
X77283582Y51701493D01*
G37*
%LPD*%
G36*
X76089552Y21731343D02*
X76000000Y21641791D01*
X76000000Y20895522D01*
X76059701Y20805970D01*
X76059701Y19940299D01*
X76149254Y19850746D01*
X77373134Y19850746D01*
X77462687Y19940299D01*
X77462687Y21582090D01*
X77373134Y21671642D01*
X76686567Y21671642D01*
X76597015Y21731343D01*
X76089552Y21731343D01*
G37*
%LPD*%
G36*
X81641791Y48119403D02*
X81552239Y48029851D01*
X81552239Y47611940D01*
X81522388Y47582090D01*
X81552239Y47522388D01*
X81552239Y46388060D01*
X81701493Y46238806D01*
X81910448Y46238806D01*
X82000000Y46298507D01*
X82089552Y46298507D01*
X82179104Y46238806D01*
X82328358Y46238806D01*
X82417910Y46298507D01*
X82567164Y46238806D01*
X82686567Y46298507D01*
X82805970Y46238806D01*
X82955224Y46447761D01*
X82955224Y46955224D01*
X83014925Y47044776D01*
X83014925Y47791045D01*
X82955224Y47880597D01*
X82955224Y47970149D01*
X82805970Y48119403D01*
X81641791Y48119403D01*
G37*
%LPD*%
G36*
X10925373Y21671642D02*
X10865672Y21582090D01*
X10865672Y21373134D01*
X10805970Y21283582D01*
X10865672Y21164179D01*
X10865672Y20268657D01*
X10835821Y20238806D01*
X10865672Y19940299D01*
X10955224Y19850746D01*
X11223881Y19850746D01*
X11313433Y19791045D01*
X11940299Y19791045D01*
X12029851Y19850746D01*
X12179104Y19850746D01*
X12268657Y19940299D01*
X12268657Y20388060D01*
X12328358Y20477612D01*
X12328358Y21044776D01*
X12268657Y21134328D01*
X12268657Y21522388D01*
X12208955Y21611940D01*
X12119403Y21671642D01*
X11044776Y21671642D01*
X11014925Y21701493D01*
X10925373Y21671642D01*
G37*
%LPD*%
G36*
X78626866Y26686567D02*
X78567164Y26597015D01*
X78567164Y26328358D01*
X78626866Y26238806D01*
X78626866Y26149254D01*
X78567164Y26059701D01*
X78567164Y25611940D01*
X78626866Y25522388D01*
X78567164Y25402985D01*
X78567164Y25134328D01*
X78686567Y24925373D01*
X78776119Y24865672D01*
X78865672Y24865672D01*
X78955224Y24925373D01*
X79880597Y24925373D01*
X80029851Y25134328D01*
X80029851Y26656716D01*
X79940299Y26746269D01*
X79850746Y26776119D01*
X79791045Y26746269D01*
X78865672Y26746269D01*
X78805970Y26776119D01*
X78626866Y26686567D01*
G37*
%LPD*%
G36*
X54298507Y37791045D02*
X54149254Y37641791D01*
X54149254Y36059701D01*
X54298507Y35910448D01*
X55313433Y35910448D01*
X55343284Y35880597D01*
X55432836Y35910448D01*
X55522388Y36089552D01*
X55492537Y36268657D01*
X55611940Y36477612D01*
X55611940Y37223881D01*
X55492537Y37432836D01*
X55522388Y37582090D01*
X55492537Y37701493D01*
X55402985Y37791045D01*
X54298507Y37791045D01*
G37*
%LPD*%
G36*
X81611940Y26746269D02*
X81522388Y26626866D01*
X81552239Y26567164D01*
X81552239Y25373134D01*
X81492537Y25283582D01*
X81552239Y25164179D01*
X81552239Y25014925D01*
X81611940Y24925373D01*
X81701493Y24865672D01*
X81820896Y24925373D01*
X82089552Y24925373D01*
X82179104Y24865672D01*
X82298507Y24925373D01*
X82388060Y24925373D01*
X82477612Y24865672D01*
X82567164Y24865672D01*
X82656716Y24925373D01*
X82716418Y24895522D01*
X82835821Y24925373D01*
X82955224Y25074627D01*
X82955224Y25582090D01*
X83014925Y25671642D01*
X83014925Y26417910D01*
X82895522Y26686567D01*
X82805970Y26746269D01*
X82268657Y26746269D01*
X82238806Y26776119D01*
X82179104Y26746269D01*
X81731343Y26746269D01*
X81701493Y26776119D01*
X81611940Y26746269D01*
G37*
%LPD*%
G36*
X83194030Y13014925D02*
X83104478Y12955224D01*
X83014925Y12776119D01*
X83044776Y12716418D01*
X83044776Y11402985D01*
X82985075Y11283582D01*
X83194030Y11074627D01*
X83671642Y11074627D01*
X83701493Y11104478D01*
X83761194Y11074627D01*
X84119403Y11074627D01*
X84208955Y11134328D01*
X84298507Y11134328D01*
X84388060Y11223881D01*
X84388060Y12865672D01*
X84238806Y13014925D01*
X84149254Y13014925D01*
X84059701Y13074627D01*
X83373134Y13074627D01*
X83283582Y13014925D01*
X83194030Y13014925D01*
G37*
%LPD*%
G36*
X31194030Y13014925D02*
X31044776Y12805970D01*
X31044776Y12716418D01*
X31104478Y12626866D01*
X31104478Y11313433D01*
X31074627Y11283582D01*
X31104478Y11194030D01*
X31194030Y11134328D01*
X32358209Y11134328D01*
X32447761Y11223881D01*
X32447761Y12925373D01*
X32358209Y13014925D01*
X32149254Y13014925D01*
X32059701Y13074627D01*
X31492537Y13074627D01*
X31402985Y13014925D01*
X31194030Y13014925D01*
G37*
%LPD*%
G36*
X58238806Y13014925D02*
X58149254Y12925373D01*
X58149254Y11223881D01*
X58238806Y11134328D01*
X59402985Y11134328D01*
X59492537Y11223881D01*
X59492537Y12925373D01*
X59402985Y13014925D01*
X59194030Y13014925D01*
X59104478Y13074627D01*
X58477612Y13074627D01*
X58388060Y13014925D01*
X58238806Y13014925D01*
G37*
%LPD*%
G36*
X85820896Y47223881D02*
X85671642Y47074627D01*
X85671642Y45731343D01*
X85731343Y45641791D01*
X85820896Y45582090D01*
X85910448Y45582090D01*
X86059701Y45462687D01*
X86805970Y45462687D01*
X87074627Y45731343D01*
X87074627Y47074627D01*
X86925373Y47223881D01*
X85820896Y47223881D01*
G37*
%LPD*%
G36*
X85820896Y25850746D02*
X85671642Y25701493D01*
X85671642Y24358209D01*
X85731343Y24268657D01*
X85820896Y24208955D01*
X85910448Y24208955D01*
X86059701Y24089552D01*
X86805970Y24089552D01*
X87074627Y24358209D01*
X87074627Y25701493D01*
X86865672Y25850746D01*
X85820896Y25850746D01*
G37*
%LPD*%
G36*
X85820896Y40119403D02*
X85671642Y39970149D01*
X85671642Y38626866D01*
X85731343Y38537313D01*
X85820896Y38477612D01*
X85910448Y38477612D01*
X86059701Y38358209D01*
X86805970Y38358209D01*
X87074627Y38567164D01*
X87074627Y39970149D01*
X86985075Y40059701D01*
X86835821Y40059701D01*
X86746269Y40119403D01*
X86149254Y40119403D01*
X86119403Y40089552D01*
X85820896Y40119403D01*
G37*
%LPD*%
G36*
X85761194Y32955224D02*
X85671642Y32865672D01*
X85671642Y31462687D01*
X85731343Y31373134D01*
X85820896Y31313433D01*
X85970149Y31313433D01*
X86059701Y31253731D01*
X86805970Y31253731D01*
X87014925Y31373134D01*
X87074627Y31462687D01*
X87074627Y32865672D01*
X86985075Y32955224D01*
X85761194Y32955224D01*
G37*
%LPD*%
G36*
X85820896Y29432836D02*
X85671642Y29283582D01*
X85671642Y27880597D01*
X85820896Y27731343D01*
X85940299Y27761194D01*
X86059701Y27671642D01*
X86805970Y27671642D01*
X87074627Y27940299D01*
X87074627Y29283582D01*
X86925373Y29432836D01*
X86805970Y29373134D01*
X85940299Y29373134D01*
X85820896Y29432836D01*
G37*
%LPD*%
G36*
X85731343Y36477612D02*
X85671642Y36388060D01*
X85671642Y35044776D01*
X85731343Y34955224D01*
X85820896Y34895522D01*
X85970149Y34895522D01*
X86059701Y34835821D01*
X86805970Y34835821D01*
X86895522Y34895522D01*
X86985075Y34895522D01*
X87074627Y34985075D01*
X87074627Y36388060D01*
X87014925Y36477612D01*
X86925373Y36537313D01*
X85820896Y36537313D01*
X85731343Y36477612D01*
G37*
%LPD*%
G36*
X85731343Y43582090D02*
X85671642Y43492537D01*
X85671642Y42208955D01*
X85731343Y42089552D01*
X85820896Y42000000D01*
X85970149Y42000000D01*
X86059701Y41940299D01*
X86805970Y41940299D01*
X87014925Y42059701D01*
X87074627Y42149254D01*
X87074627Y43492537D01*
X87014925Y43582090D01*
X86925373Y43641791D01*
X85820896Y43641791D01*
X85731343Y43582090D01*
G37*
%LPD*%
G36*
X85820896Y22268657D02*
X85671642Y22119403D01*
X85671642Y20835821D01*
X85791045Y20686567D01*
X85940299Y20656716D01*
X86059701Y20567164D01*
X86805970Y20567164D01*
X87074627Y20776119D01*
X87074627Y22119403D01*
X86925373Y22268657D01*
X85820896Y22268657D01*
G37*
%LPD*%
G36*
X52537313Y42000000D02*
X52477612Y41880597D01*
X52477612Y41134328D01*
X52537313Y41044776D01*
X52537313Y40895522D01*
X52597015Y40805970D01*
X52686567Y40746269D01*
X53970149Y40746269D01*
X54119403Y40865672D01*
X54179104Y40955224D01*
X54179104Y41940299D01*
X54059701Y42089552D01*
X53970149Y42149254D01*
X52746269Y42149254D01*
X52537313Y42000000D01*
G37*
%LPD*%
G36*
X50805970Y16537313D02*
X50746269Y16447761D01*
X50746269Y15402985D01*
X50805970Y15313433D01*
X50895522Y15253731D01*
X51044776Y15253731D01*
X51194030Y15134328D01*
X51940299Y15134328D01*
X52089552Y15253731D01*
X52298507Y15253731D01*
X52388060Y15343284D01*
X52388060Y16507463D01*
X52298507Y16597015D01*
X50895522Y16597015D01*
X50805970Y16537313D01*
G37*
%LPD*%
G36*
X9850746Y17134328D02*
X9791045Y17044776D01*
X9791045Y16000000D01*
X9910448Y15850746D01*
X10000000Y15791045D01*
X10268657Y15791045D01*
X10358209Y15731343D01*
X10925373Y15731343D01*
X11014925Y15791045D01*
X11223881Y15791045D01*
X11373134Y15910448D01*
X11432836Y16000000D01*
X11432836Y17044776D01*
X11373134Y17134328D01*
X11283582Y17194030D01*
X9940299Y17194030D01*
X9850746Y17134328D01*
G37*
%LPD*%
G36*
X84268657Y54328358D02*
X84179104Y54238806D01*
X84179104Y53134328D01*
X84119403Y53044776D01*
X84179104Y52925373D01*
X84179104Y52776119D01*
X84268657Y52686567D01*
X84776119Y52686567D01*
X84865672Y52626866D01*
X85492537Y52626866D01*
X85582090Y52716418D01*
X85582090Y53343284D01*
X85522388Y53432836D01*
X85522388Y54179104D01*
X85462687Y54268657D01*
X85373134Y54328358D01*
X84268657Y54328358D01*
G37*
%LPD*%
G36*
X15850746Y18567164D02*
X15761194Y18477612D01*
X15761194Y18149254D01*
X15701493Y18059701D01*
X15701493Y17492537D01*
X15761194Y17402985D01*
X15761194Y17134328D01*
X15820896Y17044776D01*
X15910448Y16985075D01*
X17074627Y16985075D01*
X17164179Y17074627D01*
X17164179Y18477612D01*
X16955224Y18626866D01*
X16805970Y18626866D01*
X16716418Y18567164D01*
X16447761Y18567164D01*
X16358209Y18626866D01*
X16208955Y18567164D01*
X16119403Y18626866D01*
X16029851Y18626866D01*
X15940299Y18567164D01*
X15850746Y18567164D01*
G37*
%LPD*%
G36*
X58865672Y17014925D02*
X58835821Y16955224D01*
X58865672Y16895522D01*
X58865672Y15820896D01*
X58925373Y15731343D01*
X59014925Y15671642D01*
X59283582Y15671642D01*
X59373134Y15611940D01*
X59940299Y15611940D01*
X60029851Y15671642D01*
X60298507Y15671642D01*
X60388060Y15731343D01*
X60507463Y15940299D01*
X60447761Y16059701D01*
X60447761Y16805970D01*
X60507463Y16925373D01*
X60417910Y17014925D01*
X60298507Y17074627D01*
X58955224Y17074627D01*
X58865672Y17014925D01*
G37*
%LPD*%
G36*
X84298507Y50686567D02*
X84238806Y50597015D01*
X84238806Y50447761D01*
X84298507Y50358209D01*
X84298507Y49552239D01*
X84238806Y49462687D01*
X84238806Y49373134D01*
X84298507Y49283582D01*
X84298507Y49194030D01*
X84388060Y49104478D01*
X84597015Y49104478D01*
X84686567Y49164179D01*
X84895522Y49164179D01*
X84985075Y49104478D01*
X85611940Y49104478D01*
X85701493Y49194030D01*
X85701493Y49820896D01*
X85641791Y49910448D01*
X85641791Y50656716D01*
X85552239Y50746269D01*
X84388060Y50746269D01*
X84298507Y50686567D01*
G37*
%LPD*%
G36*
X36388060Y19223881D02*
X36238806Y19014925D01*
X36298507Y18895522D01*
X36298507Y18805970D01*
X36238806Y18716418D01*
X36238806Y18089552D01*
X36298507Y17880597D01*
X36298507Y17671642D01*
X36388060Y17582090D01*
X37492537Y17582090D01*
X37582090Y17641791D01*
X37641791Y17731343D01*
X37641791Y19134328D01*
X37552239Y19223881D01*
X36388060Y19223881D01*
G37*
%LPD*%
G36*
X69731343Y17104478D02*
X69731343Y15940299D01*
X69791045Y15850746D01*
X69880597Y15791045D01*
X71164179Y15791045D01*
X71253731Y15850746D01*
X71313433Y15940299D01*
X71313433Y16089552D01*
X71373134Y16179104D01*
X71373134Y16865672D01*
X71253731Y17134328D01*
X71164179Y17194030D01*
X69820896Y17194030D01*
X69731343Y17104478D01*
G37*
%LPD*%
G36*
X60597015Y24656716D02*
X60537313Y24567164D01*
X60537313Y23462687D01*
X60656716Y23194030D01*
X60776119Y23104478D01*
X60835821Y23134328D01*
X61791045Y23134328D01*
X61880597Y23194030D01*
X61940299Y23283582D01*
X61940299Y23492537D01*
X62000000Y23582090D01*
X62000000Y24268657D01*
X61940299Y24358209D01*
X61940299Y24626866D01*
X61850746Y24716418D01*
X60686567Y24716418D01*
X60597015Y24656716D01*
G37*
%LPD*%
G36*
X75552239Y24477612D02*
X75462687Y24388060D01*
X75462687Y22985075D01*
X75552239Y22895522D01*
X75641791Y22895522D01*
X75791045Y22776119D01*
X76477612Y22776119D01*
X76686567Y22895522D01*
X76805970Y23044776D01*
X76805970Y24388060D01*
X76716418Y24477612D01*
X75552239Y24477612D01*
G37*
%LPD*%
G36*
X26537313Y42089552D02*
X26447761Y42000000D01*
X26447761Y41910448D01*
X26507463Y41820896D01*
X26507463Y41731343D01*
X26447761Y41641791D01*
X26507463Y41522388D01*
X26507463Y40626866D01*
X26477612Y40597015D01*
X26507463Y40358209D01*
X26447761Y40268657D01*
X26447761Y40179104D01*
X26537313Y40089552D01*
X26955224Y40089552D01*
X26985075Y40119403D01*
X27044776Y40089552D01*
X27522388Y40089552D01*
X27611940Y40179104D01*
X27611940Y40328358D01*
X27552239Y40417910D01*
X27582090Y40567164D01*
X27552239Y40805970D01*
X27611940Y40895522D01*
X27611940Y41641791D01*
X27552239Y41761194D01*
X27611940Y41850746D01*
X27611940Y42000000D01*
X27522388Y42089552D01*
X27253731Y42089552D01*
X27164179Y42029851D01*
X26835821Y42029851D01*
X26746269Y42089552D01*
X26537313Y42089552D01*
G37*
%LPD*%
G36*
X43940299Y18238806D02*
X43880597Y18000000D01*
X43940299Y17880597D01*
X43940299Y17611940D01*
X43880597Y17522388D01*
X43880597Y17373134D01*
X43940299Y17283582D01*
X43910448Y17134328D01*
X43940299Y17044776D01*
X44029851Y16985075D01*
X44238806Y16985075D01*
X44328358Y16925373D01*
X45074627Y16925373D01*
X45164179Y16985075D01*
X45432836Y16985075D01*
X45522388Y17074627D01*
X45522388Y17582090D01*
X45462687Y17671642D01*
X45462687Y17820896D01*
X45522388Y17910448D01*
X45522388Y18119403D01*
X45373134Y18328358D01*
X44029851Y18328358D01*
X43940299Y18238806D01*
G37*
%LPD*%
G36*
X74776119Y42835821D02*
X74686567Y42925373D01*
X74119403Y42925373D01*
X74029851Y42865672D01*
X73402985Y42865672D01*
X73313433Y42776119D01*
X73313433Y42149254D01*
X73253731Y42059701D01*
X73253731Y41671642D01*
X73343284Y41582090D01*
X73970149Y41582090D01*
X74059701Y41641791D01*
X74208955Y41641791D01*
X74298507Y41582090D01*
X74746269Y41582090D01*
X74835821Y41671642D01*
X74835821Y41880597D01*
X74776119Y41970149D01*
X74776119Y42835821D01*
G37*
%LPD*%
G36*
X43134328Y20716418D02*
X43044776Y20626866D01*
X43044776Y20000000D01*
X43104478Y19910448D01*
X43104478Y19402985D01*
X43164179Y19313433D01*
X43253731Y19253731D01*
X44119403Y19253731D01*
X44208955Y19313433D01*
X44268657Y19402985D01*
X44268657Y20447761D01*
X44208955Y20537313D01*
X44059701Y20656716D01*
X43850746Y20656716D01*
X43761194Y20716418D01*
X43134328Y20716418D01*
G37*
%LPD*%
G36*
X61194030Y19402985D02*
X60686567Y19402985D01*
X60597015Y19343284D01*
X60208955Y19343284D01*
X60119403Y19253731D01*
X60119403Y18089552D01*
X60179104Y18000000D01*
X60268657Y17940299D01*
X61074627Y17940299D01*
X61164179Y18000000D01*
X61223881Y18089552D01*
X61223881Y18656716D01*
X61283582Y18746269D01*
X61283582Y19313433D01*
X61194030Y19402985D01*
G37*
%LPD*%
G36*
X58119403Y19402985D02*
X58029851Y19313433D01*
X58029851Y18686567D01*
X58089552Y18597015D01*
X58089552Y18149254D01*
X58149254Y18029851D01*
X58238806Y17940299D01*
X59044776Y17940299D01*
X59134328Y18000000D01*
X59194030Y18089552D01*
X59194030Y19253731D01*
X59104478Y19343284D01*
X58656716Y19343284D01*
X58567164Y19402985D01*
X58119403Y19402985D01*
G37*
%LPD*%
G36*
X58208955Y25462687D02*
X58208955Y25134328D01*
X58268657Y25044776D01*
X58268657Y24537313D01*
X58328358Y24447761D01*
X58417910Y24388060D01*
X59522388Y24388060D01*
X59611940Y24447761D01*
X59671642Y24537313D01*
X59671642Y25402985D01*
X59582090Y25492537D01*
X59074627Y25492537D01*
X58985075Y25552239D01*
X58298507Y25552239D01*
X58208955Y25462687D01*
G37*
%LPD*%
G36*
X11970149Y37253731D02*
X11880597Y37164179D01*
X11880597Y37014925D01*
X11820896Y36925373D01*
X11880597Y36805970D01*
X11880597Y36388060D01*
X11850746Y36328358D01*
X11880597Y36179104D01*
X11940299Y36089552D01*
X12149254Y35910448D01*
X12895522Y35910448D01*
X12985075Y35970149D01*
X13074627Y35970149D01*
X13164179Y36059701D01*
X13164179Y36805970D01*
X13104478Y36895522D01*
X12716418Y37253731D01*
X11970149Y37253731D01*
G37*
%LPD*%
G36*
X83402985Y26507463D02*
X83343284Y26417910D01*
X83343284Y25671642D01*
X83462687Y25522388D01*
X83552239Y25462687D01*
X84597015Y25462687D01*
X84686567Y25522388D01*
X84746269Y25611940D01*
X84746269Y26537313D01*
X84656716Y26626866D01*
X83552239Y26626866D01*
X83402985Y26507463D01*
G37*
%LPD*%
G36*
X83402985Y47880597D02*
X83343284Y47791045D01*
X83343284Y47044776D01*
X83462687Y46895522D01*
X83552239Y46835821D01*
X84597015Y46835821D01*
X84686567Y46895522D01*
X84746269Y46985075D01*
X84746269Y47850746D01*
X84686567Y47940299D01*
X84597015Y48000000D01*
X83611940Y48000000D01*
X83402985Y47880597D01*
G37*
%LPD*%
G36*
X53940299Y39820896D02*
X53791045Y39611940D01*
X53791045Y38686567D01*
X53850746Y38567164D01*
X53940299Y38477612D01*
X54805970Y38477612D01*
X54895522Y38537313D01*
X55014925Y38805970D01*
X55014925Y39492537D01*
X54895522Y39761194D01*
X54805970Y39820896D01*
X53940299Y39820896D01*
G37*
%LPD*%
G36*
X83283582Y33522388D02*
X83283582Y32835821D01*
X83432836Y32686567D01*
X83552239Y32626866D01*
X84656716Y32626866D01*
X84746269Y32716418D01*
X84746269Y33582090D01*
X84597015Y33731343D01*
X83552239Y33731343D01*
X83343284Y33611940D01*
X83283582Y33522388D01*
G37*
%LPD*%
G36*
X58208955Y23253731D02*
X58208955Y22567164D01*
X58417910Y22358209D01*
X59522388Y22358209D01*
X59671642Y22507463D01*
X59641791Y22656716D01*
X59671642Y22716418D01*
X59671642Y23313433D01*
X59522388Y23462687D01*
X58417910Y23462687D01*
X58208955Y23253731D01*
G37*
%LPD*%
G36*
X45343284Y20656716D02*
X45194030Y20507463D01*
X45194030Y20417910D01*
X45134328Y20328358D01*
X45134328Y19761194D01*
X45194030Y19671642D01*
X45194030Y19582090D01*
X45134328Y19462687D01*
X45194030Y19343284D01*
X45283582Y19253731D01*
X46149254Y19253731D01*
X46298507Y19402985D01*
X46298507Y20388060D01*
X46238806Y20507463D01*
X46089552Y20656716D01*
X45343284Y20656716D01*
G37*
%LPD*%
G36*
X71134328Y19522388D02*
X70985075Y19373134D01*
X70985075Y19014925D01*
X70955224Y18985075D01*
X70985075Y18925373D01*
X70985075Y18268657D01*
X71134328Y18119403D01*
X72000000Y18119403D01*
X72089552Y18208955D01*
X72089552Y18895522D01*
X72149254Y18985075D01*
X72149254Y19432836D01*
X72059701Y19522388D01*
X71432836Y19522388D01*
X71343284Y19462687D01*
X71253731Y19462687D01*
X71134328Y19522388D01*
G37*
%LPD*%
G36*
X68985075Y19522388D02*
X68895522Y19432836D01*
X68895522Y18746269D01*
X68955224Y18656716D01*
X68925373Y18477612D01*
X68955224Y18447761D01*
X68955224Y18268657D01*
X69014925Y18179104D01*
X69104478Y18119403D01*
X69910448Y18119403D01*
X70000000Y18179104D01*
X70059701Y18268657D01*
X70059701Y19373134D01*
X69970149Y19462687D01*
X69582090Y19462687D01*
X69492537Y19522388D01*
X68985075Y19522388D01*
G37*
%LPD*%
G36*
X83462687Y24537313D02*
X83402985Y24447761D01*
X83402985Y24238806D01*
X83343284Y24149254D01*
X83343284Y23820896D01*
X83402985Y23731343D01*
X83402985Y23582090D01*
X83462687Y23492537D01*
X83552239Y23432836D01*
X84656716Y23432836D01*
X84746269Y23522388D01*
X84746269Y24447761D01*
X84686567Y24537313D01*
X84597015Y24597015D01*
X84537313Y24567164D01*
X84447761Y24597015D01*
X84238806Y24597015D01*
X84208955Y24567164D01*
X83970149Y24597015D01*
X83880597Y24537313D01*
X83791045Y24537313D01*
X83701493Y24597015D01*
X83552239Y24597015D01*
X83462687Y24537313D01*
G37*
%LPD*%
G36*
X73134328Y23074627D02*
X73074627Y22955224D01*
X73074627Y22447761D01*
X73134328Y22358209D01*
X73134328Y22268657D01*
X73283582Y22119403D01*
X74388060Y22119403D01*
X74537313Y22268657D01*
X74537313Y23014925D01*
X74388060Y23223881D01*
X73343284Y23223881D01*
X73134328Y23074627D01*
G37*
%LPD*%
G36*
X83462687Y42328358D02*
X83402985Y42238806D01*
X83402985Y42089552D01*
X83343284Y42000000D01*
X83343284Y41671642D01*
X83402985Y41582090D01*
X83402985Y41373134D01*
X83492537Y41283582D01*
X83582090Y41253731D01*
X83701493Y41283582D01*
X83791045Y41223881D01*
X83880597Y41223881D01*
X83970149Y41283582D01*
X84089552Y41223881D01*
X84597015Y41223881D01*
X84686567Y41283582D01*
X84746269Y41373134D01*
X84746269Y42298507D01*
X84656716Y42388060D01*
X83552239Y42388060D01*
X83462687Y42328358D01*
G37*
%LPD*%
G36*
X38567164Y17940299D02*
X38567164Y16955224D01*
X38656716Y16865672D01*
X39820896Y16865672D01*
X39910448Y16925373D01*
X39970149Y17014925D01*
X39970149Y17761194D01*
X39820896Y17970149D01*
X38776119Y17970149D01*
X38656716Y18029851D01*
X38567164Y17940299D01*
G37*
%LPD*%
G36*
X83343284Y44208955D02*
X83343284Y43462687D01*
X83492537Y43313433D01*
X83611940Y43253731D01*
X83731343Y43313433D01*
X84000000Y43313433D01*
X84119403Y43253731D01*
X84208955Y43313433D01*
X84656716Y43313433D01*
X84746269Y43402985D01*
X84746269Y44328358D01*
X84656716Y44417910D01*
X83552239Y44417910D01*
X83343284Y44208955D01*
G37*
%LPD*%
G36*
X83462687Y45910448D02*
X83402985Y45820896D01*
X83402985Y45611940D01*
X83343284Y45522388D01*
X83343284Y45194030D01*
X83402985Y45104478D01*
X83402985Y44955224D01*
X83462687Y44865672D01*
X83552239Y44805970D01*
X84656716Y44805970D01*
X84746269Y44895522D01*
X84746269Y45820896D01*
X84686567Y45910448D01*
X84626866Y45940299D01*
X84447761Y45910448D01*
X84358209Y45970149D01*
X84089552Y45970149D01*
X84000000Y45910448D01*
X83791045Y45910448D01*
X83701493Y45970149D01*
X83552239Y45970149D01*
X83462687Y45910448D01*
G37*
%LPD*%
G36*
X18149254Y19283582D02*
X18089552Y19194030D01*
X18089552Y18388060D01*
X18149254Y18298507D01*
X18238806Y18238806D01*
X19343284Y18238806D01*
X19432836Y18328358D01*
X19492537Y18447761D01*
X19432836Y18567164D01*
X19432836Y19253731D01*
X19343284Y19343284D01*
X19253731Y19343284D01*
X19164179Y19402985D01*
X18417910Y19402985D01*
X18149254Y19283582D01*
G37*
%LPD*%
G36*
X18089552Y17223881D02*
X18089552Y16358209D01*
X18149254Y16268657D01*
X18238806Y16208955D01*
X19343284Y16208955D01*
X19432836Y16298507D01*
X19492537Y16417910D01*
X19492537Y17164179D01*
X19432836Y17253731D01*
X19343284Y17313433D01*
X18179104Y17313433D01*
X18089552Y17223881D01*
G37*
%LPD*%
G36*
X83343284Y22835821D02*
X83343284Y22089552D01*
X83432836Y22000000D01*
X83552239Y21940299D01*
X84029851Y21940299D01*
X84089552Y21910448D01*
X84119403Y21940299D01*
X84656716Y21940299D01*
X84746269Y22029851D01*
X84746269Y22955224D01*
X84656716Y23044776D01*
X83552239Y23044776D01*
X83343284Y22835821D01*
G37*
%LPD*%
G36*
X83343284Y30000000D02*
X83343284Y29253731D01*
X83552239Y29044776D01*
X84656716Y29044776D01*
X84746269Y29134328D01*
X84746269Y30059701D01*
X84656716Y30149254D01*
X83880597Y30149254D01*
X83850746Y30179104D01*
X83552239Y30149254D01*
X83343284Y30000000D01*
G37*
%LPD*%
G36*
X73194030Y25164179D02*
X73164179Y25074627D01*
X73194030Y25014925D01*
X73194030Y24477612D01*
X73134328Y24388060D01*
X73134328Y24298507D01*
X73194030Y24208955D01*
X73283582Y24149254D01*
X74388060Y24149254D01*
X74477612Y24208955D01*
X74537313Y24298507D01*
X74537313Y25104478D01*
X74477612Y25194030D01*
X74388060Y25253731D01*
X74179104Y25253731D01*
X74089552Y25313433D01*
X73582090Y25313433D01*
X73492537Y25253731D01*
X73283582Y25253731D01*
X73194030Y25164179D01*
G37*
%LPD*%
G36*
X81910448Y51313433D02*
X81910448Y50626866D01*
X82119403Y50417910D01*
X83223881Y50417910D01*
X83313433Y50507463D01*
X83313433Y51432836D01*
X83223881Y51522388D01*
X82119403Y51522388D01*
X81910448Y51313433D01*
G37*
%LPD*%
G36*
X52805970Y39820896D02*
X52746269Y39850746D01*
X52686567Y39820896D01*
X51910448Y39820896D01*
X51820896Y39731343D01*
X51761194Y39611940D01*
X51761194Y38686567D01*
X51880597Y38477612D01*
X51970149Y38417910D01*
X52716418Y38417910D01*
X52865672Y38567164D01*
X52865672Y39731343D01*
X52805970Y39820896D01*
G37*
%LPD*%
G36*
X81791045Y54895522D02*
X81791045Y54149254D01*
X81880597Y54059701D01*
X82000000Y54000000D01*
X83104478Y54000000D01*
X83194030Y54089552D01*
X83194030Y54955224D01*
X83044776Y55104478D01*
X82059701Y55104478D01*
X81850746Y54985075D01*
X81791045Y54895522D01*
G37*
%LPD*%
G36*
X83343284Y40686567D02*
X83343284Y39940299D01*
X83552239Y39731343D01*
X84358209Y39731343D01*
X84447761Y39791045D01*
X84537313Y39791045D01*
X84656716Y39731343D01*
X84746269Y39820896D01*
X84746269Y40746269D01*
X84656716Y40835821D01*
X83552239Y40835821D01*
X83343284Y40686567D01*
G37*
%LPD*%
G36*
X83462687Y20955224D02*
X83343284Y20686567D01*
X83343284Y20298507D01*
X83402985Y20208955D01*
X83402985Y20059701D01*
X83522388Y19910448D01*
X83582090Y19880597D01*
X83641791Y19910448D01*
X84567164Y19910448D01*
X84597015Y19880597D01*
X84686567Y19910448D01*
X84746269Y20000000D01*
X84746269Y20925373D01*
X84656716Y21014925D01*
X83552239Y21014925D01*
X83462687Y20955224D01*
G37*
%LPD*%
G36*
X83462687Y28059701D02*
X83402985Y27970149D01*
X83402985Y27820896D01*
X83343284Y27731343D01*
X83343284Y27402985D01*
X83402985Y27313433D01*
X83402985Y27164179D01*
X83462687Y27074627D01*
X83552239Y27014925D01*
X84656716Y27014925D01*
X84746269Y27104478D01*
X84746269Y28029851D01*
X84656716Y28119403D01*
X84119403Y28119403D01*
X84059701Y28149254D01*
X84029851Y28119403D01*
X83552239Y28119403D01*
X83462687Y28059701D01*
G37*
%LPD*%
G36*
X83313433Y49432836D02*
X83164179Y49552239D01*
X83044776Y49492537D01*
X82119403Y49492537D01*
X81970149Y49283582D01*
X81970149Y48537313D01*
X82029851Y48447761D01*
X82119403Y48388060D01*
X83223881Y48388060D01*
X83313433Y48477612D01*
X83313433Y48805970D01*
X83373134Y48895522D01*
X83313433Y49014925D01*
X83313433Y49164179D01*
X83373134Y49253731D01*
X83373134Y49343284D01*
X83313433Y49432836D01*
G37*
%LPD*%
G36*
X83462687Y38746269D02*
X83402985Y38656716D01*
X83402985Y38507463D01*
X83343284Y38417910D01*
X83343284Y38089552D01*
X83402985Y38000000D01*
X83402985Y37850746D01*
X83462687Y37761194D01*
X83552239Y37701493D01*
X84597015Y37701493D01*
X84686567Y37761194D01*
X84746269Y37850746D01*
X84746269Y38716418D01*
X84656716Y38805970D01*
X83552239Y38805970D01*
X83462687Y38746269D01*
G37*
%LPD*%
G36*
X83462687Y31641791D02*
X83402985Y31552239D01*
X83402985Y31402985D01*
X83343284Y31313433D01*
X83343284Y30925373D01*
X83402985Y30835821D01*
X83402985Y30686567D01*
X83492537Y30597015D01*
X84656716Y30597015D01*
X84746269Y30686567D01*
X84746269Y31552239D01*
X84686567Y31641791D01*
X84626866Y31671642D01*
X84388060Y31641791D01*
X84298507Y31701493D01*
X83552239Y31701493D01*
X83462687Y31641791D01*
G37*
%LPD*%
G36*
X81910448Y53014925D02*
X81850746Y52925373D01*
X81850746Y52776119D01*
X81791045Y52686567D01*
X81791045Y52298507D01*
X81850746Y52208955D01*
X81850746Y52059701D01*
X81940299Y51970149D01*
X82447761Y51970149D01*
X82567164Y51910448D01*
X82656716Y51970149D01*
X83104478Y51970149D01*
X83194030Y52059701D01*
X83194030Y52925373D01*
X83134328Y53014925D01*
X83074627Y53044776D01*
X83014925Y53014925D01*
X82716418Y53014925D01*
X82626866Y53074627D01*
X82328358Y53074627D01*
X82298507Y53044776D01*
X82000000Y53074627D01*
X81910448Y53014925D01*
G37*
%LPD*%
G36*
X83402985Y37194030D02*
X83343284Y37104478D01*
X83343284Y36358209D01*
X83402985Y36268657D01*
X83582090Y36179104D01*
X83641791Y36208955D01*
X83940299Y36208955D01*
X84029851Y36149254D01*
X84119403Y36149254D01*
X84208955Y36208955D01*
X84567164Y36208955D01*
X84597015Y36179104D01*
X84686567Y36208955D01*
X84746269Y36298507D01*
X84746269Y37164179D01*
X84686567Y37253731D01*
X84626866Y37283582D01*
X84567164Y37253731D01*
X83910448Y37253731D01*
X83791045Y37313433D01*
X83701493Y37253731D01*
X83492537Y37253731D01*
X83402985Y37194030D01*
G37*
%LPD*%
G36*
X11194030Y19462687D02*
X11104478Y19373134D01*
X11104478Y18358209D01*
X11074627Y18328358D01*
X11104478Y18208955D01*
X11194030Y18119403D01*
X12059701Y18119403D01*
X12208955Y18328358D01*
X12208955Y18477612D01*
X12149254Y18567164D01*
X12149254Y19373134D01*
X12000000Y19522388D01*
X11313433Y19522388D01*
X11194030Y19462687D01*
G37*
%LPD*%
G36*
X83402985Y35134328D02*
X83402985Y34985075D01*
X83343284Y34895522D01*
X83343284Y34507463D01*
X83402985Y34417910D01*
X83402985Y34268657D01*
X83492537Y34179104D01*
X83582090Y34149254D01*
X83701493Y34179104D01*
X83791045Y34119403D01*
X83880597Y34119403D01*
X84000000Y34179104D01*
X84089552Y34119403D01*
X84238806Y34119403D01*
X84328358Y34179104D01*
X84656716Y34179104D01*
X84746269Y34268657D01*
X84746269Y35134328D01*
X84656716Y35223881D01*
X83492537Y35223881D01*
X83402985Y35134328D01*
G37*
%LPD*%
G36*
X50119403Y18925373D02*
X50029851Y18835821D01*
X50029851Y18537313D01*
X50000000Y18507463D01*
X50029851Y18447761D01*
X50029851Y18029851D01*
X49970149Y17910448D01*
X50029851Y17820896D01*
X50029851Y17671642D01*
X50149254Y17552239D01*
X50208955Y17582090D01*
X50985075Y17582090D01*
X51074627Y17671642D01*
X51074627Y17910448D01*
X51104478Y17940299D01*
X51074627Y18000000D01*
X51074627Y18358209D01*
X51134328Y18477612D01*
X51074627Y18567164D01*
X51074627Y18776119D01*
X50865672Y18925373D01*
X50119403Y18925373D01*
G37*
%LPD*%
G36*
X52208955Y18925373D02*
X52059701Y18776119D01*
X52059701Y18000000D01*
X52029851Y17970149D01*
X52059701Y17671642D01*
X52149254Y17582090D01*
X53014925Y17582090D01*
X53104478Y17671642D01*
X53104478Y17820896D01*
X53164179Y17910448D01*
X53104478Y18029851D01*
X53104478Y18358209D01*
X53164179Y18447761D01*
X53104478Y18567164D01*
X53104478Y18776119D01*
X52955224Y18925373D01*
X52208955Y18925373D01*
G37*
%LPD*%
D11*
X1761194Y48417910D03*
D12*
X6238806Y48388060D03*
D13*
X1740853Y41873992D03*
D12*
X6238806Y41910448D03*
D14*
X70059701Y40686567D02*
X68746269Y40686567D01*
D15*
X74179104Y40686567D02*
X72746269Y40686567D01*
D16*
X1740641Y39385859D03*
D17*
X6208955Y39343284D03*
D18*
X58107917Y38564869D03*
D19*
X63100156Y38543340D03*
D14*
X43552239Y38537313D02*
X42238806Y38537313D01*
D20*
X49671642Y38567164D02*
X48537313Y38567164D01*
D21*
X10149254Y33671642D03*
D22*
X12656716Y33671642D03*
D23*
X1731343Y32865672D03*
D24*
X6238806Y32835821D03*
D25*
X44746269Y31194030D03*
D26*
X47253731Y31194030D03*
D27*
X10089552Y31134328D03*
D28*
X12656716Y31134328D03*
D29*
X1791045Y30298507D03*
D30*
X6238805Y30298506D03*
D31*
X10089552Y28626866D03*
D28*
X12656716Y28597015D03*
D32*
X1738230Y23795640D03*
D33*
X6246011Y23787951D03*
D34*
X7791045Y15223881D03*
D35*
X29791048Y15223877D03*
D36*
X56825294Y15236168D03*
D37*
X78820903Y15208955D03*
D38*
X13283582Y15134328D03*
D39*
X35294208Y15182238D03*
D37*
X62304483Y15176116D03*
D37*
X84323767Y15187147D03*
D36*
X5582090Y13492537D03*
D40*
X15417912Y13388056D03*
D41*
X27582090Y13492537D03*
D37*
X37447765Y13388056D03*
D41*
X54626873Y13492534D03*
D42*
X76641798Y13477608D03*
D37*
X64447761Y13373134D03*
D43*
X86507470Y13402981D03*
D44*
X4298507Y10955224D03*
D45*
X26343524Y10967456D03*
D40*
X53343284Y10925373D03*
D39*
X75379329Y10961983D03*
D46*
X16597015Y10835821D03*
D47*
X38656720Y10865668D03*
D47*
X65671642Y10805970D03*
D48*
X87704575Y10872876D03*
D39*
X54567164Y5611940D03*
D35*
X5462687Y5611940D03*
D46*
X15343284Y5522388D03*
D44*
X27505674Y5614323D03*
D49*
X37373134Y5552239D03*
D48*
X64358209Y5552239D03*
D50*
X76567171Y5611933D03*
D51*
X86432843Y5537306D03*
D52*
X44686567Y5223881D02*
X44686567Y5820896D01*
D53*
X47313433Y5522388D03*
D45*
X7671642Y3820896D03*
D40*
X29695526Y3868649D03*
D54*
X56716422Y3850739D03*
D55*
X78716418Y3850746D03*
D56*
X13164177Y3791041D03*
D41*
X35170151Y3808944D03*
D45*
X62189635Y3803339D03*
D42*
X84208955Y3791045D03*
D50*
X10388060Y3134328D03*
D57*
X32388060Y3194030D03*
D51*
X59432836Y3194030D03*
D58*
X81432836Y3194030D03*
%LPD*%
D59*
X23164179Y37194030D03*
D59*
X23964179Y37194030D03*
D59*
X24764179Y37194030D03*
D59*
X25564179Y37194030D03*
D59*
X26364179Y37194030D03*
D59*
X27164179Y37194030D03*
D59*
X27964179Y37194030D03*
D59*
X28764179Y37194030D03*
D59*
X29564179Y37194030D03*
D59*
X30364179Y37194030D03*
D59*
X31164179Y37194030D03*
D59*
X23164179Y25731343D03*
D59*
X23964179Y25731343D03*
D59*
X24764179Y25731343D03*
D59*
X25564179Y25731343D03*
D59*
X26364179Y25731343D03*
D59*
X27164179Y25731343D03*
D59*
X27964179Y25731343D03*
D59*
X28764179Y25731343D03*
D59*
X29564179Y25731343D03*
D59*
X30364179Y25731343D03*
D59*
X31164179Y25731343D03*
D60*
X21432836Y27462687D03*
D60*
X21432836Y28262687D03*
D60*
X21432836Y29062687D03*
D60*
X21432836Y29862687D03*
D60*
X21432836Y30662687D03*
D60*
X21432836Y31462687D03*
D60*
X21432836Y32262687D03*
D60*
X21432836Y33062687D03*
D60*
X21432836Y33862687D03*
D60*
X21432836Y34662687D03*
D60*
X21432836Y35462687D03*
D60*
X32895522Y27462687D03*
D60*
X32895522Y28262687D03*
D60*
X32895522Y29062687D03*
D60*
X32895522Y29862687D03*
D60*
X32895522Y30662687D03*
D60*
X32895522Y31462687D03*
D60*
X32895522Y32262687D03*
D60*
X32895522Y33062687D03*
D60*
X32895522Y33862687D03*
D60*
X32895522Y34662687D03*
D60*
X32895522Y35462687D03*
M02*
